<svg width="850" height="559" viewBox="0 0 850 559" fill="none" xmlns="http://www.w3.org/2000/svg">
<path d="M167.271 422.89C330.472 474.677 521.284 449.494 585.239 441.893C649.193 434.292 711.847 408.747 756.619 364.736C808.468 313.772 833.02 240.454 828.11 169.764C825.589 133.392 815.295 96.6826 792.66 67.2381C760.388 25.2706 705.072 2.16849 650.335 0.909968C595.598 -0.348559 541.78 18.5044 496.194 47.2885C460.061 70.1165 427.92 99.4239 387.691 115.037C333.544 136.096 272.623 129.579 214.117 128.619C155.612 127.66 91.2375 135.111 51.1003 175.521C21.7819 205.053 10.8713 249.039 19.6681 288.751C28.4649 328.463 55.6957 363.515 91.0537 386.306L167.271 422.89Z" fill="#F5F5F5"/>
<path d="M781.644 83.736H54.1596V544.008H781.644V83.736Z" fill="#FAFAFA"/>
<path d="M781.644 83.736H54.1596V113.156H781.644V83.736Z" fill="#481620"/>
<path d="M781.644 113.155C781.644 112.557 781.644 103.872 781.553 83.7358L781.644 83.8231L54.2646 84.0598L54.606 83.7358V113.155L54.2646 112.831L781.75 113.155L54.1596 113.492H53.8182V83.4119H54.199L781.644 83.6486H781.736V83.7358C781.671 103.872 781.644 112.557 781.644 113.155Z" fill="#481620"/>
<path d="M77.9241 97.5671C77.9241 98.5061 77.6307 99.424 77.0811 100.205C76.5314 100.985 75.7501 101.594 74.8361 101.953C73.922 102.313 72.9162 102.407 71.9458 102.223C70.9755 102.04 70.0841 101.588 69.3845 100.924C68.6849 100.26 68.2085 99.4143 68.0155 98.4933C67.8225 97.5724 67.9215 96.6179 68.3002 95.7504C68.6788 94.8829 69.3199 94.1414 70.1426 93.6197C70.9652 93.0981 71.9324 92.8196 72.9218 92.8196C74.2485 92.8196 75.5208 93.3198 76.459 94.2102C77.3971 95.1005 77.9241 96.308 77.9241 97.5671Z" fill="#FF0000"/>
<path d="M93.3908 97.5672C93.3908 98.5061 93.0974 99.424 92.5478 100.205C91.9981 100.985 91.2168 101.594 90.3028 101.953C89.3887 102.313 88.3829 102.407 87.4125 102.223C86.4421 102.04 85.5508 101.588 84.8512 100.924C84.1516 100.26 83.6752 99.4143 83.4822 98.4934C83.2892 97.5724 83.3882 96.6179 83.7668 95.7504C84.1455 94.8829 84.7866 94.1414 85.6093 93.6198C86.4319 93.0981 87.3991 92.8197 88.3884 92.8197C89.0458 92.818 89.6971 92.9397 90.3048 93.1777C90.9125 93.4157 91.4647 93.7653 91.9295 94.2065C92.3944 94.6477 92.7628 95.1717 93.0135 95.7484C93.2643 96.3252 93.3925 96.9433 93.3908 97.5672Z" fill="#FEF400"/>
<path d="M108.871 97.5671C108.871 98.5061 108.577 99.424 108.028 100.205C107.478 100.985 106.697 101.594 105.783 101.953C104.868 102.313 103.863 102.407 102.892 102.223C101.922 102.04 101.031 101.588 100.331 100.924C99.6314 100.26 99.155 99.4143 98.962 98.4933C98.7689 97.5724 98.868 96.6179 99.2466 95.7504C99.6252 94.8829 100.266 94.1414 101.089 93.6197C101.912 93.0981 102.879 92.8196 103.868 92.8196C105.195 92.8196 106.467 93.3198 107.405 94.2102C108.344 95.1005 108.871 96.308 108.871 97.5671Z" fill="#61FF00"/>
<path d="M697.628 543.97C669.557 515.971 628.343 502.264 587.576 502.538C557.798 502.725 526.733 511.161 499.069 500.744C473.453 491.1 457.199 467.686 437.281 449.655C406.264 421.811 365.275 406.164 322.581 405.869C293.932 405.782 262.395 412.024 238.762 396.648C222.822 386.268 214.669 368.387 203.469 353.422C170.645 309.548 107.453 291.256 54.5666 310.644V543.659L697.628 543.97Z" fill="#EBEBEB"/>
<path d="M781.644 544.008C781.644 541.889 781.539 364.337 781.369 83.7358L781.644 83.9975H54.2646L54.606 83.6735C54.606 247.581 54.606 403.489 54.606 543.945L54.2909 543.646L781.776 543.945L54.2909 544.244H53.9758V543.945C53.9758 403.489 53.9758 247.581 53.9758 83.6735V83.3495H54.3828H781.763H782.038V83.6112C781.749 364.337 781.644 541.889 781.644 544.008Z" fill="#481620"/>
<path d="M145.292 184.418C145.292 184.879 141.721 185.265 137.296 185.265C132.872 185.265 129.3 184.879 129.3 184.418C129.3 183.957 132.885 183.583 137.296 183.583C141.708 183.583 145.292 183.957 145.292 184.418Z" fill="#481620"/>
<path d="M153.787 163.783C154.273 163.783 154.667 167.222 154.667 171.484C154.667 175.745 154.273 179.184 153.787 179.184C153.301 179.184 152.907 175.733 152.907 171.484C152.907 167.235 153.301 163.783 153.787 163.783Z" fill="#481620"/>
<path d="M162.833 183.932C162.833 183.459 166.405 183.085 170.816 183.085C175.228 183.085 178.812 183.459 178.812 183.932C178.812 184.406 175.241 184.767 170.816 184.767C166.391 184.767 162.833 184.393 162.833 183.932Z" fill="#481620"/>
<path d="M154.338 204.567C153.853 204.567 153.459 201.115 153.459 196.866C153.459 192.617 153.853 189.165 154.338 189.165C154.824 189.165 155.218 192.617 155.218 196.866C155.218 201.115 154.824 204.567 154.338 204.567Z" fill="#481620"/>
<path d="M167.258 195.732C166.89 196.019 165.315 194.823 163.739 193.028C162.164 191.234 161.205 189.564 161.573 189.29C161.941 189.016 163.529 190.2 165.092 191.982C166.654 193.764 167.639 195.421 167.258 195.732Z" fill="#481620"/>
<path d="M166.51 172.306C166.864 172.63 165.814 174.163 164.186 175.721C162.558 177.278 160.956 178.288 160.614 177.964C160.273 177.64 161.31 176.107 162.938 174.537C164.566 172.967 166.168 171.982 166.51 172.306Z" fill="#481620"/>
<path d="M148.181 178.287C147.879 178.636 146.369 177.939 144.806 176.705C143.244 175.471 142.259 174.213 142.561 173.839C142.863 173.465 144.386 174.188 145.949 175.422C147.511 176.655 148.47 177.914 148.181 178.287Z" fill="#481620"/>
<path d="M147.472 188.58C147.826 188.904 146.92 190.399 145.437 191.944C143.953 193.489 142.469 194.436 142.115 194.162C141.76 193.888 142.653 192.355 144.137 190.81C145.62 189.265 147.157 188.256 147.472 188.58Z" fill="#481620"/>
<path d="M596.425 144.482C596.425 144.743 594.39 144.955 591.882 144.955C589.375 144.955 587.339 144.743 587.339 144.482C587.339 144.22 589.375 144.008 591.882 144.008C594.39 144.008 596.425 144.22 596.425 144.482Z" fill="#481620"/>
<path d="M601.244 132.769C601.519 132.769 601.743 134.725 601.743 137.13C601.743 139.535 601.519 141.504 601.244 141.504C600.968 141.504 600.745 139.547 600.745 137.13C600.745 134.713 600.968 132.769 601.244 132.769Z" fill="#481620"/>
<path d="M606.377 144.195C606.377 143.933 608.412 143.721 610.92 143.721C613.428 143.721 615.45 143.933 615.45 144.195C615.45 144.456 613.428 144.681 610.92 144.681C608.412 144.681 606.377 144.469 606.377 144.195Z" fill="#481620"/>
<path d="M601.559 155.92C601.283 155.92 601.06 153.964 601.06 151.547C601.06 149.129 601.283 147.173 601.559 147.173C601.835 147.173 602.058 149.129 602.058 151.547C602.058 153.964 601.835 155.92 601.559 155.92Z" fill="#481620"/>
<path d="M608.898 150.874C608.675 151.036 607.782 150.35 606.889 149.341C605.997 148.332 605.458 147.372 605.668 147.198C605.878 147.023 606.771 147.721 607.664 148.73C608.557 149.74 609.108 150.724 608.898 150.874Z" fill="#481620"/>
<path d="M608.465 137.603C608.662 137.79 608.071 138.662 607.152 139.547C606.233 140.432 605.314 140.993 605.117 140.793C604.92 140.594 605.511 139.747 606.43 138.862C607.349 137.977 608.268 137.416 608.465 137.603Z" fill="#481620"/>
<path d="M598.066 140.993C597.882 141.192 597.029 140.793 596.149 140.095C595.27 139.398 594.692 138.675 594.836 138.476C594.981 138.276 595.874 138.662 596.753 139.36C597.633 140.058 598.237 140.793 598.066 140.993Z" fill="#481620"/>
<path d="M597.659 146.849C597.856 147.023 597.344 147.871 596.504 148.755C595.664 149.64 594.823 150.188 594.613 150.001C594.403 149.815 594.928 148.967 595.769 148.095C596.609 147.223 597.502 146.674 597.659 146.849Z" fill="#481620"/>
<path d="M390.225 242.497C387.933 242.979 385.558 242.979 383.266 242.497C385.556 241.998 387.935 241.998 390.225 242.497Z" fill="#481620"/>
<path d="M393.993 233.513C394.501 235.718 394.501 238 393.993 240.205C393.468 238.002 393.468 235.716 393.993 233.513Z" fill="#481620"/>
<path d="M397.853 242.273C400.145 241.791 402.52 241.791 404.812 242.273C402.522 242.771 400.143 242.771 397.853 242.273Z" fill="#481620"/>
<path d="M394.164 251.257C393.656 249.048 393.656 246.762 394.164 244.553C394.671 246.762 394.671 249.048 394.164 251.257Z" fill="#481620"/>
<path d="M399.783 247.407C399.626 247.532 398.943 247.008 398.26 246.236C397.577 245.463 397.144 244.728 397.315 244.591C397.485 244.454 398.168 244.99 398.851 245.762C399.534 246.535 399.954 247.282 399.783 247.407Z" fill="#481620"/>
<path d="M399.468 237.214C399.612 237.363 399.166 238.024 398.457 238.709C397.748 239.394 397.039 239.818 396.895 239.681C396.75 239.544 397.197 238.871 397.906 238.198C398.615 237.525 399.31 237.077 399.468 237.214Z" fill="#481620"/>
<path d="M391.485 239.818C391.354 239.968 390.697 239.669 390.015 239.133C389.332 238.597 388.899 238.036 389.043 237.887C389.188 237.737 389.831 238.036 390.514 238.572C391.196 239.108 391.617 239.656 391.485 239.818Z" fill="#481620"/>
<path d="M391.17 244.329C391.328 244.466 390.934 245.114 390.29 245.787C389.647 246.46 388.977 246.896 388.846 246.759C388.715 246.622 389.083 245.974 389.726 245.301C390.369 244.628 391.013 244.167 391.17 244.329Z" fill="#481620"/>
<path d="M575.076 256.465C575.076 256.727 573.041 256.939 570.534 256.939C568.026 256.939 565.991 256.789 565.991 256.465C565.991 256.141 568.013 255.979 570.52 255.979C573.028 255.979 575.076 256.204 575.076 256.465Z" fill="#E0E0E0"/>
<path d="M579.895 244.74C580.171 244.74 580.394 246.696 580.394 249.114C580.394 251.531 580.171 253.487 579.895 253.487C579.619 253.487 579.396 251.531 579.396 249.114C579.396 246.696 579.619 244.74 579.895 244.74Z" fill="#E0E0E0"/>
<path d="M585.029 256.179C585.029 255.917 587.064 255.706 589.571 255.706C592.079 255.706 594.101 255.917 594.101 256.179C594.101 256.441 592.079 256.653 589.571 256.653C587.064 256.653 585.029 256.441 585.029 256.179Z" fill="#E0E0E0"/>
<path d="M580.21 267.904C579.934 267.904 579.711 265.936 579.711 263.531C579.711 261.126 579.934 259.157 580.21 259.157C580.486 259.157 580.709 261.113 580.709 263.531C580.709 265.948 580.433 267.904 580.21 267.904Z" fill="#E0E0E0"/>
<path d="M587.55 262.87C587.326 263.045 586.434 262.359 585.541 261.35C584.648 260.341 584.11 259.369 584.32 259.207C584.53 259.045 585.423 259.718 586.315 260.727C587.208 261.736 587.76 262.708 587.55 262.87Z" fill="#E0E0E0"/>
<path d="M587.116 249.587C587.313 249.774 586.722 250.634 585.803 251.519C584.884 252.403 583.965 252.977 583.768 252.765C583.571 252.553 584.162 251.718 585.081 250.821C586 249.924 586.919 249.4 587.116 249.587Z" fill="#E0E0E0"/>
<path d="M576.718 252.964C576.534 253.176 575.68 252.777 574.801 252.079C573.921 251.382 573.343 250.647 573.488 250.447C573.632 250.248 574.525 250.647 575.405 251.344C576.284 252.042 576.888 252.765 576.718 252.964Z" fill="#E0E0E0"/>
<path d="M576.311 258.821C576.508 259.007 575.996 259.855 575.155 260.727C574.315 261.599 573.475 262.173 573.265 261.973C573.055 261.774 573.58 260.939 574.42 260.067C575.26 259.194 576.101 258.646 576.311 258.821Z" fill="#E0E0E0"/>
<path d="M335.803 145.242L336.393 146.588C336.906 147.748 337.655 148.8 338.596 149.685C339.538 150.571 340.654 151.271 341.882 151.746L343.431 152.344L341.947 152.905C340.7 153.387 339.568 154.102 338.619 155.007C337.669 155.913 336.921 156.99 336.42 158.176L336 159.148L335.369 157.902C334.241 155.657 332.227 153.925 329.763 153.08L328.45 152.606L330.209 151.809C332.427 150.772 334.165 148.998 335.094 146.824L335.803 145.242Z" fill="#E0E0E0"/>
<path d="M105.208 246.073L105.601 246.97C105.941 247.742 106.438 248.443 107.064 249.031C107.691 249.619 108.434 250.084 109.251 250.397L110.276 250.796L109.291 251.17C108.463 251.491 107.711 251.967 107.08 252.568C106.449 253.169 105.95 253.884 105.615 254.671L105.339 255.319L104.919 254.509C104.169 253.018 102.836 251.865 101.203 251.294L100.31 250.995L101.479 250.459C102.937 249.775 104.088 248.617 104.722 247.195L105.208 246.073Z" fill="#E0E0E0"/>
<path d="M686.258 159.148L686.639 160.045C687.33 161.603 688.642 162.839 690.289 163.484L691.313 163.87L690.341 164.257C689.511 164.574 688.757 165.046 688.123 165.645C687.489 166.245 686.989 166.959 686.652 167.746L686.376 168.406L685.969 167.584C685.213 166.096 683.875 164.947 682.24 164.381L681.347 164.07L682.516 163.534C683.987 162.866 685.143 161.702 685.759 160.269L686.258 159.148Z" fill="#E0E0E0"/>
<path d="M688.004 196.978L688.595 198.324C689.105 199.487 689.852 200.543 690.794 201.43C691.736 202.318 692.854 203.019 694.083 203.495L695.632 204.081L694.149 204.654C692.902 205.135 691.769 205.848 690.817 206.751C689.866 207.654 689.115 208.729 688.608 209.912L688.201 210.897L687.571 209.651C686.443 207.406 684.429 205.674 681.965 204.828L680.652 204.367L682.411 203.557C684.616 202.541 686.353 200.795 687.295 198.648L688.004 196.978Z" fill="#481620"/>
<path d="M445.409 137.08L445.684 137.715C445.93 138.264 446.289 138.761 446.74 139.176C447.191 139.591 447.725 139.916 448.31 140.133L449.032 140.419L448.336 140.681C447.743 140.905 447.205 141.242 446.753 141.67C446.302 142.099 445.947 142.61 445.711 143.173L445.514 143.634L445.212 143.061C444.687 142.005 443.743 141.19 442.586 140.793L441.955 140.581L442.783 140.195C443.82 139.719 444.637 138.899 445.08 137.89L445.409 137.08Z" fill="#481620"/>
<path d="M262.382 240.379L262.736 241.189C263.042 241.891 263.492 242.528 264.06 243.063C264.628 243.598 265.303 244.02 266.045 244.304L266.977 244.665L266.084 245.002C265.331 245.29 264.647 245.72 264.074 246.266C263.501 246.812 263.05 247.463 262.75 248.179L262.5 248.777L262.119 248.03C261.432 246.68 260.216 245.638 258.732 245.126L257.918 244.84L258.981 244.354C260.312 243.737 261.361 242.683 261.936 241.388L262.382 240.379Z" fill="#481620"/>
<path d="M793.553 208.928C782.381 208.934 771.469 212.123 762.229 218.082C752.989 224.041 745.846 232.495 741.727 242.351C737.608 252.206 736.701 263.008 739.125 273.358C741.548 283.708 747.19 293.129 755.32 300.402L747.783 325.447L774.436 311.616C782.094 314.265 790.271 315.29 798.391 314.619C806.512 313.948 814.378 311.597 821.439 307.731C828.499 303.865 834.582 298.579 839.259 292.244C843.936 285.908 847.095 278.678 848.512 271.06C849.929 263.442 849.572 255.622 847.464 248.149C845.356 240.677 841.549 233.733 836.31 227.806C831.072 221.88 824.53 217.114 817.143 213.844C809.756 210.574 801.704 208.879 793.553 208.878V208.928Z" fill="#F5F5F5"/>
<path d="M793.553 208.928C793.553 208.928 793.881 208.928 794.551 208.928L797.466 209.04C798.109 209.04 798.779 209.04 799.619 209.153L802.245 209.514C803.177 209.663 804.188 209.751 805.251 209.975L808.6 210.772C822.107 214.234 833.724 222.439 841.095 233.725L842.828 236.429C843.327 237.376 843.826 238.348 844.325 239.332C847.501 245.613 849.289 252.445 849.577 259.406C849.711 261.898 849.667 264.396 849.446 266.883C849.354 268.129 849.078 269.375 848.894 270.621C848.789 271.256 848.697 271.867 848.592 272.527L848.08 274.421C846.799 279.653 844.64 284.655 841.686 289.237C835.401 299.205 825.851 306.947 814.495 311.28C802.26 315.867 788.732 316.307 776.196 312.526L774.384 311.928H774.659C765.574 316.651 756.659 321.286 748.006 325.759L747.31 326.133L747.521 325.398C750.147 316.763 752.654 308.389 755.07 300.352L755.162 300.664C751.694 297.531 748.643 294.007 746.076 290.172C743.646 286.468 741.689 282.502 740.247 278.359C738.901 274.388 738.05 270.281 737.713 266.123C737.608 265.113 737.568 264.104 737.555 263.107C737.496 262.111 737.496 261.113 737.555 260.117C737.588 258.167 737.768 256.222 738.094 254.297C739.203 247.143 741.848 240.281 745.866 234.136C749.3 228.871 753.656 224.202 758.746 220.33L762.213 217.838L765.718 215.819C766.808 215.179 767.945 214.613 769.119 214.124C770.248 213.638 771.298 213.078 772.401 212.704C776.063 211.321 779.864 210.298 783.745 209.651L787.973 209.065L791.071 208.941H792.975H793.619H792.975L791.085 209.065L787.986 209.24L783.785 209.863C779.928 210.543 776.154 211.591 772.519 212.99C771.43 213.364 770.392 213.937 769.276 214.423C768.109 214.921 766.977 215.491 765.889 216.13L762.37 218.162L758.996 220.654C753.966 224.5 749.667 229.136 746.286 234.36C742.345 240.469 739.766 247.28 738.711 254.372C738.396 256.282 738.22 258.209 738.185 260.142C738.126 261.125 738.126 262.111 738.185 263.095C738.185 264.079 738.185 265.076 738.343 266.085C738.694 270.194 739.544 274.249 740.877 278.172C743.791 286.575 748.873 294.153 755.661 300.215L755.805 300.34L755.74 300.527C753.337 308.551 750.816 316.925 748.23 325.572L747.744 325.199L774.384 311.367L774.515 311.293H774.673L776.471 311.878C788.854 315.617 802.218 315.177 814.298 310.632C825.526 306.354 834.974 298.709 841.2 288.863C844.129 284.336 846.274 279.393 847.555 274.222C847.726 273.599 847.896 272.976 848.054 272.353L848.369 270.459C848.54 269.213 848.815 267.967 848.92 266.721C849.138 264.267 849.187 261.803 849.065 259.344C848.811 252.435 847.064 245.649 843.931 239.407L842.461 236.529L840.754 233.85C836.636 227.509 831.139 222.075 824.631 217.912C819.714 214.78 814.302 212.412 808.6 210.897L805.265 210.062C804.214 209.838 803.203 209.738 802.284 209.576L799.658 209.19C798.87 209.078 798.148 209.09 797.518 209.04L794.603 208.866C793.881 208.966 793.553 208.928 793.553 208.928Z" fill="#481620"/>
<path d="M781.316 254.646H785.255L793.868 243.245V235.768C793.868 235.768 799.973 235.419 799.251 245.214C798.529 255.008 799.251 252.503 799.251 252.503C799.251 252.503 812.197 252.503 813.274 253.624C814.061 254.397 814.416 266.608 814.587 273.238C814.671 274.833 814.191 276.41 813.223 277.718C812.255 279.025 810.854 279.987 809.243 280.452C808.784 280.565 808.312 280.623 807.838 280.627C804.608 280.627 788.144 278.135 788.144 278.135H781.316V254.646Z" fill="#481620"/>
<path d="M770.064 252.59L772.493 278.21H779.255V253.101L770.064 252.59Z" fill="#481620"/>
<path d="M227.457 263.107C227.234 267.107 221.746 272.44 223.44 276.103C226.564 282.857 224.752 290.944 220.709 297.287C216.665 303.629 210.612 308.501 204.664 313.211C204.964 303.364 204.061 293.517 201.973 283.866C201.316 280.851 200.24 277.487 197.338 276.116C193.57 274.347 188.791 276.901 184.93 275.331C180.821 273.636 179.994 268.303 176.527 265.612C173.389 263.182 168.781 263.443 164.934 264.665C161.087 265.886 157.555 267.942 153.603 268.777C149.651 269.611 144.885 268.864 142.693 265.624C141.38 263.63 142.312 264.852 141.025 262.82C141.025 262.82 133.318 263.07 130.666 254.559C130.666 254.559 127.042 245.101 135.064 240.927C135.064 240.927 136.889 223.831 154.995 231.519C160.247 233.737 166.365 226.61 171.446 229.027C175.674 231.058 176.921 236.641 181.149 238.684C186.007 241.027 191.653 237.538 197.088 237.326C200.571 237.326 203.91 238.639 206.372 240.976C208.835 243.312 210.218 246.482 210.218 249.787C210.218 249.787 211.071 246.372 216.967 247.868C222.862 249.363 227.877 255.307 227.457 263.107Z" fill="#481620"/>
<path d="M219.776 290.62C219.89 288.686 219.511 286.754 218.673 284.988C217.912 283.53 215.063 280.215 211.938 280.003L212.397 262.397C212.432 260.649 211.778 258.953 210.564 257.639C209.35 256.326 207.662 255.489 205.833 255.294L169.477 251.655C166.505 251.357 163.501 251.633 160.644 252.466C157.788 253.299 155.138 254.671 152.856 256.501C150.573 258.332 148.704 260.581 147.361 263.115C146.018 265.648 145.23 268.413 145.043 271.244C144.163 284.514 143.638 300.75 145.292 310.644C148.627 330.581 164.698 333.073 164.698 333.073L164.304 346.98C163.687 361.795 175.372 370.717 187.425 370.717C199.478 370.717 210.612 360.836 210.257 346.17L211.439 301.311C213.475 301.133 215.37 300.245 216.757 298.819C218.755 296.512 219.826 293.606 219.776 290.62Z" fill="#FFBE9D"/>
<path d="M153.104 282.047C153.1 282.717 153.373 283.362 153.864 283.844C154.354 284.326 155.024 284.607 155.73 284.626C156.418 284.664 157.095 284.444 157.613 284.012C158.131 283.581 158.45 282.974 158.5 282.321C158.513 281.987 158.454 281.653 158.328 281.341C158.201 281.028 158.01 280.743 157.765 280.502C157.52 280.262 157.226 280.07 156.901 279.939C156.576 279.809 156.227 279.742 155.875 279.742C155.186 279.704 154.51 279.925 153.992 280.356C153.474 280.787 153.155 281.395 153.104 282.047Z" fill="#481620"/>
<path d="M148.693 279.692C149.021 280.028 151.056 278.595 153.945 278.595C156.833 278.595 158.96 279.979 159.275 279.642C159.42 279.493 159.078 278.895 158.159 278.259C156.907 277.434 155.416 276.999 153.892 277.013C152.391 276.99 150.922 277.427 149.704 278.259C148.824 278.944 148.469 279.543 148.693 279.692Z" fill="#481620"/>
<path d="M181.044 282.558C181.037 283.229 181.308 283.876 181.8 284.359C182.291 284.841 182.963 285.121 183.67 285.137C184.358 285.175 185.034 284.955 185.553 284.523C186.071 284.092 186.39 283.485 186.44 282.832C186.447 282.161 186.176 281.514 185.685 281.032C185.193 280.549 184.521 280.269 183.814 280.253C183.126 280.215 182.45 280.436 181.932 280.867C181.413 281.298 181.095 281.906 181.044 282.558Z" fill="#481620"/>
<path d="M177.145 280.203C177.473 280.539 179.508 279.106 182.396 279.119C185.285 279.131 187.412 280.489 187.727 280.153C187.871 280.003 187.543 279.405 186.611 278.77C185.359 277.945 183.868 277.509 182.344 277.524C180.844 277.507 179.377 277.944 178.155 278.77C177.276 279.455 176.974 280.053 177.145 280.203Z" fill="#481620"/>
<path d="M166.628 300.576C165.101 300.128 163.523 299.856 161.927 299.766C161.192 299.704 160.496 299.554 160.365 299.081C160.309 298.355 160.483 297.631 160.864 297L163.043 291.679C166.089 284.066 168.295 277.81 167.954 277.698C167.612 277.586 164.908 283.654 161.875 291.268C161.14 293.137 160.444 294.931 159.787 296.638C159.32 297.484 159.181 298.459 159.393 299.392C159.502 299.639 159.669 299.859 159.88 300.036C160.092 300.213 160.343 300.342 160.614 300.414C161.043 300.525 161.484 300.583 161.927 300.588C163.488 300.778 165.068 300.774 166.628 300.576Z" fill="#481620"/>
<path d="M164.632 333.086C174.511 333.226 184.237 330.763 192.729 325.971C192.729 325.971 185.456 340.924 164.461 339.092L164.632 333.086Z" fill="#EB996E"/>
<path d="M175.832 275.393C176.12 276.141 179.009 275.792 182.396 276.178C185.784 276.564 188.541 277.424 188.961 276.776C189.158 276.452 188.685 275.755 187.583 275.032C186.108 274.129 184.43 273.57 182.685 273.399C180.95 273.202 179.191 273.398 177.552 273.973C176.344 274.459 175.713 275.044 175.832 275.393Z" fill="#481620"/>
<path d="M148.22 273.3C148.732 273.923 150.715 273.3 153.117 273.3C155.52 273.3 157.542 273.711 158.015 273.063C158.225 272.739 157.897 272.116 157.017 271.53C155.826 270.827 154.442 270.474 153.04 270.517C151.638 270.559 150.281 270.994 149.139 271.767C148.273 272.353 147.997 272.988 148.22 273.3Z" fill="#481620"/>
<path d="M167.271 316.127C167.271 316.064 167.468 315.728 168.059 315.379C168.853 314.933 169.761 314.7 170.685 314.706C171.605 314.696 172.512 314.919 173.311 315.354C173.902 315.703 174.164 316.027 174.112 316.089C173.023 315.703 171.883 315.46 170.724 315.367C169.539 315.451 168.374 315.708 167.271 316.127Z" fill="#EB996E"/>
<path d="M210.008 295.916C210.694 295.651 211.36 295.343 212.004 294.994C212.723 294.546 213.319 293.942 213.742 293.231C214.164 292.52 214.401 291.723 214.433 290.907C214.447 290.086 214.257 289.273 213.878 288.535C213.5 287.797 212.943 287.153 212.253 286.658C211.658 286.267 210.974 286.016 210.257 285.923C210.192 285.848 211.229 285.511 212.529 286.271C213.347 286.767 214.018 287.453 214.478 288.265C214.937 289.076 215.17 289.986 215.155 290.907C215.138 291.929 214.8 292.922 214.183 293.76C213.694 294.435 213.047 294.994 212.292 295.393C211.626 295.83 210.811 296.016 210.008 295.916Z" fill="#EB996E"/>
<path d="M141.025 246.908C137.638 255.506 145.686 261.736 151.962 263.107C160.733 265.051 170.055 259.792 176.055 262.023C180.532 263.692 184.76 267.007 189.513 266.322C191.823 265.998 194.108 264.739 196.353 265.312C199.229 266.06 200.397 269.375 200.292 272.203C200.213 275.692 198.979 279.156 199.439 282.62C199.898 286.084 203.154 289.66 206.712 288.738C208.384 288.208 209.848 287.21 210.912 285.876C211.976 284.541 212.59 282.933 212.673 281.262C213.093 276.465 212.161 270.758 212.411 265.948C212.634 261.711 212.647 257.051 209.785 253.774C206.922 250.497 202.091 249.612 197.64 249.039C178.868 246.586 159.912 245.635 140.972 246.198" fill="#481620"/>
<path d="M129.983 248.74C129.87 248.452 129.808 248.149 129.799 247.843C129.751 246.952 129.941 246.065 130.351 245.263C131 243.975 132.126 242.959 133.515 242.41C134.393 242.092 135.342 241.994 136.272 242.123C137.257 242.21 138.242 242.46 139.279 242.509C140.355 242.566 141.426 242.342 142.377 241.861C143.416 241.312 144.381 240.647 145.253 239.88C146.198 239.108 147.157 238.26 148.259 237.5C149.408 236.705 150.725 236.156 152.12 235.893C155.132 235.463 158.211 235.961 160.903 237.313C163.7 238.779 166.308 240.548 168.676 242.584C170.976 244.616 173.593 246.297 176.436 247.568C177.783 248.104 179.248 248.318 180.703 248.191C182.081 247.993 183.413 247.572 184.642 246.945C186.946 245.634 189.393 244.564 191.942 243.755C194.233 243.135 196.651 243.062 198.979 243.544C200.899 243.956 202.664 244.857 204.086 246.148C205.148 247.124 205.977 248.306 206.515 249.612C206.851 250.436 207.033 251.308 207.054 252.191C207.071 252.419 207.071 252.649 207.054 252.877C207.054 253.026 207.054 253.101 207.054 253.101C207.037 251.94 206.797 250.791 206.345 249.712C205.784 248.46 204.952 247.335 203.903 246.41C202.512 245.196 200.802 244.361 198.953 243.992C196.705 243.559 194.379 243.653 192.178 244.266C189.67 245.091 187.262 246.169 184.996 247.481C183.685 248.132 182.262 248.554 180.795 248.727C179.235 248.876 177.661 248.658 176.212 248.092C173.306 246.803 170.627 245.096 168.269 243.033C165.94 241.029 163.376 239.285 160.627 237.837C158.067 236.538 155.139 236.045 152.264 236.429C149.52 236.865 147.537 238.696 145.699 240.242C144.785 241.022 143.776 241.695 142.692 242.248C141.652 242.757 140.486 242.989 139.318 242.921C138.228 242.846 137.244 242.584 136.298 242.472C135.417 242.339 134.514 242.416 133.672 242.696C132.354 243.197 131.269 244.13 130.613 245.326C130.187 246.094 129.962 246.949 129.957 247.818C129.93 248.428 130.088 248.727 129.983 248.74Z" fill="#FDC510"/>
<path d="M140.132 262.596C139.832 262.676 139.514 262.676 139.213 262.596C138.77 262.513 138.352 262.341 137.985 262.092C137.618 261.842 137.312 261.521 137.086 261.15C136.453 259.939 136.277 258.558 136.587 257.238C136.897 255.492 137.634 253.841 138.74 252.416C140.08 250.666 141.941 249.338 144.084 248.603C146.543 247.736 149.236 247.67 151.739 248.416C154.4 249.358 156.886 250.696 159.104 252.378C161.412 254.163 164.029 255.554 166.838 256.49C169.707 257.182 172.73 257.025 175.503 256.042C178.125 255.151 180.646 254.011 183.027 252.64C185.212 251.394 187.469 250.267 189.788 249.263C191.828 248.382 194.014 247.846 196.248 247.68C197.874 247.553 199.51 247.741 201.056 248.234C202.602 248.727 204.027 249.514 205.242 250.546C205.872 251.133 206.396 251.816 206.791 252.565C206.932 252.826 207.038 253.102 207.106 253.387C206.599 252.395 205.91 251.496 205.071 250.733C203.86 249.771 202.461 249.045 200.953 248.598C199.446 248.151 197.86 247.992 196.287 248.129C194.111 248.322 191.987 248.875 190.012 249.761C187.721 250.773 185.494 251.909 183.342 253.163C180.929 254.563 178.373 255.728 175.713 256.64C172.811 257.672 169.645 257.837 166.641 257.113C163.78 256.148 161.116 254.723 158.763 252.901C156.608 251.25 154.194 249.93 151.607 248.989C149.231 248.268 146.671 248.308 144.321 249.101C142.272 249.794 140.483 251.042 139.174 252.69C138.085 254.045 137.348 255.624 137.02 257.3C136.685 258.548 136.81 259.867 137.375 261.038C137.569 261.396 137.838 261.712 138.165 261.967C138.492 262.222 138.871 262.411 139.279 262.521C139.56 262.569 139.846 262.594 140.132 262.596Z" fill="#FDC510"/>
<path d="M220.538 295.803C220.538 295.803 221.011 295.205 221.706 294.059C222.661 292.422 223.196 290.595 223.269 288.726C223.328 287.462 223.16 286.197 222.77 284.988C222.288 283.588 221.579 282.268 220.669 281.075C219.75 279.829 218.66 278.458 217.702 276.963C216.613 275.429 216.015 273.629 215.982 271.779C216.169 269.955 216.769 268.191 217.741 266.608C218.581 265.201 219.083 263.635 219.212 262.023C219.248 260.661 218.91 259.314 218.231 258.115C217.552 256.915 216.555 255.904 215.339 255.182C213.643 254.23 211.654 253.86 209.706 254.135C208.996 254.256 208.294 254.418 207.605 254.621C207.753 254.509 207.917 254.417 208.091 254.347C208.597 254.139 209.125 253.985 209.667 253.886C211.686 253.501 213.783 253.819 215.575 254.783C216.898 255.526 217.989 256.589 218.739 257.863C219.488 259.137 219.869 260.576 219.842 262.035C219.723 263.735 219.212 265.39 218.345 266.882C217.422 268.386 216.849 270.06 216.665 271.792C216.697 273.522 217.258 275.206 218.28 276.639C219.199 278.084 220.275 279.405 221.194 280.738C222.124 281.992 222.841 283.375 223.321 284.838C223.71 286.124 223.856 287.466 223.755 288.8C223.642 290.701 223.038 292.545 221.995 294.171C221.71 294.615 221.38 295.033 221.011 295.417C220.682 295.691 220.551 295.816 220.538 295.803Z" fill="#FDC510"/>
<path d="M165.538 281.262C165.416 280.219 165.232 279.183 164.987 278.159C164.522 276.453 163.686 274.858 162.534 273.476C161.382 272.094 159.938 270.956 158.295 270.135C156.652 269.314 154.846 268.828 152.994 268.707C151.141 268.587 149.283 268.836 147.537 269.437C145.099 270.303 142.978 271.822 141.432 273.811C139.774 275.95 138.879 278.537 138.879 281.193C138.879 283.85 139.774 286.437 141.432 288.576C142.199 289.605 143.139 290.506 144.216 291.243C145.223 291.972 146.343 292.548 147.537 292.95C149.612 293.676 151.846 293.896 154.034 293.591C156.222 293.287 158.295 292.466 160.063 291.206C162.47 289.485 164.203 287.051 164.987 284.29C165.23 283.27 165.414 282.239 165.538 281.2C165.621 282.258 165.523 283.323 165.249 284.352C164.551 287.271 162.794 289.864 160.286 291.679C158.463 293.017 156.313 293.897 154.037 294.237C151.76 294.576 149.43 294.365 147.262 293.623C146.003 293.211 144.82 292.614 143.756 291.854C142.631 291.08 141.643 290.142 140.828 289.075C139.072 286.83 138.123 284.108 138.123 281.312C138.123 278.516 139.072 275.794 140.828 273.549C142.452 271.46 144.69 269.873 147.262 268.988C149.584 268.2 152.086 268.015 154.509 268.452C157.08 268.928 159.453 270.094 161.345 271.813C163.238 273.532 164.57 275.73 165.184 278.147C165.474 279.161 165.594 280.212 165.538 281.262Z" fill="#481620"/>
<path d="M196.314 281.262C196.201 280.218 196.016 279.181 195.762 278.159C195.299 276.454 194.465 274.859 193.314 273.477C192.163 272.095 190.72 270.957 189.078 270.136C187.436 269.314 185.632 268.828 183.78 268.708C181.928 268.587 180.071 268.836 178.326 269.437C175.882 270.298 173.755 271.818 172.208 273.811C170.549 275.95 169.655 278.537 169.655 281.193C169.655 283.85 170.549 286.437 172.208 288.576C172.978 289.602 173.918 290.503 174.991 291.243C176.005 291.97 177.129 292.546 178.326 292.95C180.061 293.547 181.907 293.796 183.748 293.68C185.588 293.565 187.384 293.088 189.021 292.279C190.657 291.471 192.099 290.349 193.255 288.985C194.411 287.62 195.256 286.043 195.736 284.352C195.988 283.334 196.172 282.302 196.287 281.262C196.378 282.321 196.281 283.387 195.999 284.415C195.316 287.298 193.599 289.866 191.141 291.679C189.317 293.017 187.168 293.897 184.891 294.237C182.614 294.576 180.284 294.365 178.116 293.623C176.857 293.211 175.674 292.614 174.611 291.854C173.482 291.08 172.49 290.142 171.669 289.075C169.921 286.827 168.977 284.106 168.977 281.312C168.977 278.518 169.921 275.797 171.669 273.549C173.302 271.463 175.543 269.877 178.116 268.988C180.438 268.2 182.941 268.015 185.364 268.452C187.932 268.931 190.301 270.099 192.191 271.818C194.08 273.536 195.411 275.732 196.025 278.147C196.301 279.163 196.399 280.216 196.314 281.262Z" fill="#481620"/>
<path d="M170.055 279.119V279.243V279.019V279.268C169.331 279.421 168.59 279.488 167.849 279.468C166.536 279.468 165.446 279.318 165.446 279.144C165.446 278.969 166.523 278.82 167.849 278.82C168.59 278.793 169.332 278.86 170.055 279.019V279.268V279.044V279.169V279.119Z" fill="#481620"/>
<path d="M212.529 281.935C209.769 282.078 207.002 281.999 204.257 281.698C201.496 281.622 198.747 281.326 196.038 280.813C198.798 280.685 201.563 280.765 204.31 281.05C207.07 281.133 209.819 281.429 212.529 281.935Z" fill="#481620"/>
<path d="M178.668 299.891C178.912 300.535 178.944 301.235 178.759 301.897C178.478 303.555 177.567 305.057 176.198 306.12C174.828 307.183 173.096 307.733 171.328 307.666C170.605 307.708 169.885 307.538 169.267 307.18C169.267 307.081 170.081 307.28 171.328 307.18C172.95 307.127 174.509 306.571 175.766 305.596C177.023 304.622 177.909 303.283 178.287 301.785C178.668 300.651 178.589 299.891 178.668 299.891Z" fill="#481620"/>
<path d="M126.661 389.346C126.678 389.478 126.678 389.612 126.661 389.744V390.916C126.661 391.987 126.661 393.508 126.727 395.427C126.727 399.377 126.727 405.021 126.819 411.987C126.819 425.968 126.372 445.282 125.23 466.589C124.088 487.897 122.906 507.149 122.105 521.155C121.738 528.095 121.436 533.74 121.226 537.69C121.121 539.609 121.042 541.104 120.989 542.176C120.989 542.662 120.924 543.048 120.91 543.347C120.924 543.48 120.924 543.613 120.91 543.746C120.891 543.613 120.891 543.479 120.91 543.347C120.91 543.048 120.91 542.662 120.91 542.176C120.91 541.104 120.976 539.596 121.029 537.677C121.147 533.765 121.357 528.108 121.685 521.13C122.302 507.161 123.497 487.872 124.613 466.564C125.729 445.257 126.333 425.955 126.412 411.974C126.412 405.021 126.504 399.377 126.53 395.427C126.53 393.508 126.53 391.987 126.596 390.916V389.744C126.6 389.61 126.622 389.476 126.661 389.346Z" fill="#481620"/>
<path d="M253.506 367.888C246.443 360.15 232.643 359.016 226.525 363.216C220.407 367.415 217.006 374.542 216.389 381.682C215.772 388.822 217.702 395.987 220.564 402.604C225.173 413.22 231.987 421.818 242.162 432.759L268.422 465.43L217.807 512.332L238.814 543.746L281.84 510.849L317.421 475.062" fill="#FA2020"/>
<path d="M70.4928 468.62C71.3142 468.048 72.2401 467.626 73.2238 467.374C75.5508 466.629 78.006 466.312 80.4582 466.44C82.9155 466.567 85.3254 467.133 87.5613 468.109C88.5301 468.454 89.4213 468.969 90.1872 469.63C90.1872 469.717 89.1368 469.168 87.43 468.533C85.2107 467.703 82.8659 467.215 80.4844 467.088C78.1045 466.977 75.721 467.221 73.4207 467.81C71.5957 468.271 70.5453 468.72 70.4928 468.62Z" fill="#481620"/>
<path d="M260.321 375.228C242.661 352.998 223.65 354.83 213.96 354.568V344.811C206.804 344.811 197.023 350.93 191.968 355.303L186.965 361.82C185.68 358.252 183.534 355.018 180.699 352.376C177.863 349.735 174.416 347.758 170.632 346.606C167.903 345.783 165.105 345.183 162.269 344.811V353.534C138.53 354.169 125.834 360.325 109.974 377.745C109.159 378.642 107.545 380.175 105.693 381.907L58.7681 434.242C49.1835 444.31 40.3867 458.166 42.448 471.624C44.6932 486.776 54.0021 496.744 71.8189 508.171L121.186 538.537L120.95 543.758H238.762C238.762 543.758 318.655 487.822 320.612 467.1C322.135 450.727 294.615 416.024 260.321 375.228ZM123.169 493.99L88.6248 469.53L125.939 432.883L123.169 493.99ZM236.293 495.934L235.361 477.829L240.377 430.267C250.224 440.983 268.448 462.253 268.448 465.431L236.293 495.934Z" fill="#FA2020"/>
<path d="M213.934 354.618C213.684 355.136 213.385 355.633 213.041 356.1C212.411 357.023 211.505 358.356 210.31 359.963C207.234 364.178 203.776 368.131 199.977 371.776C198.861 372.848 197.732 373.857 196.629 374.816L196.077 375.302V374.592C196.014 370.498 194.283 366.585 191.246 363.677C190.446 362.766 189.41 362.07 188.239 361.658C187.789 361.574 187.322 361.649 186.926 361.87C187.08 361.688 187.285 361.55 187.517 361.473C187.749 361.396 187.999 361.382 188.239 361.434C189.503 361.77 190.638 362.445 191.508 363.378C192.93 364.66 194.104 366.17 194.975 367.838C196.063 369.939 196.655 372.24 196.708 374.58L196.156 374.343C197.233 373.383 198.362 372.387 199.465 371.315C203.231 367.685 206.72 363.804 209.903 359.702L212.791 355.963C213.123 355.479 213.506 355.028 213.934 354.618Z" fill="#481620"/>
<path d="M162.242 353.583C162.626 353.934 162.97 354.322 163.267 354.742L165.892 358.019C168.085 360.811 171.052 364.698 174.309 369.01L176.436 371.826L175.845 371.913C176.48 369.899 177.361 367.963 178.471 366.144C179.388 364.667 180.696 363.442 182.265 362.593C183.3 362.024 184.47 361.715 185.666 361.695C186.112 361.652 186.562 361.712 186.979 361.87C186.979 361.87 186.532 361.87 185.666 361.87C184.533 361.978 183.441 362.332 182.475 362.904C181.019 363.776 179.81 364.974 178.956 366.393C177.9 368.19 177.055 370.091 176.436 372.063L176.225 372.648L175.845 372.15L173.718 369.334C170.462 365.022 167.547 361.097 165.459 358.244C164.501 356.886 163.687 355.752 163.03 354.842C162.72 354.451 162.456 354.029 162.242 353.583Z" fill="#481620"/>
<g opacity="0.1">
<path d="M186.939 361.87C188.907 363.916 190.385 366.342 191.271 368.981C192.157 371.62 192.431 374.41 192.073 377.159C191.823 378.978 191.6 381.408 193.386 382.081C194.633 382.542 196.012 381.732 197.023 380.935C204.683 375.077 210.985 367.78 215.535 359.502C215.976 358.851 216.213 358.095 216.218 357.322C216.208 356.938 216.043 356.573 215.757 356.301C215.471 356.03 215.086 355.873 214.682 355.864C214.143 356.006 213.676 356.329 213.369 356.773C207.907 362.755 201.868 368.973 196.406 374.941C196.652 371.619 195.569 368.331 193.373 365.733C191.206 363.241 188.843 360.661 186.979 361.87" fill="#481620"/>
</g>
<path d="M237.318 541.665C237.163 541.504 237.027 541.329 236.91 541.142C236.622 540.743 236.267 540.219 235.808 539.571L231.777 533.64C228.35 528.481 223.558 521.292 217.978 512.931L217.846 512.719L218.03 512.557L230.346 500.894L257.143 475.723C260.557 472.558 263.34 469.991 265.31 468.147L267.568 466.116C267.821 465.868 268.093 465.639 268.382 465.431C268.167 465.708 267.925 465.967 267.66 466.203C267.122 466.739 266.347 467.449 265.507 468.334L257.445 476.097L230.779 501.404C226.446 505.504 222.271 509.429 218.45 513.03V512.656C223.938 521.067 228.665 528.295 232.039 533.491C233.667 535.983 234.98 538.051 235.913 539.522C236.333 540.182 236.661 540.768 236.924 541.142C237.075 541.301 237.207 541.477 237.318 541.665Z" fill="#481620"/>
<path d="M222.836 367.253L222.639 367.49L222.035 368.162C221.47 368.736 220.722 369.633 219.776 370.804C217.178 374.167 215.455 378.065 214.748 382.181C213.911 388.316 214.926 394.552 217.676 400.161C219.17 403.511 221.111 406.664 223.453 409.544C225.934 412.547 228.56 415.55 231.252 418.778C241.847 431.45 250.946 443.25 257.642 451.724L265.52 461.779C266.426 462.926 267.135 463.848 267.66 464.521L268.198 465.243L268.369 465.493C268.369 465.493 268.277 465.43 268.146 465.281L267.555 464.595L265.323 461.867C263.393 459.536 260.636 456.147 257.248 451.898C250.473 443.5 241.296 431.737 230.726 419.089C228.101 415.912 225.475 412.859 222.927 409.906C220.561 406.974 218.602 403.766 217.098 400.361C214.33 394.646 213.35 388.297 214.275 382.069C215.291 376.768 217.984 371.887 221.995 368.075L222.652 367.452C222.744 367.315 222.822 367.24 222.836 367.253Z" fill="#481620"/>
<path d="M267.122 383.339C267.122 383.402 266.4 383.639 265.165 384.262C263.439 385.165 261.868 386.312 260.504 387.663C258.493 389.685 256.732 391.917 255.253 394.317C253.453 397.317 251.494 400.229 249.384 403.04C247.402 405.6 244.839 407.704 241.884 409.196C238.93 410.689 235.659 411.532 232.315 411.663C230.307 411.758 228.295 411.578 226.341 411.127C225.811 411.013 225.289 410.867 224.779 410.691C224.598 410.634 224.422 410.563 224.254 410.479C226.883 411.079 229.588 411.322 232.289 411.202C235.204 411.013 238.053 410.289 240.679 409.071C243.887 407.575 246.67 405.37 248.793 402.641C251.117 399.775 252.876 396.71 254.662 394.043C256.189 391.621 258.018 389.383 260.11 387.377C261.535 386.024 263.185 384.904 264.995 384.062C265.489 383.843 265.997 383.656 266.518 383.501C266.71 383.422 266.914 383.367 267.122 383.339Z" fill="#FAFAFA"/>
<path d="M235.808 492.906H235.492L234.613 492.707C234.219 492.607 233.733 492.545 233.155 492.457C232.495 492.353 231.828 492.282 231.16 492.246C226.874 492.059 222.587 492.582 218.49 493.791C215.643 494.568 212.857 495.534 210.152 496.682C207.238 497.928 204.218 499.448 200.962 500.906C197.56 502.492 194.008 503.768 190.353 504.719C188.4 505.197 186.405 505.497 184.392 505.616C182.312 505.71 180.227 505.568 178.182 505.192C174.188 504.334 170.375 502.843 166.903 500.781C163.516 498.862 160.483 496.682 157.581 494.663C151.844 490.576 146.356 487.187 141.143 485.716C138.815 485.03 136.398 484.653 133.961 484.595C132.124 484.561 130.291 484.767 128.512 485.205C127.001 485.609 125.54 486.164 124.153 486.863L124.403 486.688L125.191 486.24C126.223 485.709 127.315 485.291 128.447 484.994C130.245 484.51 132.105 484.267 133.974 484.271C136.447 484.29 138.904 484.638 141.274 485.305C146.605 486.738 152.185 490.152 157.949 494.214C160.864 496.233 163.897 498.376 167.245 500.27C170.652 502.292 174.394 503.754 178.313 504.594C180.301 504.966 182.329 505.104 184.353 505.005C186.321 504.898 188.273 504.61 190.182 504.146C193.799 503.213 197.315 501.961 200.686 500.407C203.942 498.962 206.975 497.442 209.877 496.233C212.61 495.094 215.428 494.145 218.306 493.392C222.456 492.209 226.797 491.749 231.12 492.034C232.718 492.116 234.296 492.41 235.808 492.906Z" fill="#FAFAFA"/>
<path d="M106.021 481.841C106.021 481.841 106.087 481.991 106.127 482.277C106.209 482.689 106.262 483.105 106.284 483.523C106.415 485.067 106.345 486.619 106.074 488.146C105.686 490.442 104.752 492.624 103.343 494.526C101.538 496.788 99.2409 498.654 96.6076 499.996C93.9816 501.529 91.2638 502.813 89.0974 504.308C87.1393 505.569 85.4249 507.142 84.0294 508.956C83.1074 510.182 82.5826 511.637 82.5195 513.142C82.5195 514.214 82.6902 514.8 82.6114 514.812C82.5337 514.685 82.4804 514.546 82.4539 514.401C82.3412 513.993 82.2708 513.576 82.2438 513.155C82.1906 511.579 82.6489 510.026 83.5567 508.706C84.9332 506.798 86.6638 505.143 88.6642 503.822C90.8699 502.264 93.5352 500.956 96.1874 499.448C98.7352 498.14 100.97 496.345 102.752 494.177C104.132 492.357 105.077 490.274 105.523 488.072C105.823 486.577 105.964 485.057 105.943 483.536C105.927 482.97 105.953 482.404 106.021 481.841Z" fill="#FAFAFA"/>
<path d="M304.16 430.267C301.465 430.697 298.845 431.476 296.374 432.585C293.73 433.81 291.355 435.501 289.376 437.569C288.219 438.796 287.223 440.152 286.409 441.606C285.543 443.114 284.952 444.821 284.098 446.503C283.317 448.197 282.135 449.698 280.645 450.889C279.244 451.974 277.653 452.818 275.945 453.381C273.07 454.285 270.036 454.641 267.017 454.428C265 454.313 262.993 454.088 261.003 453.755C260.27 453.664 259.546 453.518 258.837 453.319C259.576 453.321 260.314 453.384 261.043 453.506C262.461 453.643 264.496 453.905 267.03 453.967C269.983 454.109 272.937 453.716 275.735 452.808C277.436 452.285 279.004 451.431 280.338 450.3C281.672 449.17 282.742 447.787 283.481 446.241C284.308 444.597 284.912 442.877 285.818 441.319C286.68 439.834 287.734 438.457 288.956 437.22C291.002 435.097 293.47 433.377 296.217 432.161C298.049 431.336 299.993 430.757 301.994 430.441C302.537 430.357 303.085 430.299 303.635 430.267C303.809 430.24 303.986 430.24 304.16 430.267Z" fill="#FAFAFA"/>
<path d="M238.906 440.783L238.604 440.87L237.711 441.057C236.924 441.219 235.755 441.419 234.232 441.643C229.945 442.27 225.611 442.562 221.273 442.515C214.817 442.472 208.411 441.441 202.301 439.462C198.722 438.229 195.267 436.69 191.981 434.864C188.498 432.905 184.854 431.217 181.083 429.818C179.166 429.174 177.173 428.756 175.149 428.572C173.179 428.431 171.199 428.523 169.254 428.846C165.586 429.558 162.047 430.775 158.75 432.459C152.382 435.662 147.025 439.225 142.18 441.705C138.434 443.816 134.349 445.331 130.088 446.191C128.936 446.426 127.761 446.547 126.582 446.552H125.663C125.559 446.566 125.453 446.566 125.348 446.552H125.663L126.569 446.453C127.738 446.388 128.897 446.225 130.036 445.967C134.234 445.021 138.251 443.461 141.944 441.344C146.71 438.852 152.041 435.226 158.448 431.961C161.808 430.217 165.424 428.957 169.175 428.223C171.176 427.885 173.214 427.785 175.241 427.924C177.325 428.119 179.376 428.558 181.346 429.232C185.152 430.643 188.828 432.352 192.335 434.341C195.596 436.145 199.013 437.679 202.55 438.926C208.59 440.91 214.922 441.974 221.312 442.079C225.626 442.169 229.941 441.949 234.219 441.419C235.742 441.232 236.91 441.07 237.711 440.945L238.617 440.833C238.711 440.805 238.808 440.788 238.906 440.783Z" fill="#FAFAFA"/>
<path d="M110.564 447.986C110.692 447.349 110.665 446.692 110.486 446.067C110.117 445.26 109.55 444.548 108.833 443.991C108.116 443.434 107.269 443.048 106.363 442.864C105.221 442.54 103.921 442.354 102.529 442.054C100.986 441.784 99.5382 441.154 98.3144 440.223C97.0315 439.125 96.0338 437.76 95.3997 436.235C94.7537 434.616 94.2487 432.949 93.8898 431.251C93.549 429.599 93.048 427.981 92.393 426.416C91.7625 424.975 90.9371 423.618 89.9377 422.379C88.2515 420.259 86.0841 418.525 83.5961 417.308C81.9423 416.485 80.1742 415.89 78.3443 415.538C77.0313 415.289 76.283 415.239 76.283 415.177C76.465 415.142 76.6524 415.142 76.8344 415.177C77.3533 415.192 77.8707 415.238 78.3837 415.314C80.2965 415.566 82.154 416.109 83.885 416.921C86.459 418.127 88.7054 419.879 90.4498 422.043C91.5168 423.308 92.4 424.704 93.0757 426.192C93.7554 427.804 94.2741 429.473 94.625 431.176C94.973 432.827 95.4604 434.447 96.0824 436.024C96.6756 437.447 97.6002 438.725 98.7871 439.762C99.9262 440.651 101.279 441.259 102.726 441.531C104.039 441.855 105.352 442.067 106.573 442.428C107.533 442.647 108.423 443.086 109.162 443.708C109.902 444.329 110.469 445.114 110.814 445.992C110.947 446.487 110.947 447.005 110.814 447.5C110.769 447.677 110.684 447.843 110.564 447.986Z" fill="#FAFAFA"/>
<path d="M214.262 384.075C213.042 383.437 211.746 382.939 210.402 382.592C208.808 382.281 207.164 382.281 205.57 382.592C203.445 382.989 201.384 383.646 199.439 384.548C197.246 385.483 194.935 386.704 192.414 387.963C189.743 389.374 186.911 390.49 183.972 391.29C180.666 392.057 177.227 392.163 173.875 391.601C170.303 390.982 166.839 389.896 163.582 388.374C156.872 385.271 151.292 381.109 145.909 377.869C141.27 374.805 136.089 372.556 130.613 371.228C126.914 370.366 123.055 370.324 119.335 371.103C118 371.454 116.685 371.869 115.396 372.349C116.632 371.688 117.957 371.189 119.335 370.866C123.09 369.977 127.016 369.951 130.784 370.792C136.34 372.069 141.604 374.299 146.316 377.371C151.752 380.598 157.332 384.748 163.936 387.801C167.137 389.297 170.538 390.37 174.046 390.99C177.309 391.54 180.656 391.447 183.88 390.716C186.78 389.951 189.577 388.873 192.217 387.501C194.738 386.255 197.075 385.009 199.307 384.137C201.301 383.255 203.406 382.618 205.57 382.243C207.219 381.977 208.909 382.036 210.533 382.418C211.543 382.683 212.513 383.068 213.422 383.564C213.711 383.72 213.992 383.89 214.262 384.075Z" fill="#FAFAFA"/>
<path d="M206.844 542.275L210.494 544.007H231.501L235.742 540.718L220.459 516.719C218.582 517.504 210.336 518.725 207.671 519.609C205.372 520.376 202.952 520.763 200.515 520.756C197.799 520.813 195.084 520.6 192.414 520.12L191.837 519.946C191.48 519.8 191.096 519.724 190.707 519.722C188.436 519.535 186.637 521.79 187.911 523.572C189.184 525.354 195.395 527.734 203.325 527.522H203.706C210.664 527.522 204.283 533.054 200.148 536.344C199.417 536.904 198.85 537.631 198.501 538.458C198.151 539.285 198.031 540.183 198.152 541.067C198.176 541.384 198.271 541.693 198.432 541.973C198.593 542.252 198.815 542.496 199.084 542.687C200.843 543.746 206.844 542.275 206.844 542.275Z" fill="#FFBE9D"/>
<path d="M121.121 539.297C121.107 539.181 121.107 539.064 121.121 538.948C121.121 538.674 121.121 538.338 121.121 537.914C121.121 536.955 121.199 535.621 121.265 533.939C121.423 530.45 121.633 525.478 121.908 519.348C122.447 506.987 123.221 489.99 124.022 471.212C124.823 452.434 125.335 435.375 125.703 423.052C125.847 416.921 125.952 411.949 126.031 408.448C126.031 406.766 126.097 405.432 126.123 404.473C126.123 404.049 126.123 403.713 126.123 403.451C126.106 403.331 126.106 403.21 126.123 403.09C126.143 403.209 126.143 403.331 126.123 403.451C126.123 403.713 126.123 404.062 126.123 404.473C126.123 405.432 126.123 406.766 126.123 408.448C126.123 411.899 126.123 416.884 126.018 423.052C125.834 435.388 125.309 452.421 124.534 471.237C123.76 490.053 122.906 507.061 122.223 519.373C121.856 525.491 121.567 530.463 121.357 533.952C121.239 535.634 121.147 536.967 121.081 537.914L120.989 538.948C121.047 539.06 121.091 539.177 121.121 539.297Z" fill="#481620"/>
<path d="M178.274 541.665C178.253 541.512 178.253 541.357 178.274 541.204C178.274 540.867 178.208 540.419 178.156 539.846L177.775 534.6C177.617 532.332 177.42 529.541 177.315 526.301C177.21 523.061 176.961 519.385 176.934 515.311C176.908 511.236 176.751 506.763 176.816 501.965C176.816 499.573 176.816 497.093 176.816 494.489C176.816 491.885 176.934 489.305 177 486.614C177.328 475.835 177.919 463.998 178.838 451.587C180.676 426.753 183.013 404.336 184.51 388.1C185.245 380 185.823 373.446 186.27 368.861C186.467 366.63 186.637 364.873 186.742 363.64C186.808 363.066 186.847 362.618 186.887 362.281C186.926 361.945 186.952 361.82 186.952 361.82C186.97 361.974 186.97 362.128 186.952 362.281L186.887 363.652C186.795 364.898 186.677 366.643 186.532 368.885C186.23 373.434 185.692 380.013 184.996 388.137C183.617 404.336 181.359 426.765 179.521 451.624C178.602 464.085 177.998 475.86 177.63 486.626C177.63 489.318 177.486 491.947 177.42 494.501C177.355 497.056 177.42 499.486 177.328 501.978C177.25 506.763 177.328 511.224 177.328 515.298C177.328 519.373 177.525 523.061 177.604 526.289C177.683 529.516 177.827 532.319 177.945 534.587C178.064 536.855 178.142 538.6 178.208 539.833V541.204C178.247 541.355 178.269 541.51 178.274 541.665Z" fill="#481620"/>
<path d="M187.937 418.902C187.871 418.84 188.607 418.553 189.421 419.214C189.654 419.41 189.833 419.655 189.945 419.931C190.057 420.206 190.098 420.503 190.064 420.796C189.98 421.159 189.783 421.489 189.499 421.744C189.215 421.999 188.858 422.168 188.472 422.228C188.086 422.289 187.69 422.238 187.335 422.083C186.98 421.927 186.682 421.675 186.48 421.357C186.348 421.092 186.285 420.801 186.297 420.508C186.308 420.216 186.393 419.93 186.545 419.675C187.084 418.79 187.858 418.84 187.858 418.927C187.858 419.014 187.294 419.139 186.992 419.874C186.896 420.069 186.846 420.282 186.846 420.497C186.846 420.713 186.896 420.925 186.992 421.12C187.146 421.308 187.351 421.453 187.585 421.54C187.819 421.626 188.073 421.651 188.321 421.611C188.569 421.572 188.8 421.469 188.992 421.315C189.183 421.16 189.327 420.96 189.408 420.734C189.435 420.527 189.416 420.317 189.353 420.118C189.289 419.918 189.183 419.733 189.04 419.575C188.541 418.94 187.937 419.014 187.937 418.902Z" fill="#481620"/>
<path d="M184.248 474.851C184.182 474.788 184.93 474.489 185.744 475.162C185.974 475.357 186.151 475.601 186.26 475.875C186.37 476.148 186.409 476.442 186.375 476.732C186.307 477.101 186.116 477.44 185.83 477.698C185.544 477.956 185.178 478.12 184.786 478.165C184.4 478.238 184 478.195 183.642 478.04C183.284 477.886 182.986 477.629 182.79 477.305C182.663 477.037 182.603 476.744 182.617 476.449C182.631 476.155 182.717 475.868 182.869 475.611C183.407 474.726 184.182 474.788 184.182 474.863C184.182 474.938 183.617 475.087 183.315 475.81C183.216 476.004 183.164 476.217 183.164 476.433C183.164 476.649 183.216 476.862 183.315 477.056C183.452 477.268 183.653 477.437 183.892 477.54C184.13 477.643 184.396 477.676 184.654 477.634C184.913 477.592 185.152 477.478 185.342 477.307C185.532 477.135 185.663 476.913 185.718 476.67C185.749 476.465 185.731 476.256 185.668 476.058C185.604 475.86 185.496 475.678 185.351 475.524C184.865 474.851 184.248 474.938 184.248 474.851Z" fill="#481620"/>
<path d="M278.453 513.292C277.86 513.278 277.27 513.207 276.693 513.08C275.107 512.76 273.558 512.288 272.072 511.672C267.122 509.586 262.989 506.077 260.255 501.641C258.873 499.173 257.777 496.57 256.986 493.878C256.337 491.72 255.359 489.663 254.084 487.772C253.204 486.518 252.071 485.442 250.749 484.607C249.791 484.047 249.187 483.86 249.213 483.797C249.366 483.808 249.517 483.842 249.659 483.897C250.082 484.027 250.491 484.194 250.88 484.395C252.309 485.167 253.538 486.231 254.478 487.511C255.844 489.425 256.893 491.526 257.59 493.741C258.395 496.383 259.486 498.938 260.846 501.367C263.517 505.704 267.502 509.177 272.282 511.335C274.282 512.139 276.345 512.793 278.453 513.292Z" fill="#FAFAFA"/>
<path d="M412.952 543.97L390.632 482.489L400.952 423.501C403.958 407.588 405.639 393.595 401.135 385.583C389.096 364.238 374.561 362.319 354.709 357.422C350.613 356.413 319.456 355.416 316.029 356.176C288.996 359.054 271.691 372.661 262.198 394.804L251.904 434.179L237.764 475.3C236.581 477.689 234.847 479.795 232.69 481.463C230.533 483.13 228.009 484.316 225.304 484.932L170.79 502.613L171.249 512.744L170.79 526.451L243.396 513.479C257.944 510.887 272.741 505.791 276.916 492.47L284.728 470.515C288.549 479.81 292.711 488.334 292.711 488.334L287.459 543.696L412.952 543.97Z" fill="#FDC510"/>
<path d="M394.256 434.74L373.511 500.57C371.927 505.589 369.061 510.158 365.167 513.872C361.273 517.585 356.471 520.327 351.19 521.853L264.85 543.684L253.401 515.398L331.444 487.86L350.6 421.943C350.6 421.943 355.024 385.085 390.146 386.979" fill="#FDC510"/>
<path d="M390.133 386.979H389.083C388.387 386.979 387.363 386.904 386.01 386.979C382.057 387.086 378.152 387.84 374.469 389.209C371.807 390.198 369.302 391.532 367.025 393.172C364.325 395.143 361.934 397.467 359.922 400.075C355.108 406.569 351.99 414.056 350.823 421.919C345.571 440.261 339.006 462.715 331.746 487.873V488.022H331.601L253.506 515.698L253.703 515.286L255.738 520.271C258.955 528.246 262.132 536.096 265.139 543.535L264.732 543.335L338.914 524.644L347.278 522.526C348.591 522.177 350.022 521.853 351.361 521.479C352.676 521.087 353.965 520.621 355.221 520.084C362.419 516.993 368.209 511.555 371.541 504.757C372.533 502.653 373.35 500.478 373.983 498.253C375.366 493.9 376.679 489.746 377.922 485.792C382.977 469.917 387.034 457.133 389.831 448.41L393.074 438.317L393.927 435.713C394.124 435.127 394.242 434.828 394.242 434.828C394.242 434.828 394.164 435.139 393.993 435.725C393.822 436.311 393.547 437.208 393.192 438.354C392.47 440.684 391.42 444.086 390.067 448.485L378.356 485.954C377.121 489.933 375.808 494.087 374.417 498.415C373.787 500.666 372.971 502.866 371.975 504.994C370.917 507.207 369.595 509.297 368.036 511.224C364.7 515.282 360.386 518.521 355.458 520.669C354.174 521.216 352.859 521.694 351.519 522.102C350.206 522.476 348.801 522.8 347.422 523.162L339.059 525.28L264.89 544.071L264.601 544.145L264.496 543.884C261.489 536.407 258.299 528.582 255.082 520.62L253.047 515.635L252.929 515.336L253.244 515.224L331.299 487.711L331.102 487.91C338.442 462.777 344.993 440.323 350.337 422.006C351.53 414.077 354.709 406.535 359.607 400.013C361.644 397.381 364.072 395.044 366.815 393.072C369.122 391.431 371.659 390.102 374.351 389.122C378.063 387.757 382.003 387.035 385.984 386.991C387.007 386.937 388.033 386.937 389.056 386.991L390.133 386.979Z" fill="#481620"/>
<path d="M335.737 473.07C335.397 473.142 335.047 473.167 334.7 473.144C333.758 473.138 332.82 473.034 331.903 472.833C328.846 472.158 326.024 470.746 323.71 468.733C321.364 466.766 319.539 464.303 318.38 461.543C318.17 461.071 317.998 460.583 317.868 460.086C317.749 459.719 317.661 459.344 317.605 458.964C317.5 458.341 317.461 457.992 317.513 457.992C317.566 457.992 317.868 459.338 318.826 461.357C320.076 463.982 321.892 466.329 324.157 468.247C326.408 470.189 329.105 471.605 332.034 472.384C334.266 472.957 335.737 472.933 335.737 473.07Z" fill="#481620"/>
<path d="M284.466 423.002C284.289 423.666 284.047 424.313 283.744 424.934C283.232 426.18 282.431 427.937 281.604 430.155C279.897 434.553 277.494 440.796 277.245 447.974C277.12 451.35 277.604 454.721 278.676 457.942C279.555 460.556 280.749 463.064 282.234 465.418C283.234 467.015 284.325 468.559 285.503 470.041C285.98 470.57 286.418 471.127 286.816 471.711C286.816 471.711 286.659 471.599 286.396 471.337C286.133 471.076 285.779 470.714 285.332 470.203C284.052 468.771 282.884 467.251 281.84 465.655C280.283 463.283 279.027 460.744 278.098 458.092C276.985 454.822 276.475 451.395 276.588 447.961C277 441.767 278.542 435.687 281.144 429.993C282.076 427.8 282.917 426.055 283.494 424.847C283.767 424.209 284.092 423.592 284.466 423.002Z" fill="#481620"/>
<path d="M339.032 496.645C338.196 494.826 337.129 493.11 335.855 491.536C334.408 490.106 332.781 488.85 331.01 487.798C331.648 487.848 332.262 488.049 332.796 488.383C335.535 489.777 337.631 492.086 338.678 494.863C338.948 495.42 339.07 496.032 339.032 496.645Z" fill="#481620"/>
<path d="M254.99 519.336C254.99 519.336 230.293 521.43 230.635 536.656L261.384 535.174L254.99 519.336Z" fill="#B78876"/>
<path d="M294.799 264.179C292.541 274.546 290.387 284.93 288.339 295.33C285.713 308.514 283.35 322.295 287.276 335.205C289.429 342.282 293.394 348.712 297.32 355.067C299.526 358.631 301.941 362.394 305.854 364.238C311.171 366.73 317.894 364.761 322.135 360.811C326.376 356.861 328.516 351.354 330.012 345.858C332.862 335.217 333.492 324.164 333.951 313.187C334.411 302.209 334.647 290.82 331.325 280.178C328.004 269.537 320.73 259.469 309.898 255.257" fill="#481620"/>
<path d="M296.584 255.855C299.675 253.574 303.428 252.248 307.338 252.055C310.489 245.999 317.959 243.22 324.944 241.936C335.238 240.03 334.135 239.768 343.707 243.781C353.278 247.793 366.907 259.132 368.653 268.951C370.239 277.564 373.146 285.909 377.279 293.723C379.905 298.894 385.025 302.445 388.058 307.43C389.694 310.132 390.657 313.154 390.873 316.264C391.09 319.374 390.553 322.49 389.306 325.373C386.837 330.993 381.599 335.952 382.098 342.008C382.373 345.534 382.242 348.051 383.713 351.304C388.689 362.319 386.338 376.998 375.651 383.352C364.963 389.707 349.497 387.489 341.238 378.368C334.069 370.493 332.691 359.254 333.36 348.861C334.03 338.469 336.551 328.139 335.842 317.71" fill="#481620"/>
<path d="M308.848 543.684L308.69 540.095L253.02 534.525L228.626 467.973L124.153 465.73L155.756 543.684C207.408 544.058 258.439 544.058 308.848 543.684Z" fill="#1F271B"/>
<path d="M182.121 505.779C182.659 506.667 183.464 507.384 184.432 507.839C185.4 508.294 186.489 508.466 187.56 508.333C188.631 508.201 189.637 507.77 190.45 507.095C191.264 506.42 191.848 505.532 192.129 504.542C192.41 503.552 192.375 502.505 192.029 501.533C191.683 500.562 191.041 499.71 190.185 499.085C189.329 498.46 188.297 498.089 187.219 498.021C186.141 497.953 185.066 498.189 184.129 498.701C182.874 499.387 181.957 500.518 181.581 501.845C181.204 503.172 181.398 504.587 182.121 505.779Z" fill="white"/>
<path d="M334.201 383.166C346.726 383.166 357.992 373.035 357.624 357.983L359.882 272.004C359.922 270.204 359.248 268.455 357.993 267.105C356.738 265.755 354.994 264.902 353.107 264.715L315.78 260.976C312.73 260.671 309.646 260.955 306.714 261.811C303.782 262.667 301.063 264.076 298.721 265.955C296.378 267.834 294.46 270.143 293.082 272.744C291.704 275.344 290.894 278.183 290.702 281.088C289.81 294.695 289.271 311.355 290.965 321.51C294.379 341.933 310.883 344.538 310.883 344.538L310.476 358.805C309.845 374.007 321.833 383.153 334.201 383.153V383.166Z" fill="#B78876"/>
<path d="M299.053 292.178C299.045 292.856 299.315 293.509 299.804 294.002C300.294 294.494 300.966 294.788 301.679 294.82C302.029 294.847 302.381 294.807 302.715 294.703C303.049 294.598 303.357 294.431 303.622 294.212C303.886 293.992 304.101 293.724 304.255 293.424C304.408 293.124 304.497 292.798 304.515 292.465C304.526 291.787 304.257 291.131 303.767 290.638C303.277 290.145 302.603 289.852 301.889 289.823C301.539 289.796 301.186 289.836 300.852 289.94C300.519 290.045 300.211 290.212 299.946 290.432C299.682 290.651 299.466 290.919 299.313 291.219C299.159 291.519 299.071 291.845 299.053 292.178Z" fill="#481620"/>
<path d="M294.51 289.761C294.851 290.097 296.952 288.639 299.919 288.639C302.887 288.639 305.066 290.06 305.381 289.711C305.539 289.562 305.197 288.951 304.252 288.291C302.959 287.459 301.429 287.024 299.867 287.044C298.324 287.042 296.821 287.504 295.574 288.365C294.654 288.988 294.352 289.611 294.51 289.761Z" fill="#481620"/>
<path d="M327.728 292.701C327.717 293.379 327.985 294.035 328.476 294.528C328.966 295.022 329.64 295.314 330.354 295.343C330.705 295.372 331.059 295.333 331.394 295.23C331.729 295.126 332.039 294.959 332.305 294.739C332.571 294.52 332.788 294.251 332.942 293.95C333.096 293.649 333.185 293.322 333.203 292.988C333.211 292.311 332.941 291.657 332.451 291.164C331.962 290.672 331.29 290.378 330.577 290.346C330.226 290.317 329.872 290.356 329.537 290.46C329.201 290.563 328.892 290.73 328.626 290.95C328.36 291.17 328.143 291.438 327.989 291.739C327.835 292.04 327.746 292.367 327.728 292.701Z" fill="#481620"/>
<path d="M323.71 290.284C324.052 290.633 326.139 289.163 329.106 289.163C332.074 289.163 334.253 290.583 334.582 290.234C334.739 290.085 334.398 289.474 333.439 288.814C332.15 287.985 330.624 287.551 329.067 287.568C327.521 287.565 326.013 288.027 324.761 288.889C323.855 289.512 323.54 290.135 323.71 290.284Z" fill="#481620"/>
<path d="M312.931 311.193C311.367 310.73 309.748 310.454 308.112 310.371C307.351 310.296 306.629 310.146 306.497 309.66C306.438 308.913 306.616 308.167 307.009 307.517C307.718 305.785 308.467 303.953 309.255 302.047C312.366 294.234 314.625 287.817 314.283 287.705C313.942 287.593 311.158 293.823 308.047 301.623C307.298 303.555 306.576 305.361 305.893 307.143C305.425 308.011 305.285 309.006 305.5 309.959C305.61 310.214 305.78 310.441 305.996 310.624C306.212 310.807 306.468 310.942 306.747 311.019C307.175 311.129 307.616 311.183 308.06 311.181C309.676 311.384 311.313 311.388 312.931 311.193Z" fill="#481620"/>
<path d="M310.883 344.55C321.016 344.695 330.993 342.167 339.702 337.248C339.702 337.248 332.704 351.279 311.172 349.372L310.883 344.55Z" fill="#AA6550"/>
<path d="M314.191 317.984C314.75 317.304 315.486 316.772 316.326 316.443C317.166 316.113 318.081 315.996 318.984 316.102C319.638 316.158 320.273 316.338 320.853 316.631C321.433 316.925 321.944 317.325 322.358 317.81C322.756 318.28 322.992 318.855 323.035 319.456C323.077 320.058 322.923 320.658 322.594 321.174C322.114 321.689 321.481 322.055 320.778 322.222C320.074 322.388 319.334 322.349 318.655 322.108C317.256 321.635 315.967 320.907 314.861 319.965C314.529 319.738 314.244 319.455 314.021 319.13C313.908 318.975 313.847 318.79 313.847 318.601C313.847 318.412 313.908 318.227 314.021 318.071" fill="#AA6550"/>
<path d="M321.675 313.137C321.189 313.137 321.176 316.177 318.419 318.345C315.662 320.514 312.235 320.177 312.209 320.613C312.209 320.8 312.97 321.199 314.428 321.236C316.336 321.276 318.198 320.671 319.679 319.529C321.082 318.436 321.982 316.867 322.187 315.156C322.253 313.885 321.885 313.124 321.675 313.137Z" fill="#481620"/>
<path d="M322.371 285.35C322.66 286.122 325.627 285.761 329.12 286.16C332.612 286.558 335.422 287.406 335.881 286.77C336.091 286.434 335.593 285.724 334.463 284.976C332.955 284.048 331.236 283.476 329.448 283.306C327.673 283.11 325.875 283.31 324.196 283.892C322.896 284.39 322.253 284.988 322.371 285.35Z" fill="#481620"/>
<path d="M295.6 281.599C296.125 282.247 298.226 281.599 300.642 281.599C303.057 281.599 305.184 282.023 305.657 281.362C305.867 281.038 305.539 280.39 304.633 279.792C303.412 279.06 301.988 278.691 300.544 278.733C299.1 278.775 297.703 279.227 296.532 280.029C295.665 280.627 295.377 281.288 295.6 281.599Z" fill="#481620"/>
<path d="M291.149 277.699C299.25 273.238 307.141 269.113 312.156 261.637C314.953 269.113 320.415 272.852 327.662 276.827C334.91 280.802 343.011 283.132 351.033 285.412C346.976 289.15 346.438 295.194 347.37 300.489C348.302 305.785 350.442 310.882 350.797 316.24C351.256 323.392 348.499 330.407 348.328 337.572C348.092 347.404 352.661 356.687 357.138 365.547L376.583 354.793L373.786 306.882L374.023 272.976L343.707 246.236L305.316 250.223L291.149 277.699Z" fill="#481620"/>
<path d="M286.829 378.443C296.69 387.901 295.639 404.76 306.524 413.221C313.167 418.404 322.87 418.89 331.023 416.274C339.177 413.657 346.031 408.361 352.32 402.779C358.609 397.196 364.556 391.203 371.712 386.68C378.658 382.281 390.553 379.577 392.234 371.801C393.468 366.119 387.166 359.279 385.984 353.584C384.106 344.538 394.413 337.547 396.133 328.476C399.573 310.346 389.49 289.063 378.986 273.649C368.482 258.235 362.548 240.778 335.921 239.345C312.091 238.335 295.862 249.189 287.932 264.889C283.993 272.752 283.035 281.649 282.26 290.346C280.461 310.657 279.463 332.189 289.35 350.282C291.398 354.02 293.84 358.78 291.083 362.095C288.562 365.123 282.851 364.998 281.249 368.549C279.647 372.101 283.862 375.59 286.829 378.443ZM316.528 258.036C319.719 257.911 329.185 258.036 339.741 271.381C346.057 279.368 346.044 292.302 345.912 303.579C345.794 311.965 345.912 333.186 345.912 333.186C345.912 333.186 347.304 359.989 337.706 362.356C325.89 365.272 315.609 363.266 306.799 355.304C297.989 347.341 292.948 336.164 290.939 324.775C288.93 313.386 287.801 301.773 289.376 290.321C290.206 283.294 292.654 276.526 296.545 270.496C298.761 267.199 301.688 264.384 305.132 262.237C308.576 260.089 312.46 258.658 316.528 258.036Z" fill="#F3A712"/>
<g opacity="0.3">
<path d="M390.133 363.042C382.255 367.104 376.806 373.147 370.438 379.104C364.071 385.06 356.862 390.829 348.118 392.972C339.374 395.116 328.857 392.561 324.485 385.097C349.129 389.085 377.739 370.406 386.194 348.064C385.689 350.005 385.662 352.03 386.115 353.983C387.255 357.079 388.597 360.104 390.133 363.042Z" fill="#481620"/>
</g>
<g opacity="0.3">
<path d="M292.147 356.874C293.002 359.898 294.5 362.725 296.548 365.181C298.595 367.636 301.15 369.669 304.055 371.154C305.404 371.687 306.667 372.396 307.81 373.26C308.373 373.702 308.783 374.296 308.987 374.962C309.191 375.629 309.179 376.338 308.953 376.998C308.536 377.67 307.887 378.184 307.116 378.452C306.345 378.72 305.5 378.726 304.725 378.468C303.214 377.89 301.865 376.985 300.786 375.827C296.493 371.889 292.068 367.902 290.86 362.369C291.559 361.563 292.045 360.61 292.278 359.59C292.338 358.683 292.294 357.772 292.147 356.874Z" fill="#481620"/>
</g>
<path d="M384.238 352.488C384.148 352.743 384.024 352.985 383.87 353.211C383.594 353.672 383.24 354.382 382.675 355.229C381.131 357.661 379.43 360 377.581 362.232C374.863 365.568 371.854 368.682 368.587 371.54C364.607 375.09 360.094 378.059 355.195 380.35C352.61 381.421 349.952 382.324 347.238 383.054C344.713 383.751 342.143 384.292 339.545 384.674C335.149 385.354 330.681 385.513 326.244 385.147C323.26 384.889 320.309 384.355 317.434 383.552C316.41 383.291 315.649 382.992 315.123 382.817C314.848 382.746 314.583 382.641 314.336 382.506C314.336 382.506 315.465 382.805 317.513 383.303C320.391 384.015 323.331 384.478 326.297 384.686C330.683 384.984 335.091 384.783 339.426 384.088C341.99 383.693 344.525 383.143 347.015 382.443C349.701 381.717 352.333 380.822 354.893 379.764C359.729 377.478 364.191 374.541 368.141 371.042C371.403 368.225 374.424 365.167 377.174 361.896C379.05 359.7 380.803 357.413 382.426 355.042C383.017 354.22 383.41 353.535 383.739 353.098C383.889 352.883 384.056 352.679 384.238 352.488Z" fill="#481620"/>
<path d="M323.802 375.602C323.302 375.796 322.776 375.926 322.24 375.988C320.793 376.237 319.325 376.362 317.854 376.362C312.944 376.378 308.123 375.12 303.911 372.724C299.7 370.328 296.258 366.885 293.959 362.768C293.262 361.533 292.686 360.24 292.239 358.905C292.048 358.424 291.924 357.921 291.871 357.41C292.616 359.162 293.457 360.875 294.392 362.543C296.739 366.513 300.136 369.833 304.248 372.176C308.361 374.519 313.046 375.803 317.841 375.901C321.531 376.001 323.789 375.465 323.802 375.602Z" fill="#481620"/>
<path d="M318.695 406.48C318.938 406.384 319.194 406.321 319.456 406.293C319.955 406.181 320.769 406.081 321.662 405.857C324.36 405.306 327.022 404.603 329.632 403.751C338.226 400.858 346.312 396.754 353.619 391.577C360.914 386.381 367.823 380.714 374.299 374.618L380.259 369.135C380.916 368.525 381.467 368.039 381.887 367.652C382.07 367.471 382.273 367.308 382.491 367.167C382.346 367.373 382.178 367.565 381.993 367.74L380.443 369.31C379.13 370.655 377.121 372.587 374.64 374.942C368.241 381.157 361.35 386.897 354.026 392.113C346.669 397.325 338.489 401.4 329.789 404.187C327.148 405.005 324.45 405.646 321.715 406.106C320.756 406.293 319.981 406.355 319.469 406.418C319.215 406.469 318.955 406.49 318.695 406.48Z" fill="#481620"/>
<path d="M781.067 432.622L734.745 380.786L734.64 380.885C732.815 379.178 731.214 377.658 730.4 376.773C714.355 359.129 701.606 353.098 677.041 352.774L629.302 353.746C620.426 354.444 600.285 350.843 581.654 374.281C547.714 414.641 520.497 448.97 522.033 465.169C523.963 485.667 606.338 544.108 606.338 544.108L719.568 544.02L719.331 535.834L768.187 505.741C785.806 494.439 795.01 484.558 797.242 469.605C799.199 456.297 790.507 442.591 781.067 432.622ZM573.619 463.475C573.619 460.322 591.475 440.447 601.191 429.831L606.246 475.724L605.38 493.654L573.619 463.475ZM717.27 491.723L714.578 431.239L751.499 467.487L717.27 491.723Z" fill="#FDC510"/>
<path d="M646.513 457.951L562.813 497.211C560.59 498.254 559.678 500.81 560.777 502.92L587.834 554.875C588.932 556.985 591.625 557.85 593.849 556.807L677.549 517.548C679.772 516.505 680.683 513.949 679.585 511.839L652.528 459.884C651.429 457.774 648.736 456.909 646.513 457.951Z" fill="#E0E0E0"/>
<path d="M619.822 502.501C620.697 501.994 621.711 501.744 622.736 501.783C623.761 501.822 624.751 502.149 625.58 502.722C626.409 503.295 627.041 504.089 627.395 505.002C627.749 505.916 627.809 506.909 627.569 507.855C627.328 508.801 626.797 509.659 626.043 510.319C625.289 510.979 624.346 511.412 623.333 511.563C622.319 511.714 621.282 511.577 620.351 511.168C619.419 510.76 618.637 510.098 618.102 509.268C617.385 508.154 617.163 506.815 617.486 505.546C617.808 504.278 618.649 503.182 619.822 502.501Z" fill="white"/>
<path d="M713.869 388.2C713.886 388.333 713.886 388.466 713.869 388.599C713.869 388.898 713.869 389.272 713.869 389.758C713.869 390.817 713.869 392.312 713.869 394.206C713.869 398.119 713.948 403.701 714.001 410.592C714.079 424.423 714.644 443.513 715.773 464.596C716.902 485.68 718.058 504.757 718.675 518.576C718.99 525.479 719.2 531.037 719.318 534.949C719.318 536.843 719.397 538.339 719.423 539.398C719.423 539.884 719.423 540.258 719.423 540.557C719.438 540.689 719.438 540.823 719.423 540.955C719.41 540.823 719.41 540.689 719.423 540.557C719.423 540.258 719.423 539.884 719.344 539.398C719.344 538.339 719.2 536.906 719.108 534.949C718.898 531.049 718.596 525.467 718.242 518.601C717.441 504.745 716.351 485.68 715.143 464.621C713.935 443.563 713.515 424.423 713.567 410.592C713.567 403.714 713.567 398.131 713.659 394.206C713.659 392.312 713.659 390.817 713.725 389.758C713.725 389.272 713.725 388.898 713.725 388.599C713.761 388.462 713.809 388.329 713.869 388.2Z" fill="#481620"/>
<path d="M595.979 361.098C602.018 356.924 609.043 358.182 615.095 362.344C621.148 366.506 624.509 373.559 625.113 380.624C625.717 387.689 623.8 394.767 620.977 401.321C616.422 411.825 609.686 420.323 599.616 431.139L573.672 463.475L623.761 509.878L603.003 540.955L561.067 508.919C546.743 497.442 534.558 485.705 525.617 473.568" fill="#FDC510"/>
<path d="M525.604 473.605L525.906 473.979L526.786 475.1C527.56 476.085 528.716 477.593 530.278 479.412C534.773 484.741 539.595 489.813 544.721 494.601C548.003 497.704 551.745 501.031 555.92 504.57C560.096 508.109 564.796 511.61 569.785 515.411L603.134 540.805L602.675 540.88C609.121 531.223 616.12 520.731 623.406 509.791V510.19L597.567 486.265L573.33 463.836L573.12 463.649L573.291 463.425C582.482 452.023 591.173 441.182 599.261 431.102C604.203 425.94 608.786 420.479 612.982 414.753C616.728 409.536 619.759 403.888 622.002 397.944C624.129 392.668 625.129 387.043 624.943 381.396C624.724 376.645 623.199 372.031 620.518 368.013C618.313 364.782 615.24 362.167 611.616 360.437C608.96 359.095 605.969 358.466 602.964 358.618C601.1 358.758 599.289 359.267 597.646 360.113C596.517 360.687 595.992 361.073 595.979 361.048L596.373 360.761C596.76 360.488 597.168 360.242 597.594 360.026C599.24 359.14 601.066 358.596 602.951 358.431C605.999 358.242 609.043 358.854 611.747 360.201C615.439 361.917 618.574 364.547 620.82 367.814C623.572 371.883 625.148 376.567 625.389 381.396C625.609 387.028 624.663 392.645 622.606 397.932C620.368 403.927 617.333 409.626 613.572 414.89C609.377 420.64 604.794 426.126 599.852 431.314C591.764 441.394 583.059 452.248 573.921 463.711V463.288L598.171 485.717L623.997 509.654L624.194 509.841L624.05 510.053C616.75 520.993 609.739 531.472 603.279 541.117L603.095 541.404L602.819 541.192L569.536 515.71C564.56 511.897 559.833 508.358 555.697 504.819C551.561 501.28 547.819 497.953 544.524 494.851C539.406 490.021 534.605 484.898 530.147 479.511C528.611 477.642 527.521 476.147 526.733 475.138C526.366 474.652 526.09 474.266 525.893 473.991C525.696 473.717 525.604 473.605 525.604 473.605Z" fill="#481620"/>
<path d="M769.499 466.627C768.606 466.429 767.729 466.171 766.874 465.855C762.675 464.589 758.135 464.815 754.099 466.49C753.279 466.887 752.432 467.233 751.564 467.524C752.24 466.909 753.027 466.415 753.888 466.067C755.908 465.095 758.12 464.536 760.381 464.424C762.642 464.313 764.903 464.651 767.018 465.419C767.914 465.68 768.754 466.089 769.499 466.627Z" fill="#481620"/>
<path d="M634.015 539.497L624.903 543.796C622.692 544.84 620.21 545.257 617.756 544.996C615.301 544.735 612.978 543.808 611.065 542.326L605.38 537.927L621.135 514.414C622.986 515.174 630.602 516.196 633.227 517.081C635.501 517.837 637.895 518.216 640.304 518.202C642.994 518.256 645.682 518.048 648.326 517.579C648.497 517.517 648.733 517.467 648.891 517.404C649.248 517.264 649.634 517.2 650.02 517.218C652.265 517.018 654.051 519.261 652.79 520.956C651.53 522.65 645.385 525.068 637.534 524.856H637.166C630.273 524.856 636.602 530.326 640.685 533.578C641.408 534.131 641.97 534.852 642.314 535.67C642.659 536.488 642.777 537.377 642.654 538.251C642.634 538.566 642.541 538.874 642.382 539.151C642.223 539.429 642.003 539.67 641.735 539.859C639.95 540.955 634.015 539.497 634.015 539.497Z" fill="#A36853"/>
<path d="M655.101 374.418C643.022 374.418 632.164 364.649 632.269 350.095L630.089 267.219H630.339C630.303 265.48 630.959 263.791 632.175 262.489C633.391 261.187 635.079 260.367 636.904 260.192L672.905 256.578C675.846 256.283 678.819 256.557 681.645 257.381C684.471 258.206 687.093 259.565 689.351 261.376C691.609 263.188 693.458 265.414 694.786 267.922C696.113 270.429 696.893 273.166 697.077 275.967C697.943 289.088 698.468 305.15 696.827 314.944C693.492 334.669 677.592 337.186 677.592 337.186L677.973 350.893C678.59 365.546 667.023 374.369 655.101 374.369V374.418Z" fill="#A36853"/>
<path d="M688.989 286.695C688.989 287.346 688.721 287.97 688.243 288.436C687.765 288.902 687.114 289.171 686.429 289.188C686.089 289.215 685.748 289.177 685.424 289.076C685.101 288.975 684.802 288.813 684.546 288.601C684.29 288.388 684.082 288.128 683.934 287.837C683.786 287.546 683.701 287.23 683.684 286.907C683.684 286.246 683.961 285.612 684.454 285.145C684.946 284.678 685.614 284.415 686.31 284.415C686.979 284.4 687.628 284.628 688.126 285.052C688.624 285.475 688.932 286.063 688.989 286.695Z" fill="#481620"/>
<path d="M693.348 284.353C693.02 284.689 691.011 283.269 688.096 283.281C685.181 283.294 683.146 284.64 682.844 284.316C682.542 283.992 683.028 283.568 683.947 282.932C685.185 282.118 686.656 281.683 688.162 281.686C689.648 281.677 691.1 282.113 692.311 282.932C693.23 283.618 693.532 284.203 693.348 284.353Z" fill="#481620"/>
<path d="M661.351 287.194C661.36 287.526 661.298 287.857 661.17 288.167C661.042 288.476 660.85 288.758 660.606 288.996C660.361 289.234 660.068 289.424 659.745 289.553C659.422 289.682 659.076 289.748 658.725 289.748C658.046 289.78 657.38 289.559 656.868 289.134C656.356 288.709 656.038 288.111 655.981 287.468C655.972 287.135 656.034 286.805 656.162 286.495C656.29 286.185 656.482 285.903 656.726 285.665C656.971 285.427 657.264 285.238 657.587 285.109C657.91 284.98 658.256 284.913 658.607 284.913C659.286 284.882 659.952 285.102 660.464 285.528C660.976 285.953 661.294 286.55 661.351 287.194Z" fill="#481620"/>
<path d="M665.211 284.864C664.883 285.2 662.861 283.78 659.959 283.78C657.058 283.78 654.996 285.15 654.707 284.814C654.55 284.677 654.891 284.079 655.81 283.443C657.045 282.623 658.518 282.187 660.025 282.197C661.512 282.188 662.964 282.624 664.174 283.443C665.08 284.116 665.382 284.714 665.211 284.864Z" fill="#481620"/>
<path d="M675.61 305.025C677.116 304.57 678.679 304.302 680.258 304.227C680.993 304.153 681.689 304.016 681.807 303.542C681.869 302.826 681.699 302.109 681.321 301.486C680.625 299.804 679.916 298.047 679.155 296.203C676.148 288.726 673.982 282.496 674.297 282.371C674.612 282.247 677.317 288.265 680.31 295.792C681.045 297.648 681.728 299.418 682.385 301.112C682.849 301.95 682.984 302.917 682.765 303.841C682.658 304.083 682.495 304.299 682.288 304.474C682.081 304.648 681.836 304.777 681.571 304.85C681.163 304.953 680.744 305.007 680.323 305.012C678.759 305.201 677.175 305.205 675.61 305.025Z" fill="#481620"/>
<path d="M677.592 337.186C667.82 337.323 658.198 334.886 649.797 330.146C649.797 330.146 656.992 344.962 677.75 343.118L677.592 337.186Z" fill="#8F5039"/>
<path d="M666.498 280.104C666.222 280.851 663.36 280.49 659.999 280.876C656.637 281.263 653.92 282.122 653.434 281.474C653.224 281.15 653.696 280.453 654.747 279.742C656.209 278.864 657.863 278.314 659.584 278.134C661.304 277.955 663.045 278.151 664.673 278.708C665.999 279.219 666.629 279.755 666.498 280.104Z" fill="#481620"/>
<path d="M692.311 276.49C691.812 277.113 689.829 276.49 687.466 276.49C685.102 276.49 683.081 276.901 682.621 276.253C682.411 275.942 682.739 275.331 683.606 274.746C684.775 274.027 686.153 273.674 687.545 273.736C688.938 273.752 690.29 274.189 691.405 274.982C692.258 275.556 692.534 276.191 692.311 276.49Z" fill="#481620"/>
<path d="M630.326 286.047C633.858 285.449 636.68 286.484 637.678 289.786C639.162 294.708 638.151 297.137 638.4 300.527L643.652 299.031C642.339 287.68 645.32 279.281 644.02 267.88C651.32 270.123 661.351 265.836 664.463 258.659C667.56 260.819 671.24 262.102 675.074 262.358C678.909 262.614 682.741 261.832 686.127 260.104C686.979 261.576 688.301 262.753 689.903 263.465C691.506 264.177 693.305 264.388 695.042 264.067C698.98 263.008 703.156 257.687 704.298 253.911C706.346 247.12 705.348 237.376 699.545 232.952C693.742 228.529 682.109 229.588 677.592 235.208C675.807 237.426 675.597 241.525 672.721 242.086C670.161 242.585 667.837 240.84 665.5 239.694C658.213 236.267 648.143 240.815 646.344 248.341C640.252 244.89 632.873 242.634 626.059 244.491C619.244 246.348 613.809 253.525 616.133 259.88C617.091 262.547 619.258 264.864 619.494 267.643C619.953 273.063 613.1 277.973 615.292 282.995C616.513 285.811 620.098 287.057 621.713 289.686C623.525 292.627 622.396 296.34 622.553 299.742C622.789 305.424 625.862 313.835 631.599 315.454" fill="#481620"/>
<path d="M630.864 285.985C629.984 286.104 629.154 286.445 628.461 286.974C627.767 287.502 627.237 288.198 626.925 288.988C626.161 290.498 625.796 292.162 625.862 293.835C625.745 296.451 626.631 299.019 628.356 301.063C629.24 302.056 630.43 302.761 631.758 303.081C633.086 303.401 634.486 303.318 635.761 302.844" fill="#A36853"/>
<path d="M634.448 298.57C634.448 298.633 633.674 298.907 632.453 298.496C631.748 298.239 631.127 297.809 630.654 297.25C630.086 296.525 629.752 295.659 629.696 294.757C629.63 293.895 629.816 293.033 630.234 292.265C630.586 291.635 631.09 291.093 631.704 290.683C632.781 290.01 633.621 290.047 633.608 290.122C633.049 290.393 632.513 290.705 632.006 291.057C631.436 291.508 630.99 292.084 630.706 292.735C630.423 293.386 630.31 294.093 630.378 294.795C630.415 295.487 630.645 296.157 631.044 296.737C631.443 297.317 631.997 297.787 632.65 298.097C633.236 298.298 633.837 298.457 634.448 298.57Z" fill="#8F5039"/>
<path d="M666.498 314.645C669.124 316.352 674.087 315.455 675.951 312.925C671.945 310.852 668.253 308.274 664.975 305.262C664.975 305.262 661.246 311.143 666.498 314.645Z" fill="#FAFAFA"/>
<path d="M674.966 320.401C673.9 319.998 672.776 319.746 671.632 319.654C670.491 319.744 669.369 319.983 668.297 320.364C668.297 320.364 668.494 319.978 669.084 319.641C669.861 319.217 670.742 318.994 671.638 318.994C672.534 318.994 673.415 319.217 674.192 319.641C674.783 320.003 675.045 320.339 674.966 320.401Z" fill="#AA6550"/>
<path d="M643.022 400.187C648.564 392.428 653.602 384.355 658.108 376.013C663.53 366.194 662.611 365.696 661.312 365.259C657.819 364.076 651.084 382.169 650.191 377.434C649.298 372.699 661.088 356.25 657.386 355.204C652.554 353.783 645.871 372.861 645.188 374.431C644.506 376.001 642.103 375.041 642.812 373.658C643.823 371.677 653.88 350.506 649.14 349.073C646.515 348.288 645.569 352.948 645.569 352.948C645.569 352.948 637.691 373.446 635.473 372.699C633.254 371.951 637.442 359.752 639.162 355.74C640.882 351.727 639.595 349.347 637.14 350.045C635.459 350.519 629.879 362.68 628.278 366.68C626.676 370.68 622.474 381.757 619.927 374.593C619.927 374.48 619.835 374.381 619.783 374.269C617.485 367.141 613.218 362.381 610.999 361.808C608.78 361.235 607.165 363.552 608.084 365.546C608.202 365.894 608.399 366.213 608.662 366.481C608.78 366.605 608.898 366.792 609.016 366.929C610.333 369.154 611.407 371.5 612.22 373.932C612.998 376.098 613.384 378.373 613.362 380.661C613.362 383.315 614.675 391.041 614.57 392.947" fill="#FFAD9D"/>
<path d="M613.257 390.119L581.497 449.93C581.497 449.93 563.536 400.623 553.846 381.01C550.156 373.534 542.751 368.35 535.648 364.911V364.774L534.165 364.213C529.067 361.901 523.712 360.141 518.199 358.967C484.692 349.858 453.129 353.036 416.589 365.197C416.589 365.197 397.617 370.032 388.413 393.52C380.141 414.704 370.859 447.101 369.27 452.833C357.887 489.193 374.141 509.442 396.763 506.95C406.085 505.554 414.016 498.227 417.521 495.386L429.482 484.72L429.745 492.981L416.313 544.008L553.833 543.734L529.018 483.312L534.532 455.612L543.972 476.895C546.938 483.587 551.897 489.312 558.241 493.368C564.585 497.425 572.039 499.635 579.688 499.729C587.337 499.823 594.849 497.796 601.302 493.897C607.754 489.998 612.868 484.397 616.014 477.779L648.169 400.947L613.257 390.119Z" fill="#FA2020"/>
<path d="M447.654 464.683C447.29 465.274 446.877 465.837 446.419 466.365C445.592 467.412 444.345 468.92 442.756 470.727C439.592 474.353 435.036 479.225 429.745 484.371C424.454 489.517 419.412 493.941 415.631 496.994C413.753 498.539 412.191 499.735 411.088 500.533C410.545 501.001 409.956 501.418 409.328 501.779C409.818 501.278 410.349 500.815 410.917 500.395C411.967 499.536 413.477 498.277 415.315 496.657C418.992 493.505 423.968 489.044 429.246 483.91C434.524 478.776 439.146 473.942 442.376 470.428C444.017 468.658 445.303 467.2 446.196 466.203C446.635 465.658 447.122 465.149 447.654 464.683Z" fill="#481620"/>
<path d="M529.464 481.368C529.454 481.134 529.476 480.899 529.53 480.67C529.635 480.147 529.74 479.499 529.884 478.701L531.315 471.449C532.523 465.331 534.178 456.883 535.491 447.475C535.823 445.124 536.121 442.835 536.384 440.609C536.707 438.493 536.835 436.354 536.764 434.217C536.521 430.593 535.955 426.996 535.071 423.463C534.362 420.423 533.758 417.981 533.351 416.273C533.167 415.414 533.062 414.741 533.009 414.292C532.977 414.056 532.977 413.818 533.009 413.582C533.093 413.803 533.146 414.033 533.167 414.267C533.259 414.716 533.416 415.376 533.639 416.224C534.073 417.906 534.795 420.323 535.569 423.364C536.531 426.912 537.151 430.537 537.421 434.192C537.5 436.357 537.386 438.525 537.079 440.671C536.83 442.902 536.528 445.207 536.2 447.562C534.887 456.995 533.14 465.443 531.814 471.536C531.132 474.515 530.58 476.957 530.173 478.751C529.976 479.536 529.819 480.184 529.701 480.708C529.645 480.935 529.566 481.156 529.464 481.368Z" fill="#481620"/>
<path d="M578.7 464.559C579.201 459.646 580.154 454.784 581.549 450.03C581.405 452.515 581.032 454.983 580.433 457.406C580.07 459.833 579.49 462.225 578.7 464.559Z" fill="#481620"/>
<path d="M583.545 466.328C582.886 463.56 582.447 460.748 582.232 457.917C581.772 455.11 581.539 452.273 581.536 449.432C582.195 452.2 582.634 455.012 582.849 457.842C583.309 460.65 583.542 463.487 583.545 466.328Z" fill="#481620"/>
<path d="M482.106 543.734C481.922 543.734 481.764 523.697 481.764 499C481.764 474.303 481.922 454.254 482.106 454.254C482.29 454.254 482.447 474.278 482.447 499C482.447 523.722 482.29 543.734 482.106 543.734Z" fill="#481620"/>
<g opacity="0.2">
<path d="M533.705 417.196C540.152 428.921 545.758 440.584 546.27 453.805C546.664 464.085 542.331 472.658 546.808 482.028C546.585 482.19 542.764 474.116 541.071 470.328C537.591 462.528 534.506 455.562 534.506 455.562C534.506 455.562 536.896 437.955 537.132 434.952C537.368 431.949 533.705 417.196 533.705 417.196Z" fill="#481620"/>
</g>
<g opacity="0.2">
<path d="M374.141 476.77C374.141 482.652 370.294 463.238 373.892 458.466C376.426 455.114 380.758 453.481 384.96 452.497C389.161 451.512 393.56 450.852 397.289 448.759C402.107 446.055 405.166 441.282 408.541 437.095C411.915 432.909 416.418 414.978 421.985 414.592V440.759C408.653 448.949 394.787 456.329 380.47 462.852C378.431 464.61 376.812 466.762 375.72 469.162C374.629 471.562 374.091 474.156 374.141 476.77Z" fill="#481620"/>
</g>
<g opacity="0.2">
<path d="M429.443 484.732C438.437 479.935 445.001 473.518 455.164 471.86C464.945 470.216 475.016 471.86 484.915 471.212C484.382 466.469 483.834 461.718 483.274 456.958L454.954 456.658L429.443 484.732Z" fill="#481620"/>
</g>
<path d="M421.985 414.292C422.169 414.292 422.327 420.111 422.327 427.289C422.327 434.466 422.169 440.298 421.985 440.298C421.639 435.97 421.525 431.628 421.644 427.289C421.525 422.954 421.639 418.616 421.985 414.292Z" fill="#481620"/>
<path d="M374.115 476.633C373.902 475.878 373.849 475.09 373.957 474.315C374.09 472.438 374.56 470.596 375.349 468.87C376.127 467.143 377.215 465.558 378.566 464.185C379.083 463.58 379.716 463.073 380.43 462.69C378.661 464.647 377.165 466.812 375.979 469.132C375 471.54 374.372 474.064 374.115 476.633Z" fill="#481620"/>
<path d="M379.774 463.088C380.482 462.91 381.171 462.672 381.835 462.378C383.148 461.879 385.039 461.132 387.336 460.098C391.932 458.104 398.194 455.113 404.838 451.375C411.482 447.637 417.272 443.961 421.329 441.145C423.364 439.724 424.992 438.553 426.082 437.718C426.672 437.31 427.226 436.856 427.736 436.36C427.091 436.693 426.476 437.077 425.898 437.506L421.027 440.746C416.891 443.463 411.088 447.089 404.457 450.789C397.827 454.49 391.63 457.506 387.1 459.612L381.717 462.104C381.04 462.376 380.389 462.706 379.774 463.088Z" fill="#481620"/>
<path d="M552.297 302.67C550.038 299.866 546.454 297.685 545.732 294.259C544.826 289.661 549.671 285.349 548.791 280.739C548.213 277.586 545.154 275.368 542.029 274.147C538.904 272.926 535.464 272.34 532.602 270.708C529.166 268.616 526.529 265.532 525.079 261.911C524.65 260.921 524.278 259.91 523.963 258.883C523.67 256.681 523.138 254.514 522.374 252.416C522.256 251.868 522.151 251.319 522.046 250.771L522.19 252.017C521.755 250.98 521.181 250 520.484 249.101C518.081 246.061 513.275 244.366 509.98 246.497L511.555 245.5C509.563 240.927 506.362 236.919 502.262 233.863C498.161 230.808 493.299 228.807 488.145 228.055C486.18 227.794 484.19 227.731 482.211 227.868C475.134 227.519 464.906 229.476 460.586 232.08C455.072 235.395 449.426 239.943 446.656 245.562C445.172 248.59 444.161 252.092 441.404 254.11C437.649 256.802 432.384 255.755 427.697 256.254C419.976 257.089 413.254 262.708 410.628 269.649C409.406 273.162 408.966 276.878 409.337 280.561C409.707 284.244 410.88 287.814 412.781 291.044C413.595 292.477 414.554 294.134 413.911 295.642C413.245 296.761 412.206 297.638 410.956 298.134C407.809 299.675 405.295 302.171 403.814 305.224C402.501 308.327 403 312.252 405.652 314.445C406.764 315.286 408.093 315.831 409.501 316.021C410.909 316.212 412.345 316.042 413.661 315.529C412.878 317.406 412.465 319.404 412.44 321.423C412.384 323.629 412.953 325.809 414.087 327.735C415.221 329.662 416.878 331.264 418.887 332.376C422.996 334.407 428.747 333.335 431.163 329.585C431.147 332.35 431.921 335.068 433.401 337.45C434.881 339.832 437.012 341.79 439.569 343.116C442.127 344.442 445.014 345.086 447.926 344.981C450.838 344.876 453.665 344.025 456.109 342.519C458.052 341.273 460.048 339.628 462.346 340.027C464.643 340.425 465.943 342.519 467.519 344.039C471.72 348.188 478.889 348.662 484.417 346.307C489.944 343.952 494.014 339.242 496.942 334.208C497.963 335.657 499.394 336.804 501.07 337.517C502.746 338.23 504.601 338.48 506.42 338.238C508.239 337.996 509.95 337.272 511.355 336.149C512.76 335.026 513.804 333.55 514.365 331.89C516.412 334.402 519.222 336.258 522.416 337.205C525.61 338.152 529.033 338.145 532.223 337.186C535.413 336.226 538.215 334.36 540.251 331.839C542.287 329.318 543.457 326.265 543.605 323.093C545.914 322.769 548.094 321.878 549.93 320.51C551.766 319.142 553.194 317.343 554.073 315.29C554.952 313.238 555.252 311.004 554.943 308.808C554.633 306.612 553.726 304.53 552.31 302.769L552.297 302.67ZM420.252 306.52C420.252 306.52 420.252 306.52 420.252 306.445L420.384 306.383L420.252 306.52Z" fill="#481620"/>
<path d="M503.546 337.784C503.546 337.784 520.365 335.142 523.845 314.32C525.578 303.965 525.026 286.994 524.107 273.125C523.912 270.165 523.088 267.273 521.684 264.623C520.28 261.972 518.326 259.619 515.939 257.704C513.552 255.789 510.782 254.352 507.795 253.48C504.808 252.608 501.665 252.318 498.557 252.628L460.481 256.453C458.55 256.647 456.767 257.524 455.487 258.909C454.208 260.295 453.525 262.087 453.575 263.929L457.58 354.369C454.809 354.93 448.52 356.225 445.435 357.073C445.435 357.073 474.871 419.513 482.079 418.79C489.288 418.068 518.094 358.979 518.094 358.979C513.077 357.544 507.985 356.359 502.837 355.428C502.756 349.539 502.992 343.65 503.546 337.784Z" fill="#FFAD9D"/>
<path d="M515.599 284.464C515.607 285.159 515.328 285.829 514.823 286.332C514.318 286.834 513.626 287.13 512.895 287.156C512.535 287.192 512.171 287.157 511.826 287.054C511.482 286.951 511.163 286.781 510.89 286.555C510.618 286.329 510.398 286.052 510.243 285.742C510.089 285.432 510.004 285.094 509.993 284.751C509.986 284.056 510.264 283.387 510.769 282.884C511.274 282.381 511.966 282.085 512.698 282.06C513.056 282.032 513.415 282.074 513.756 282.18C514.097 282.287 514.412 282.458 514.682 282.682C514.953 282.906 515.173 283.179 515.331 283.485C515.488 283.791 515.579 284.124 515.599 284.464Z" fill="#481620"/>
<path d="M520.234 281.997C519.88 282.346 517.753 280.851 514.72 280.863C511.687 280.876 509.468 282.309 509.153 281.96C508.982 281.798 509.336 281.175 510.308 280.502C511.629 279.654 513.19 279.206 514.785 279.219C516.36 279.217 517.895 279.688 519.171 280.564C520.037 281.212 520.405 281.848 520.234 281.997Z" fill="#481620"/>
<path d="M486.386 285.001C486.393 285.697 486.113 286.369 485.605 286.872C485.097 287.375 484.402 287.669 483.668 287.692C483.308 287.728 482.945 287.694 482.6 287.59C482.255 287.487 481.936 287.317 481.664 287.091C481.392 286.865 481.171 286.588 481.017 286.278C480.862 285.968 480.777 285.63 480.766 285.287C480.759 284.591 481.04 283.919 481.548 283.416C482.055 282.913 482.751 282.618 483.484 282.596C483.842 282.569 484.202 282.61 484.543 282.717C484.884 282.823 485.199 282.994 485.469 283.218C485.739 283.442 485.96 283.715 486.117 284.021C486.275 284.328 486.366 284.66 486.386 285.001Z" fill="#481620"/>
<path d="M490.469 282.533C490.128 282.882 487.988 281.387 484.968 281.399C481.948 281.412 479.716 282.845 479.388 282.496C479.23 282.334 479.585 281.711 480.556 281.038C481.869 280.179 483.427 279.722 485.02 279.729C486.595 279.729 488.13 280.2 489.406 281.075C490.325 281.711 490.64 282.384 490.469 282.533Z" fill="#481620"/>
<path d="M501.459 303.841C503.056 303.367 504.711 303.086 506.382 303.006C507.144 302.931 507.879 302.782 508.01 302.283C508.078 301.524 507.899 300.763 507.498 300.103C506.763 298.333 506.015 296.464 505.214 294.52C502.036 286.57 499.739 280.029 500.08 279.904C500.421 279.779 503.258 286.134 506.435 294.097L508.628 299.716C509.116 300.601 509.256 301.622 509.021 302.595C508.906 302.859 508.728 303.093 508.5 303.279C508.272 303.466 508.001 303.598 507.708 303.666C507.279 303.772 506.839 303.831 506.395 303.841C504.756 304.034 503.098 304.034 501.459 303.841Z" fill="#481620"/>
<path d="M503.546 337.784C493.215 337.921 483.047 335.333 474.175 330.307C474.175 330.307 481.305 344.6 503.258 342.656L503.546 337.784Z" fill="#ED9482"/>
<path d="M492.938 308.339C493.604 307.895 494.359 307.585 495.157 307.429C495.559 307.359 495.974 307.411 496.343 307.576C496.713 307.742 497.019 308.013 497.218 308.351C497.301 308.6 497.407 308.842 497.533 309.074C497.979 309.647 498.912 309.436 499.621 309.635C499.888 309.742 500.131 309.899 500.335 310.096C500.539 310.292 500.7 310.525 500.808 310.781C500.917 311.037 500.971 311.311 500.968 311.587C500.964 311.863 500.904 312.135 500.789 312.389C500.525 312.895 500.157 313.345 499.706 313.714C499.254 314.082 498.73 314.36 498.163 314.532C496.677 315.113 495.059 315.323 493.463 315.143C492.904 315.122 492.357 314.99 491.857 314.754C491.356 314.517 490.915 314.183 490.561 313.772C490.23 313.221 490.074 312.591 490.114 311.958C490.154 311.326 490.387 310.717 490.784 310.208C491.6 309.194 492.623 308.347 493.791 307.716" fill="#ED9482"/>
<path d="M492.557 305.835C493.043 305.835 493.056 308.925 495.866 311.13C498.675 313.336 502.168 313 502.194 313.436C502.194 313.635 501.419 314.046 499.936 314.084C498.024 314.101 496.166 313.484 494.684 312.339C493.234 311.235 492.293 309.641 492.058 307.891C491.966 306.632 492.334 305.81 492.557 305.835Z" fill="#481620"/>
<path d="M491.835 277.512C491.533 278.284 488.513 277.923 484.968 278.322C481.423 278.72 478.534 279.655 478.075 278.945C477.865 278.621 478.364 277.885 479.519 277.125C481.068 276.198 482.818 275.618 484.638 275.428C486.458 275.238 488.299 275.443 490.023 276.029C491.31 276.527 491.966 277.138 491.835 277.512Z" fill="#481620"/>
<path d="M519.118 275.481C518.58 276.141 516.492 275.481 513.984 275.481C511.477 275.481 509.363 275.917 508.877 275.231C508.654 274.907 508.995 274.247 509.914 273.636C511.161 272.896 512.611 272.523 514.081 272.565C515.551 272.607 516.975 273.063 518.173 273.873C519.066 274.521 519.354 275.194 519.118 275.481Z" fill="#481620"/>
<path d="M511.28 249.587C510.46 253.276 508.871 256.771 506.606 259.868C504.34 262.964 501.444 265.598 498.089 267.616C494.734 269.633 490.987 270.992 487.069 271.613C483.151 272.234 479.142 272.104 475.278 271.231C474.643 275.805 472.776 280.146 469.858 283.834C466.939 287.523 463.067 290.435 458.617 292.29C464.688 302.735 467.163 314.722 465.694 326.569C465.05 331.553 463.514 336.874 459.523 340.276C453.431 345.46 443.163 344.201 437.307 338.793C431.688 333.597 429.705 325.473 431.294 318.183C432.883 310.894 437.701 304.476 443.754 299.791C441.204 299.377 438.827 298.296 436.889 296.669C434.951 295.043 433.53 292.935 432.785 290.584C432.04 288.233 432.001 285.731 432.673 283.36C433.344 280.989 434.699 278.843 436.585 277.163C438.305 275.618 440.524 274.471 441.837 272.59C443.15 270.708 443.36 268.615 444.109 266.609C446.065 261.363 451.002 257.737 455.702 254.397C459.641 251.581 464.053 248.64 469.016 248.653C471.641 248.653 474.267 249.525 476.893 249.188C480.504 248.727 483.327 246.123 486.307 244.204C490.453 241.276 495.611 239.94 500.75 240.466C505.831 241.226 510.571 244.827 511.529 249.612" fill="#481620"/>
<path d="M509.323 251.643C508.549 255.668 510.636 259.793 513.814 262.609C516.991 265.425 520.917 267.169 524.843 268.839C523.475 264.88 521.563 261.11 519.157 257.624C517.944 255.874 516.377 254.369 514.547 253.197C512.717 252.025 510.661 251.209 508.496 250.796" fill="#481620"/>
<path d="M412.847 299.642C412.697 299.221 412.657 298.772 412.729 298.333C412.924 297.061 413.629 295.909 414.698 295.118C416.427 293.924 418.558 293.374 420.685 293.573C423.141 293.573 425.859 294.346 428.865 294.171C430.492 294.042 432.063 293.548 433.451 292.732C434.838 291.915 436.002 290.799 436.848 289.474C437.786 287.992 438.302 286.305 438.345 284.577C438.476 282.795 438.345 280.926 438.41 278.982C438.43 276.944 439.099 274.959 440.327 273.287C441.694 271.618 443.508 270.327 445.579 269.549C449.715 267.767 454.429 267.742 458.945 266.945C461.186 266.598 463.346 265.881 465.326 264.827C467.181 263.705 468.791 262.254 470.066 260.553C472.626 257.213 474.346 253.487 476.696 250.31C479.521 246.32 483.676 243.346 488.496 241.866C493.315 240.385 498.518 240.485 503.271 242.148C505.241 242.824 507.102 243.759 508.798 244.927C510.269 245.887 511.575 247.055 512.671 248.391C512.576 248.325 512.488 248.25 512.409 248.167L511.687 247.481C510.742 246.627 509.728 245.843 508.654 245.139C504.672 242.533 499.926 241.186 495.091 241.288C491.541 241.403 488.07 242.311 484.961 243.94C481.851 245.568 479.19 247.87 477.195 250.659C474.898 253.774 473.191 257.5 470.63 260.939C469.306 262.71 467.629 264.217 465.694 265.375C463.661 266.474 461.438 267.221 459.129 267.58C454.507 268.39 449.938 268.415 445.894 270.073C443.932 270.814 442.211 272.035 440.905 273.611C439.742 275.181 439.109 277.05 439.093 278.969C438.975 280.851 439.093 282.708 439.001 284.564C438.936 286.383 438.38 288.155 437.386 289.711C436.489 291.098 435.257 292.262 433.791 293.108C432.325 293.953 430.668 294.454 428.957 294.57C425.819 294.72 423.114 293.947 420.712 293.885C418.664 293.657 416.6 294.149 414.908 295.268C413.869 296.012 413.158 297.095 412.913 298.308C412.832 298.748 412.81 299.196 412.847 299.642Z" fill="#FAFAFA"/>
<path d="M445.461 395.826L446.853 429.021L450.372 460.796L487.568 459.288L484.889 396.549L445.461 395.826Z" fill="#481620"/>
<path d="M439.999 395.713L441.391 429.02L444.91 460.795L482.106 459.287L479.427 396.448L439.999 395.713Z" fill="#FF6087"/>
<path d="M436.507 464.683C446.378 464.256 456.213 463.257 465.956 461.692C477.484 459.935 477.366 458.951 476.959 457.693C475.856 454.328 456.556 460.035 460.022 456.521C463.488 453.007 484.403 452.16 483.09 448.696C481.397 444.173 461.295 450.503 459.562 450.914C457.829 451.325 457.199 448.945 458.788 448.646C461.072 448.222 484.955 443.213 483.327 438.752C482.434 436.26 477.93 438.354 477.93 438.354C477.93 438.354 455.899 444.584 455.203 442.503C454.507 440.422 467.322 436.273 471.733 435.151C476.145 434.03 477.392 431.65 475.331 430.167C473.926 429.183 460.324 432.21 455.991 433.394C451.658 434.578 439.789 437.992 444.306 431.762C444.384 431.662 444.437 431.563 444.503 431.463C449.137 425.457 450.595 419.364 449.754 417.32C448.914 415.276 445.986 415.463 444.87 417.32C444.651 417.62 444.499 417.959 444.424 418.317C444.424 418.479 444.306 418.691 444.253 418.865C443.18 421.192 441.861 423.409 440.314 425.482C438.956 427.375 437.263 429.031 435.312 430.379C433.067 431.936 427.434 437.643 425.662 438.653" fill="#FFAD9D"/>
<path d="M427.986 436.821L447.654 464.683L415.237 496.059L416.34 445.17L427.986 436.821Z" fill="#FA2020"/>
</svg>
