<svg width="736" height="735" viewBox="0 0 736 735" fill="none" xmlns="http://www.w3.org/2000/svg">
<path d="M617.743 118.509C626.551 123.954 636.701 126.838 647.056 126.838C657.411 126.838 667.561 123.954 676.368 118.509C686.684 112.132 694.639 102.565 699.026 91.258C703.413 79.9514 703.993 67.5225 700.678 55.8564C697.363 44.1903 690.334 33.9235 680.658 26.6132C670.981 19.3028 659.184 15.3477 647.056 15.3477C634.928 15.3477 623.131 19.3028 613.454 26.6132C603.777 33.9235 596.748 44.1903 593.433 55.8564C590.118 67.5225 590.698 79.9514 595.085 91.258C599.472 102.565 607.427 112.132 617.743 118.509Z" fill="#EBEBEB"/>
<path d="M630.087 64.714C630.087 68.0718 631.083 71.3543 632.948 74.1463C634.814 76.9382 637.465 79.1143 640.568 80.3993C643.67 81.6843 647.084 82.0205 650.377 81.3654C653.67 80.7103 656.695 79.0934 659.07 76.719C661.444 74.3446 663.061 71.3195 663.716 68.0262C664.371 64.7328 664.035 61.3192 662.75 58.2169C661.465 55.1147 659.289 52.4631 656.497 50.5976C653.705 48.7321 650.423 47.7363 647.065 47.7363C644.835 47.734 642.626 48.1715 640.565 49.0239C638.504 49.8763 636.632 51.1267 635.055 52.7037C633.478 54.2807 632.227 56.1532 631.375 58.2141C630.522 60.275 630.085 62.4838 630.087 64.714Z" fill="white"/>
<path d="M617.743 111.514V118.509C626.551 123.954 636.701 126.839 647.056 126.839C657.411 126.839 667.561 123.954 676.369 118.509V111.532C676.465 107.622 675.778 103.732 674.349 100.091C672.919 96.45 670.775 93.132 668.044 90.3321C665.312 87.5323 662.048 85.3073 658.444 83.7881C654.839 82.269 650.967 81.4863 647.056 81.4863C643.144 81.4863 639.272 82.269 635.668 83.7881C632.063 85.3073 628.799 87.5323 626.068 90.3321C623.336 93.132 621.192 96.45 619.763 100.091C618.333 103.732 617.646 107.622 617.743 111.532V111.514Z" fill="white"/>
<path d="M148.712 120.893C155.883 102.861 147.08 82.4303 129.049 75.2585C111.018 68.0866 90.5868 76.8899 83.4149 94.921C76.2431 112.952 85.0463 133.383 103.077 140.555C121.109 147.727 141.54 138.924 148.712 120.893Z" fill="#EBEBEB"/>
<path d="M133.978 112.266C128.611 123 116.088 129.333 116.088 129.333C116.088 129.333 103.458 122.982 98.1984 112.266C93.7795 103.321 96.5704 93.6959 103.565 91.5848C113.566 88.5614 116.088 105.986 116.088 105.986C116.088 105.986 118.647 88.5614 128.611 91.5848C135.606 93.6959 138.397 103.428 133.978 112.266Z" fill="white"/>
<path fill-rule="evenodd" clip-rule="evenodd" d="M51.7201 310.416C49.5017 309.038 47.5875 307.034 44.564 307.338C43.437 307.446 43.6874 306.516 43.6695 305.889C43.6695 294.798 43.6278 283.718 43.5443 272.65C43.5443 271.827 43.5443 271.165 44.4567 270.735C52.9187 266.424 56.5504 258.016 61.7206 250.824C64.3676 247.249 66.2686 243.179 67.3105 238.854C68.3524 234.53 68.5139 230.041 67.7853 225.653C67.4096 223.148 68.5725 222.075 70.8266 221.52C73.528 220.894 76.1936 221.627 77.1597 223.488C79.6094 228.008 81.2616 232.916 82.0437 237.997C82.5446 242.201 81.0418 246.298 80.5409 250.52C80.1652 253.579 79.4675 256.584 78.895 259.662C79.6464 260.198 80.5051 259.93 81.2923 259.93L109.398 259.84C113.333 259.84 115.283 260.968 115.838 263.579C116.122 265.16 115.894 266.791 115.186 268.233C114.478 269.675 113.327 270.853 111.902 271.594C111.204 271.934 109.934 271.594 109.863 272.721C109.791 273.848 111.079 273.723 111.652 274.17C115.051 276.478 114.443 281.326 110.525 284.064C109.594 284.743 107.752 284.439 107.716 285.853C107.68 287.266 109.505 286.944 110.185 287.642C112.94 290.343 111.598 295.388 107.501 297.445C106.943 297.62 106.399 297.835 105.873 298.089C105.408 298.393 104.943 298.751 105.873 299.395C109.934 302.276 109.863 306.301 105.873 309.253L104.657 310.147C103.178 311.034 101.452 311.417 99.7369 311.239L55.6738 311.4C54.9824 311.511 54.2758 311.481 53.5963 311.312C52.9168 311.143 52.2786 310.838 51.7201 310.416Z" fill="#EBEBEB"/>
<path fill-rule="evenodd" clip-rule="evenodd" d="M9.92898 291.005C9.92898 283.974 9.92898 276.926 9.92898 269.877C9.92898 268.446 10.0542 267.748 11.718 267.748C20.3231 267.837 28.8924 267.748 37.4796 267.748C39.2686 267.748 39.4296 268.303 39.4296 269.805C39.4296 283.974 39.4833 298.149 39.5907 312.33C39.5907 314.119 39.1076 314.638 37.3007 314.62C28.964 314.62 20.6272 314.62 12.2547 314.709C10.1794 314.709 9.8932 314.03 9.91109 312.205C9.92898 305.102 9.92898 298.054 9.92898 291.005Z" fill="#EBEBEB"/>
<path fill-rule="evenodd" clip-rule="evenodd" d="M687.961 458.08C686.673 457.275 685.546 456.094 683.811 456.291C683.149 456.291 683.292 455.808 683.274 455.45C683.274 448.938 683.274 442.426 683.274 435.914C683.274 435.431 683.274 435.056 683.811 434.787C688.784 432.265 690.967 427.327 693.954 423.105C695.511 421.004 696.63 418.612 697.245 416.071C697.86 413.529 697.957 410.89 697.532 408.31C697.318 406.843 697.997 406.181 699.321 405.877C699.984 405.646 700.704 405.635 701.374 405.844C702.044 406.053 702.629 406.473 703.042 407.04C704.478 409.693 705.446 412.574 705.905 415.555C705.897 418.026 705.603 420.487 705.028 422.89C704.796 424.679 704.384 426.468 704.062 428.257C704.491 428.562 705.01 428.401 705.475 428.401H721.97C724.296 428.401 725.423 429.045 725.745 430.583C725.929 431.53 725.796 432.512 725.366 433.375C724.936 434.239 724.233 434.936 723.365 435.36C722.954 435.574 722.22 435.36 722.167 436.022C722.113 436.684 722.882 436.612 723.276 436.88C725.262 438.24 724.904 441.049 722.614 442.695C722.059 443.088 720.986 442.909 720.95 443.714C720.915 444.519 721.952 444.358 722.399 444.806C722.757 445.262 723.003 445.797 723.118 446.365C723.233 446.934 723.213 447.522 723.06 448.082C722.907 448.641 722.625 449.157 722.237 449.589C721.849 450.02 721.365 450.355 720.825 450.566C720.496 450.673 720.173 450.798 719.859 450.942C719.591 451.139 719.322 451.336 719.859 451.711C722.238 453.5 722.203 455.772 719.859 457.508L719.143 458.026C718.282 458.556 717.268 458.782 716.263 458.67H690.376C689.955 458.747 689.522 458.733 689.106 458.632C688.69 458.53 688.3 458.342 687.961 458.08Z" fill="#EBEBEB"/>
<path fill-rule="evenodd" clip-rule="evenodd" d="M663.309 446.684C663.309 442.552 663.309 438.401 663.309 434.268C663.309 433.428 663.309 433.016 664.418 433.034C669.463 433.034 674.508 433.034 679.553 433.034C680.537 433.034 680.698 433.356 680.698 434.233C680.698 442.581 680.698 450.93 680.698 459.279C680.698 460.334 680.412 460.638 679.356 460.638C674.454 460.638 669.57 460.638 664.668 460.638C663.452 460.638 663.291 460.227 663.291 459.171C663.38 454.949 663.327 450.817 663.309 446.684Z" fill="#EBEBEB"/>
<path d="M639.658 285.03H634.524C633.758 285.037 632.999 284.891 632.29 284.602C631.581 284.312 630.938 283.884 630.396 283.343C629.855 282.801 629.427 282.157 629.137 281.449C628.848 280.74 628.702 279.981 628.709 279.215C628.714 277.675 629.328 276.199 630.418 275.109C631.507 274.02 632.983 273.406 634.524 273.401H641.68L645.025 253.937H638.531C637.042 253.854 635.642 253.205 634.617 252.122C633.593 251.039 633.022 249.604 633.022 248.114C633.022 246.623 633.593 245.188 634.617 244.105C635.642 243.022 637.042 242.373 638.531 242.29H647.047L649.265 228.98C649.486 227.606 650.2 226.36 651.274 225.474C652.347 224.588 653.706 224.124 655.097 224.168C655.946 224.182 656.782 224.377 657.55 224.739C658.318 225.102 658.999 225.624 659.549 226.27C660.099 226.917 660.506 227.673 660.74 228.489C660.975 229.305 661.034 230.162 660.911 231.002L658.908 242.29H676.458L678.712 228.98C678.938 227.592 679.666 226.335 680.758 225.448C681.849 224.561 683.229 224.106 684.634 224.168C685.477 224.185 686.307 224.383 687.068 224.749C687.828 225.114 688.501 225.638 689.042 226.286C689.583 226.934 689.979 227.69 690.203 228.503C690.427 229.317 690.474 230.169 690.34 231.002L688.426 242.29H693.596C695.133 242.304 696.601 242.922 697.686 244.01C698.77 245.098 699.384 246.569 699.393 248.105C699.37 249.638 698.753 251.103 697.672 252.191C696.591 253.279 695.13 253.904 693.596 253.937H686.44L683.059 273.383H689.428C690.194 273.376 690.953 273.522 691.662 273.811C692.37 274.101 693.014 274.529 693.555 275.07C694.097 275.612 694.525 276.255 694.814 276.964C695.104 277.673 695.25 278.432 695.242 279.197C695.238 280.738 694.624 282.214 693.534 283.304C692.445 284.393 690.969 285.007 689.428 285.012H681.038L678.694 298.769C678.462 300.138 677.745 301.378 676.674 302.262C675.603 303.145 674.25 303.614 672.862 303.582C672.011 303.579 671.171 303.392 670.399 303.035C669.627 302.677 668.941 302.157 668.389 301.509C667.837 300.862 667.431 300.103 667.199 299.284C666.968 298.465 666.916 297.606 667.048 296.766L669.177 285.012H651.609L649.247 298.769C649.007 300.147 648.277 301.393 647.193 302.277C646.109 303.161 644.742 303.624 643.343 303.582C642.492 303.595 641.648 303.417 640.874 303.063C640.099 302.708 639.414 302.186 638.867 301.533C638.32 300.88 637.926 300.113 637.713 299.288C637.5 298.463 637.474 297.602 637.636 296.766L639.658 285.03ZM671.127 273.401L674.49 253.937H657.011L653.63 273.383L671.127 273.401Z" fill="#EBEBEB"/>
<path d="M114.872 454.413C121.452 451.234 128.733 449.784 136.029 450.199C143.325 450.614 150.395 452.88 156.572 456.784C162.749 460.688 167.83 466.101 171.336 472.513C174.842 478.924 176.657 486.123 176.61 493.431C176.449 493.914 176.288 501.607 170.742 506.652C170.112 507.172 169.414 507.605 168.667 507.94C167.491 508.581 166.176 508.928 164.836 508.95C163.496 508.971 162.171 508.668 160.974 508.065C159.111 507.058 157.596 505.512 156.627 503.628L154.838 499.907C154.103 502.813 152.748 505.525 150.868 507.859C148.988 510.194 146.626 512.094 143.943 513.432C133.102 518.799 119.702 513.646 114.156 502.376C108.61 491.105 112.85 477.598 123.692 472.267C134.533 466.936 147.682 471.963 153.049 483.198L153.479 484.074L153.747 484.629L161.672 500.73H161.78C162.195 501.564 162.809 502.283 163.569 502.823C163.946 502.985 164.358 503.05 164.768 503.013C165.177 502.975 165.57 502.836 165.912 502.608L166.789 502.179C169.705 499.8 170.367 494.683 170.367 493.377C170.544 487.549 169.246 481.77 166.592 476.578C163.369 470.052 158.283 464.628 151.977 460.993C145.671 457.358 138.429 455.674 131.166 456.155C123.903 456.636 116.946 459.259 111.175 463.694C105.403 468.129 101.076 474.176 98.7417 481.07C96.4069 487.964 96.1691 495.396 98.0582 502.425C99.9473 509.454 103.878 515.766 109.355 520.561C114.831 525.355 121.606 528.419 128.823 529.363C136.04 530.307 143.375 529.09 149.901 525.865C152.712 524.605 155.332 522.955 157.683 520.964C157.95 520.688 158.275 520.475 158.635 520.342C158.995 520.208 159.38 520.156 159.763 520.19C160.145 520.225 160.515 520.344 160.846 520.54C161.176 520.735 161.458 521.002 161.672 521.321C161.952 521.593 162.169 521.923 162.307 522.288C162.446 522.652 162.502 523.043 162.473 523.432C162.444 523.821 162.33 524.199 162.139 524.539C161.948 524.879 161.685 525.173 161.368 525.4C158.686 527.709 155.723 529.668 152.548 531.232C147.496 533.83 141.977 535.395 136.314 535.837C130.65 536.278 124.955 535.587 119.562 533.804C114.168 532.021 109.184 529.181 104.9 525.451C100.615 521.72 97.117 517.174 94.6088 512.077C92.1007 506.98 90.633 501.434 90.2913 495.764C89.9496 490.093 90.7409 484.412 92.6188 479.05C94.4968 473.689 97.4239 468.755 101.229 464.538C105.035 460.32 109.642 456.902 114.782 454.484L114.872 454.413ZM141.099 507.743C148.666 504.022 151.833 494.272 147.736 485.827C143.639 477.383 133.835 473.895 126.268 477.616C118.7 481.337 115.713 491.248 119.792 499.567C123.871 507.886 133.37 511.5 141.099 507.743Z" fill="#EBEBEB"/>
<path d="M367.73 735C570.742 735 735.316 713.799 735.316 687.645C735.316 661.492 570.742 640.29 367.73 640.29C164.717 640.29 0.143127 661.492 0.143127 687.645C0.143127 713.799 164.717 735 367.73 735Z" fill="#EBEBEB"/>
<path d="M104.871 516.098C95.9264 516.42 85.747 516.938 78.269 511.07C71.3634 505.703 65.1914 497.599 66.1216 488.35C66.3721 485.702 66.9804 484.074 69.807 485.201C74.1185 486.99 77.446 491.678 80.4337 495.005C84.2239 499.356 88.4169 503.34 92.9567 506.902C96.1769 509.371 99.6476 511.5 102.921 513.879C103.327 514.165 103.738 514.47 104.156 514.792L104.621 515.149H104.871C104.945 515.151 105.017 515.17 105.082 515.204C105.147 515.238 105.204 515.287 105.247 515.346C105.26 515.399 105.26 515.454 105.247 515.507C105.263 515.571 105.266 515.637 105.255 515.701C105.245 515.766 105.221 515.828 105.186 515.883C105.151 515.938 105.105 515.986 105.051 516.022C104.997 516.059 104.936 516.085 104.871 516.098Z" fill="#455A64"/>
<path d="M105.319 515.507C97.3754 515.364 88.8061 515.722 82.4373 510.337C79.5306 507.756 77.0438 504.738 75.0666 501.392C74.1542 499.889 71.4886 495.435 72.5441 493.663C74.6014 490.461 84.0653 503.539 85.3712 504.791C90.3387 509.288 96.3843 512.425 102.921 513.897C103.327 514.183 103.738 514.487 104.156 514.809C99.5114 513.861 95.0562 512.15 90.9708 509.747C85.3355 506.383 82.2047 501.41 77.7859 496.776C76.8377 495.774 73.9574 492.393 72.884 494.486C72.1684 495.882 74.8161 500.247 75.4065 501.177C77.2857 504.349 79.6317 507.22 82.3657 509.693C88.6988 515.221 97.2323 515.06 105.247 515.364C105.282 515.405 105.306 515.454 105.319 515.507Z" fill="white"/>
<path d="M109.845 521.608L109.63 522.663C109.622 522.707 109.603 522.747 109.575 522.782C109.546 522.816 109.51 522.843 109.469 522.86C109.381 522.893 109.283 522.893 109.194 522.86C109.106 522.828 109.032 522.764 108.986 522.681C108.969 522.645 108.96 522.605 108.96 522.565C108.96 522.524 108.969 522.485 108.986 522.448C108.986 522.448 108.986 522.359 108.986 522.305L109.094 522.001C109.094 522.001 109.094 522.001 109.094 521.894C107.501 515.919 106.875 509.693 105.194 503.717C103.512 497.742 101.616 492.411 100.417 486.579C99.6834 482.911 97.1251 464.467 105.247 466.757C108.825 467.794 111.312 473 112.689 476.113C114.473 480.311 115.485 484.795 115.677 489.352C116.25 500.587 112.135 510.838 109.845 521.608Z" fill="#455A64"/>
<path d="M112.457 498.655C112.617 494.44 112.177 490.223 111.151 486.132C110.793 484.719 109.022 477.938 106.732 478.099C105.247 478.189 104.943 481.123 104.943 482.089C104.424 486.203 105.748 490.39 106.553 494.379C108.14 502.502 109.132 510.729 109.523 518.996C109.523 519.515 109.38 520.051 109.326 520.57C109.272 521.089 109.201 521.429 109.147 521.876V522.323C109.147 522.431 109.147 522.538 109.147 522.663C109.189 522.746 109.259 522.81 109.344 522.846C109.429 522.882 109.524 522.887 109.612 522.86C109.612 522.52 109.72 522.18 109.755 521.84C109.755 522.127 109.755 522.395 109.755 522.663L109.916 521.805C109.925 521.739 109.925 521.673 109.916 521.608C109.916 521.143 109.916 520.678 109.916 520.23C111.19 513.095 112.038 505.891 112.457 498.655ZM109.702 517.261C109.487 512.43 109.004 507.618 108.324 502.823C107.77 498.959 107.054 495.131 106.231 491.32C105.706 489.176 105.359 486.992 105.194 484.79C105.194 483.126 105.372 476.901 108.575 480.747C110.883 483.556 111.455 489.513 111.723 492.93C112.001 496.745 111.929 500.578 111.509 504.38C111.061 508.691 110.346 512.985 109.702 517.261Z" fill="white"/>
<path d="M114.711 546.403C114.604 546.415 114.496 546.415 114.389 546.403C106.124 545.992 95.1036 546.761 88.2338 541.305C83.1709 537.262 78.1796 529.283 79.7718 522.52C81.5608 514.881 91.9192 524.041 94.6384 526.241C101.749 532.42 108.51 538.99 114.89 545.92L114.997 546.081C115.087 546.296 114.908 546.368 114.711 546.403Z" fill="#455A64"/>
<path d="M114.997 546.17L113.584 545.276C108.217 541.841 102.85 538.12 97.7691 534.291C96.481 533.308 87.1782 525.024 85.7649 527.976C84.9241 529.765 88.0012 533.343 88.9851 534.649C90.7451 536.852 92.8616 538.745 95.2466 540.249C100.757 543.684 107.448 544.435 113.673 546.081L114.55 546.296L114.711 546.403C114.908 546.367 115.069 546.296 114.997 546.17ZM98.6636 541.465C96.0237 540.269 93.6044 538.636 91.5076 536.635C90.1301 535.329 85.2282 530.374 86.5342 528.352C87.2319 527.261 87.8044 527.851 89.1103 528.495C89.7284 528.789 90.326 529.123 90.8993 529.497C92.2948 530.409 93.565 531.465 94.853 532.485C97.1251 534.274 99.415 536.063 101.776 537.852C105.605 540.642 109.559 543.219 113.602 545.795C108.61 544.185 103.387 543.523 98.6636 541.465Z" fill="white"/>
<path d="M129.792 529.39C127.631 538.852 122.705 547.458 115.641 554.114C115.596 554.157 115.541 554.188 115.48 554.203C115.401 554.227 115.316 554.225 115.238 554.196C115.16 554.167 115.095 554.113 115.051 554.042C114.992 553.979 114.959 553.896 114.959 553.81C114.959 553.723 114.992 553.64 115.051 553.577L115.462 553.148C116.84 541.913 118.343 530.749 119.488 519.479C119.774 516.831 121.849 499.943 127.037 502.68C130.24 504.379 130.454 511.303 130.723 514.416C131.184 519.425 130.87 524.476 129.792 529.39Z" fill="#455A64"/>
<path d="M126.805 514.326C126.536 513.378 126.035 512.412 125.016 513.074C122.994 514.344 122.189 522.287 121.867 524.488C120.472 533.54 118.289 542.253 116.142 551.126L115.605 553.38L115.087 554.042C115.13 554.113 115.196 554.167 115.274 554.196C115.352 554.225 115.437 554.228 115.516 554.203C115.508 554.126 115.508 554.048 115.516 553.971C115.731 553.684 115.981 553.38 116.178 553.076C119.718 548.219 122.482 542.842 124.372 537.136C125.553 533.526 126.356 529.803 126.769 526.026C127.216 522.538 127.86 517.725 126.805 514.326ZM116.214 552.468L115.91 552.915C115.999 552.611 116.088 552.325 116.178 552.003C118.312 545.251 120.004 538.366 121.241 531.393C121.849 527.815 122.225 524.237 123.03 520.767C123.352 519.282 124.067 515.024 125.302 514.344C126.536 513.664 126.518 515.31 126.644 516.259C126.769 517.207 126.644 518.191 126.644 518.835C126.809 530.866 123.158 542.641 116.214 552.468Z" fill="white"/>
<path d="M117.019 578.337H115.373C115.373 576.888 115.373 575.421 115.266 573.99C115.069 568.122 114.836 562.236 114.478 556.368C114.282 553.023 114.049 549.713 113.709 546.421C113.701 546.308 113.701 546.195 113.709 546.081C113.709 545.813 113.709 545.545 113.709 545.276C113.709 545.008 113.709 544.686 113.584 544.4C112.837 536.955 110.924 529.674 107.913 522.824C106.857 520.552 105.712 518.316 104.514 516.098L104.156 515.472C104.162 515.418 104.162 515.364 104.156 515.311C104.049 515.078 103.923 514.863 103.798 514.649C103.673 514.434 103.601 514.327 103.512 514.166C99.6834 507.439 95.3182 500.998 91.1677 494.486C89.975 492.626 88.7824 490.765 87.5897 488.905C87.5056 488.8 87.4336 488.686 87.375 488.565L87.1067 488.153C81.9007 479.942 76.7841 471.641 71.3634 463.573C71.1666 463.286 71.6497 463.018 71.8465 463.322C75.4245 468.689 79.2887 473.931 83.0277 479.226C83.5466 479.924 84.0296 480.64 84.5305 481.337C85.5323 482.733 86.5163 484.128 87.4824 485.524C89.4503 488.332 91.3824 491.123 93.2787 493.968C98.839 501.859 103.917 510.08 108.485 518.584C108.807 519.228 109.111 519.872 109.433 520.534C109.755 521.196 109.827 521.339 109.988 521.751L110.632 523.164C113.997 531.448 115.88 540.259 116.196 549.194L116.303 551.073C116.303 551.341 116.303 551.645 116.303 551.931C116.294 552.086 116.294 552.242 116.303 552.397C116.303 552.593 116.303 552.79 116.303 553.005C116.303 553.13 116.303 553.291 116.303 553.452C116.303 553.971 116.303 554.508 116.303 555.062C116.536 560.93 116.697 566.798 116.822 572.648C116.876 574.58 116.947 576.459 117.019 578.337Z" fill="#455A64"/>
<path d="M67.696 471.963C63.1877 465.88 57.3734 453.339 64.118 446.809C65.337 445.562 66.9696 444.803 68.709 444.674C70.4484 444.546 72.1749 445.057 73.5639 446.112C77.1419 448.652 78.6805 453.465 79.8075 457.454C82.8667 468.099 84.8883 478.922 88.7526 489.37C88.7526 489.37 89.0746 490.264 89.164 490.497C89.2535 490.73 88.8957 490.801 88.8062 490.586L88.4305 489.567C81.1135 484.486 73.063 479.226 67.696 471.963Z" fill="#455A64"/>
<path d="M635.078 489.012C634.327 495.059 633.182 501.016 631.966 506.902C631.268 510.265 630.534 513.629 629.855 517.028C629.103 520.749 628.066 524.542 629.014 528.281C629.03 528.453 629.03 528.627 629.014 528.799C628.961 528.86 628.893 528.906 628.817 528.933C628.741 528.96 628.659 528.966 628.579 528.952C628.5 528.938 628.426 528.903 628.364 528.851C628.302 528.799 628.255 528.732 628.227 528.656C628.237 528.573 628.237 528.489 628.227 528.406V528.316C627.678 527.33 627.24 526.286 626.921 525.204C625.762 522.352 624.765 519.437 623.933 516.473C622.18 510.425 621.194 504.18 620.999 497.885C620.849 492.249 621.451 486.618 622.788 481.14C623.861 476.757 625.4 470.227 628.656 466.828C631.626 463.805 634.023 468.617 634.935 471.122C636.706 476.883 635.776 483.323 635.078 489.012Z" fill="#455A64"/>
<path d="M629.676 476.221C627.475 476.221 625.883 483.377 625.096 486.4C623.872 491.237 623.241 496.206 623.217 501.195C623.247 510.132 624.79 519 627.779 527.422C627.887 527.762 627.994 528.12 628.119 528.46C628.129 528.543 628.129 528.627 628.119 528.71C628.145 528.789 628.191 528.858 628.254 528.912C628.317 528.966 628.393 529.001 628.474 529.014C628.556 529.027 628.639 529.017 628.716 528.986C628.792 528.954 628.858 528.902 628.906 528.835C628.763 528.102 628.656 527.368 628.566 526.635C628.477 525.901 628.423 525.293 628.37 524.631C628.072 517.358 628.528 510.074 629.729 502.895C630.91 494.594 632.592 476.239 629.676 476.221ZM628.101 526.17C628.209 527.136 628.37 528.102 628.549 529.068C628.316 528.352 628.101 527.655 627.887 526.957C625.465 519.426 624.069 511.603 623.736 503.7C623.593 499.265 623.916 494.828 624.702 490.461C625.152 488.112 625.75 485.794 626.491 483.52C626.795 482.572 628.387 476.632 629.747 476.918C630.695 477.133 630.928 482.482 630.946 482.59C630.946 483.663 630.946 484.736 630.946 485.828C630.946 488.028 630.767 490.247 630.588 492.447C630.159 497.224 629.479 501.982 628.906 506.759C627.875 513.175 627.605 519.69 628.101 526.17Z" fill="white"/>
<path d="M669.696 505.668C665.671 513.539 658.872 519.568 651.806 524.738C648.049 527.511 644.149 530.105 640.32 532.771C636.772 534.983 633.452 537.542 630.409 540.41L630.034 540.822C629.25 541.688 628.56 542.636 627.976 543.648C627.976 543.738 627.869 543.773 627.797 543.773C627.726 543.773 627.708 544.006 627.654 544.113C627.601 544.221 627.493 544.113 627.511 544.113C627.529 544.113 627.511 543.845 627.511 543.72C627.48 543.675 627.464 543.622 627.464 543.568C627.464 543.513 627.48 543.46 627.511 543.416V543.29V542.897C628.656 533.701 635.096 524.399 640.535 517.314C645.974 510.23 652.7 503.968 661.109 500.712C663.22 499.907 668.014 497.671 670.179 499.388C672.343 501.106 670.554 504.004 669.696 505.668Z" fill="#455A64"/>
<path d="M663.47 505.703C661.538 503.789 655.902 508.53 654.525 509.639C650.303 513.074 646.394 516.876 642.843 520.999C636.768 527.364 631.733 534.645 627.922 542.575L627.726 542.825C627.718 542.956 627.718 543.088 627.726 543.219C627.72 543.26 627.72 543.302 627.726 543.344C627.689 543.386 627.669 543.44 627.669 543.496C627.669 543.552 627.689 543.606 627.726 543.648L627.994 543.326C628.692 542.467 629.443 541.627 630.194 540.804L630.57 540.392C636.061 534.883 641.899 529.732 648.049 524.971C652.259 521.568 656.146 517.783 659.659 513.664C660.429 512.609 665.08 507.313 663.47 505.703ZM661.681 509.925C656.922 517.833 648.675 523.593 641.662 529.354C636.836 533.128 632.385 537.358 628.37 541.984C632.082 534.923 636.721 528.389 642.163 522.556C645.144 519.136 648.31 515.881 651.645 512.806C653.447 511.125 655.372 509.583 657.405 508.19C658.619 507.343 659.928 506.64 661.305 506.097C663.989 505.31 662.504 508.566 661.699 509.925H661.681Z" fill="white"/>
<path d="M626.742 562.397C626.7 562.469 626.64 562.528 626.568 562.569C626.495 562.61 626.413 562.631 626.33 562.629L626.437 562.773C626.463 562.799 626.477 562.834 626.477 562.871C626.477 562.908 626.463 562.943 626.437 562.969C626.426 562.984 626.411 562.996 626.394 563.005C626.377 563.013 626.358 563.017 626.339 563.017C626.32 563.017 626.302 563.013 626.284 563.005C626.267 562.996 626.252 562.984 626.241 562.969C618.781 555.384 611.589 546.153 607.868 536.134C606.269 531.895 605.369 527.424 605.202 522.896C605.202 519.801 604.969 513.557 607.617 511.303C612.984 506.759 617.815 526.009 618.53 528.907C619.854 534.274 620.731 539.641 621.947 544.9C623.271 550.715 625.042 556.422 626.777 562.129C626.801 562.219 626.788 562.316 626.742 562.397Z" fill="#455A64"/>
<path d="M626.742 562.397C626.438 561.914 626.169 561.413 625.901 560.912C621.385 552.842 618.145 544.122 616.294 535.061C615.482 530.478 614.285 525.972 612.716 521.59C612.269 520.534 610.927 516.419 609.138 518.495C608.226 519.586 608.995 527.35 609.353 529.354C610.253 533.92 611.707 538.36 613.682 542.575C616.91 549.678 621.015 556.35 625.901 562.433L626.33 562.969C626.355 562.943 626.369 562.908 626.369 562.871C626.369 562.834 626.355 562.799 626.33 562.773C626.286 562.732 626.25 562.683 626.223 562.629C626.323 562.653 626.428 562.644 626.522 562.602C626.616 562.56 626.693 562.488 626.742 562.397ZM616.008 545.849C613.843 541.768 612.122 537.468 610.873 533.021C610.389 531.257 610.012 529.465 609.746 527.654C609.521 526.228 609.401 524.787 609.388 523.343C609.388 519.765 609.693 518.924 610.283 518.799C610.873 518.674 611.16 519.103 612.197 521.214C612.825 522.584 613.322 524.009 613.682 525.472C614.237 527.547 614.702 529.64 615.167 531.733C616.061 535.92 616.956 540.142 618.137 544.256C619.853 550.164 622.344 555.818 625.543 561.073C621.914 556.277 618.695 551.184 615.918 545.849H616.008Z" fill="white"/>
<path d="M650.66 543.952C649.787 547.653 648.121 551.12 645.777 554.114C641.34 560.232 635.687 565.331 630.838 571.109C630.123 571.968 629.425 572.898 628.745 573.757C628.745 573.846 628.101 575.135 628.119 575.027C628.137 574.92 628.208 574.508 628.37 573.685C629.139 569.624 631.679 557.406 634.864 551.144C636.758 547.184 639.131 543.47 641.93 540.088C643.308 538.532 646.528 535.186 648.943 535.92C651.358 536.653 651.036 542.002 650.66 543.952Z" fill="#455A64"/>
<path d="M646.814 541.466C644.22 539.856 637.547 551.788 636.653 553.327C633.291 559.033 630.692 565.156 628.924 571.539C628.71 572.237 628.531 572.952 628.352 573.686C628.173 574.419 628.083 574.992 628.083 575.027C628.083 575.063 628.656 573.865 628.728 573.739L629.067 573.274C629.64 572.541 630.23 571.807 630.856 571.109C633.755 566.762 636.742 562.469 639.551 558.05C641.607 554.898 643.402 551.583 644.918 548.139C645.276 547.351 647.852 542.163 646.814 541.466ZM646.081 544.829C642.396 555.205 634.864 563.399 629.121 572.612L628.853 573.06C628.853 572.791 628.996 572.505 629.085 572.237C630.635 567.007 632.672 561.934 635.168 557.084C636.71 554.14 638.424 551.291 640.302 548.55C641.266 547.003 642.329 545.521 643.487 544.113C644.024 543.523 645.562 541.967 646.081 542.235C646.6 542.503 646.224 544.149 645.991 544.829H646.081Z" fill="white"/>
<path d="M676.691 458.277C668.98 475.97 648.782 484.199 640.016 501.213C639.748 501.732 639.497 502.268 639.247 502.805C639.224 502.859 639.189 502.906 639.143 502.942C639.097 502.977 639.043 503.001 638.986 503.01C638.928 503.019 638.87 503.013 638.815 502.993C638.761 502.973 638.712 502.939 638.674 502.895C638.643 502.854 638.625 502.803 638.625 502.751C638.625 502.7 638.643 502.649 638.674 502.608C638.727 502.474 638.786 502.342 638.853 502.215C640.553 491.334 644.189 480.846 649.587 471.247C654.024 463.107 660.071 455.468 668.461 451.174C670.537 450.119 674.562 447.883 676.888 449.636C679.213 451.389 677.639 456.094 676.691 458.277Z" fill="#455A64"/>
<path d="M669.749 459.046C668.765 458.313 667.281 459.189 666.44 459.619C664.342 460.716 662.384 462.062 660.608 463.626C656.965 466.831 653.823 470.564 651.287 474.7C646.728 481.659 643.039 489.152 640.302 497.009C639.73 498.798 639.211 500.587 638.782 502.376C638.782 502.59 638.692 502.823 638.621 503.038C638.66 503.082 638.71 503.115 638.766 503.135C638.822 503.155 638.881 503.161 638.94 503.152C638.998 503.143 639.054 503.12 639.101 503.084C639.148 503.049 639.186 503.002 639.211 502.948C639.444 502.429 639.694 501.928 639.945 501.41V501.267C641.441 497.738 643.281 494.364 645.437 491.194C648.983 486.398 652.831 481.833 656.958 477.526C658.604 475.755 673.148 461.515 669.749 459.046ZM668.515 463.125C666.189 467.293 662.558 470.675 659.391 474.217C656.224 477.759 652.951 481.373 649.82 484.951C647.315 487.825 645.058 490.907 643.075 494.164C641.419 496.869 640.011 499.72 638.871 502.68C639.676 499.665 640.68 496.707 641.877 493.824V493.735C644.049 488.619 646.546 483.647 649.355 478.85L649.444 478.671C651.794 474.378 654.653 470.383 657.96 466.775C659.786 464.84 661.82 463.112 664.025 461.622C666.565 459.976 668.783 458.921 669.392 459.726C670 460.531 669.213 461.908 668.515 463.125Z" fill="white"/>
<path d="M649.802 479.011C647.476 484.003 645.276 489.048 643.075 494.129C642.056 496.508 641.018 498.887 640.016 501.285V501.428C639.658 502.286 639.283 503.217 638.907 504.004C635.579 511.768 631.912 519.711 629.873 527.941C628.868 532.307 628.269 536.757 628.084 541.233C628.084 541.68 628.084 542.145 628.084 542.611C628.084 542.861 628.084 543.111 628.084 543.362C628.075 543.505 628.075 543.648 628.084 543.791C627.958 547.673 628.084 551.556 628.084 555.348C628.173 560.626 628.62 565.868 629.121 571.091C629.105 571.246 629.105 571.402 629.121 571.557C629.121 571.789 629.121 572.022 629.121 572.254C629.121 572.487 629.121 572.505 629.121 572.63V573.292C629.3 574.974 629.443 576.655 629.586 578.355H627.976C626.947 573.215 626.295 568.007 626.026 562.773C626.016 562.666 626.016 562.558 626.026 562.451C626.026 561.95 626.026 561.431 626.026 560.93C626.026 560.429 626.026 559.678 625.937 559.051C625.937 557.549 625.847 556.046 625.811 554.561C625.377 545.826 625.978 537.071 627.601 528.477C627.601 528.245 627.726 528.012 627.779 527.78C627.771 527.679 627.771 527.577 627.779 527.476C627.779 527.315 627.779 527.154 627.887 526.975L628.101 526.187C628.227 525.704 628.37 525.221 628.495 524.756L628.62 524.345C631.104 516.991 634.092 509.818 637.565 502.877C638.156 501.589 638.728 500.336 639.354 499.084C639.694 498.368 640.034 497.671 640.356 496.973L641.93 493.807V493.717C644.399 488.744 646.958 483.824 649.408 478.833C649.516 478.6 649.909 478.779 649.802 479.011Z" fill="#455A64"/>
<path d="M0 577.854L91.9369 577.425L183.874 577.264L367.73 576.959L551.586 577.264L643.522 577.407L735.459 577.854L643.522 578.301L551.586 578.444L367.73 578.748L183.874 578.444L91.9369 578.283L0 577.854Z" fill="#263238"/>
<path d="M523.874 1.74097H211.55C207.361 1.78072 203.221 2.6452 199.366 4.28505C195.511 5.92491 192.017 8.30801 189.083 11.2983C186.149 14.2886 183.833 17.8274 182.267 21.7129C180.701 25.5983 179.916 29.7541 179.956 33.943V676.911C179.88 685.37 183.164 693.512 189.088 699.551C195.012 705.589 203.091 709.028 211.55 709.113H523.874C532.337 709.033 540.422 705.596 546.353 699.558C552.284 693.52 555.575 685.374 555.503 676.911V33.9251C555.575 25.4635 552.283 17.3199 546.352 11.2846C540.421 5.24934 532.335 1.81656 523.874 1.74097ZM535.753 657.035C535.753 673.959 523.087 687.645 507.451 687.645H228.026C212.355 687.645 199.689 673.959 199.689 657.035V58.2914C199.689 23.8173 212.355 22.1356 228.026 22.1356H283.986C287.242 22.1356 289.908 25.8389 289.908 30.4187V32.4045C289.908 43.1385 295.776 43.1385 303.003 43.1385H432.438C439.719 43.1385 445.533 43.1385 445.533 32.4045V30.4187C445.533 25.8389 448.163 22.1356 451.473 22.1356H507.451C523.087 22.1356 535.753 26.7333 535.753 58.2914V657.035Z" fill="#263238"/>
<path d="M385.369 29.757H350.072C349.785 29.7594 349.5 29.7046 349.234 29.5957C348.968 29.4869 348.727 29.3262 348.524 29.1231C348.32 28.9199 348.16 28.6784 348.051 28.4125C347.942 28.1466 347.887 27.8617 347.89 27.5744C347.89 26.9956 348.12 26.4404 348.529 26.0311C348.938 25.6218 349.493 25.3918 350.072 25.3918H385.369C385.948 25.3918 386.503 25.6218 386.913 26.0311C387.322 26.4404 387.552 26.9956 387.552 27.5744C387.554 27.8617 387.499 28.1466 387.391 28.4125C387.282 28.6784 387.121 28.9199 386.918 29.1231C386.715 29.3262 386.473 29.4869 386.207 29.5957C385.941 29.7046 385.657 29.7594 385.369 29.757Z" fill="white"/>
<path d="M535.771 58.2915V657.035C535.771 673.959 523.087 687.645 507.451 687.645H228.026C212.355 687.645 199.689 673.959 199.689 657.035V58.2915C199.689 23.8174 212.355 22.1357 228.026 22.1357H283.986C287.242 22.1357 289.908 25.839 289.908 30.4188V32.4046C289.908 43.1387 295.776 43.1387 303.004 43.1387H432.438C439.719 43.1387 445.551 43.1387 445.551 32.4046V30.4188C445.551 25.839 448.163 22.1357 451.473 22.1357H507.451C523.087 22.1357 535.771 26.7335 535.771 58.2915Z" fill="white"/>
<path d="M535.753 58.2915V71.0829H199.671V58.2915C199.671 23.8174 212.355 22.1357 228.026 22.1357H284.004C287.26 22.1357 289.908 25.839 289.908 30.4188V32.4046C289.908 43.1387 295.794 43.1387 303.004 43.1387H432.438C439.719 43.1387 445.551 43.1387 445.551 32.4046V30.4188C445.551 25.839 448.181 22.1357 451.491 22.1357H507.451C523.087 22.1357 535.753 26.7335 535.753 58.2915Z" fill="#FFC727"/>
<path d="M274.344 35.5891L273.789 36.1258C273.697 36.2359 273.595 36.3377 273.485 36.43C272.104 35.0486 270.232 34.2703 268.279 34.2653C267.306 34.2598 266.343 34.4502 265.445 34.8252C264.548 35.2002 263.735 35.752 263.055 36.4478C262.969 36.338 262.873 36.2362 262.769 36.1437L262.232 35.607C262.447 35.3923 262.68 35.1955 262.912 34.9987C263.396 34.5996 263.924 34.2574 264.486 33.979C265.148 33.6484 265.852 33.4135 266.58 33.2813C266.937 33.2813 267.277 33.1919 267.635 33.1382H268.547H269.263C269.924 33.2125 270.573 33.3687 271.195 33.6033C271.641 33.7696 272.072 33.9731 272.483 34.2116C272.929 34.4603 273.349 34.7541 273.736 35.0882L274.308 35.5891H274.344Z" fill="white"/>
<path d="M264.773 38.1295L263.968 37.235C264.538 36.6627 265.215 36.2086 265.961 35.8988C266.707 35.5889 267.507 35.4294 268.315 35.4294C269.123 35.4294 269.923 35.5889 270.669 35.8988C271.415 36.2086 272.092 36.6627 272.662 37.235L271.803 38.0937C271.336 37.6226 270.778 37.2512 270.163 37.0021C269.548 36.753 268.889 36.6314 268.225 36.6446C266.925 36.6689 265.685 37.202 264.773 38.1295Z" fill="white"/>
<path d="M270.927 39.0243L270.068 39.8651C269.591 39.396 268.948 39.1327 268.279 39.1316C267.946 39.1295 267.615 39.195 267.308 39.3242C267 39.4533 266.722 39.6434 266.49 39.883L265.631 39.0243C265.979 38.6759 266.391 38.3995 266.846 38.211C267.3 38.0224 267.787 37.9253 268.279 37.9253C268.771 37.9253 269.258 38.0224 269.712 38.211C270.167 38.3995 270.579 38.6759 270.927 39.0243Z" fill="white"/>
<path d="M269.048 40.616C269.048 40.82 268.967 41.0156 268.823 41.1599C268.679 41.3042 268.483 41.3852 268.279 41.3852C268.075 41.3852 267.879 41.3042 267.735 41.1599C267.591 41.0156 267.51 40.82 267.51 40.616C267.51 40.4119 267.591 40.2163 267.735 40.072C267.879 39.9277 268.075 39.8467 268.279 39.8467C268.483 39.8467 268.679 39.9277 268.823 40.072C268.967 40.2163 269.048 40.4119 269.048 40.616Z" fill="white"/>
<path d="M223.822 39.4353C225.047 39.4353 226.041 38.4421 226.041 37.2169C226.041 35.9917 225.047 34.9985 223.822 34.9985C222.597 34.9985 221.604 35.9917 221.604 37.2169C221.604 38.4421 222.597 39.4353 223.822 39.4353Z" fill="white"/>
<path d="M228.617 37.235C228.617 36.7919 228.748 36.3589 228.995 35.9907C229.241 35.6226 229.592 35.336 230.001 35.1673C230.411 34.9986 230.862 34.9553 231.296 35.0431C231.73 35.1308 232.129 35.3456 232.441 35.6601C232.753 35.9747 232.964 36.3748 233.048 36.8098C233.133 37.2447 233.086 37.6949 232.914 38.1032C232.742 38.5115 232.452 38.8595 232.082 39.1031C231.712 39.3466 231.278 39.4748 230.835 39.4712C230.245 39.4665 229.681 39.2288 229.265 38.8099C228.85 38.3911 228.617 37.825 228.617 37.235Z" fill="white"/>
<path d="M237.866 39.4353C239.091 39.4353 240.084 38.4421 240.084 37.2169C240.084 35.9917 239.091 34.9985 237.866 34.9985C236.641 34.9985 235.648 35.9917 235.648 37.2169C235.648 38.4421 236.641 39.4353 237.866 39.4353Z" fill="white"/>
<path d="M242.643 37.2348C242.643 36.7925 242.774 36.3601 243.019 35.9924C243.265 35.6246 243.614 35.338 244.023 35.1688C244.432 34.9995 244.881 34.9552 245.315 35.0415C245.749 35.1278 246.147 35.3408 246.46 35.6535C246.773 35.9663 246.986 36.3647 247.072 36.7985C247.158 37.2323 247.114 37.6819 246.945 38.0906C246.776 38.4992 246.489 38.8484 246.121 39.0942C245.754 39.3399 245.321 39.471 244.879 39.471C244.286 39.471 243.717 39.2354 243.298 38.8161C242.878 38.3967 242.643 37.8279 242.643 37.2348Z" fill="white"/>
<path d="M249.656 37.2348C249.656 36.7925 249.787 36.3601 250.032 35.9924C250.278 35.6246 250.627 35.338 251.036 35.1688C251.445 34.9995 251.894 34.9552 252.328 35.0415C252.762 35.1278 253.16 35.3408 253.473 35.6535C253.786 35.9663 253.999 36.3647 254.085 36.7985C254.171 37.2323 254.127 37.6819 253.958 38.0906C253.789 38.4992 253.502 38.8484 253.134 39.0942C252.766 39.3399 252.334 39.471 251.892 39.471C251.299 39.471 250.73 39.2354 250.311 38.8161C249.891 38.3967 249.656 37.8279 249.656 37.2348Z" fill="white"/>
<path d="M510.528 42.0655H492.423V33.6572H510.528V42.0655ZM493.318 41.171H509.633V34.6054H493.318V41.171Z" fill="white"/>
<path d="M505.608 35.106H493.926V40.6519H505.608V35.106Z" fill="white"/>
<path d="M512.174 35.6428H510.564V40.1332H512.174V35.6428Z" fill="white"/>
<path d="M250.747 623.688H248.206V635.424H243.43V629.449H234.968V635.424H230.191V623.688H227.633L239.19 611.738L250.747 623.688Z" fill="#EBEBEB"/>
<path d="M507.844 611.738H479.99V615.727H507.844V611.738Z" fill="#EBEBEB"/>
<path d="M507.844 621.595H479.99V625.585H507.844V621.595Z" fill="#EBEBEB"/>
<path d="M507.844 631.435H479.99V635.424H507.844V631.435Z" fill="#EBEBEB"/>
<path d="M250.21 134.378C248.553 135.416 246.741 136.183 244.843 136.65C240.259 137.794 235.413 137.167 231.271 134.894C227.13 132.621 223.997 128.87 222.5 124.39C221.003 119.909 221.251 115.028 223.194 110.722C225.137 106.416 228.633 103.002 232.983 101.16C237.334 99.3181 242.219 99.185 246.663 100.787C251.107 102.389 254.784 105.608 256.959 109.802C259.134 113.996 259.647 118.856 258.396 123.411C257.145 127.967 254.222 131.883 250.21 134.378Z" fill="#DBDBDB"/>
<path d="M246.077 116.291C246.077 117.419 245.743 118.522 245.117 119.46C244.491 120.398 243.6 121.129 242.559 121.562C241.517 121.994 240.37 122.108 239.264 121.89C238.157 121.671 237.14 121.129 236.341 120.333C235.543 119.537 234.998 118.521 234.775 117.415C234.553 116.31 234.664 115.163 235.093 114.12C235.522 113.076 236.251 112.184 237.187 111.555C238.123 110.925 239.225 110.588 240.353 110.584C241.104 110.582 241.848 110.728 242.542 111.014C243.237 111.299 243.868 111.719 244.4 112.249C244.931 112.78 245.353 113.41 245.641 114.103C245.929 114.797 246.077 115.54 246.077 116.291Z" fill="white"/>
<path d="M250.21 132.052V134.396C248.553 135.433 246.741 136.2 244.843 136.668C242.426 137.262 239.915 137.367 237.458 136.976C235 136.586 232.645 135.709 230.531 134.396V132.052C230.45 130.71 230.644 129.366 231.102 128.101C231.56 126.837 232.272 125.68 233.193 124.701C234.115 123.722 235.227 122.942 236.461 122.409C237.696 121.876 239.026 121.601 240.37 121.601C241.715 121.601 243.045 121.876 244.279 122.409C245.514 122.942 246.626 123.722 247.548 124.701C248.469 125.68 249.181 126.837 249.639 128.101C250.097 129.366 250.291 130.71 250.21 132.052Z" fill="white"/>
<path d="M401.81 100.762H282.609V110.584H401.81V100.762Z" fill="#EBEBEB"/>
<path d="M386.657 117.15H282.609V123.662H386.657V117.15Z" fill="#EBEBEB"/>
<path d="M454.639 129.691H282.609V136.203H454.639V129.691Z" fill="#EBEBEB"/>
<path d="M199.689 388.041L535.717 388.041V152.733L199.689 152.733L199.689 388.041Z" fill="#EBEBEB"/>
<path d="M238.921 219.606C238.921 225.112 240.554 230.494 243.613 235.072C246.672 239.649 251.019 243.217 256.106 245.324C261.192 247.431 266.789 247.982 272.189 246.908C277.589 245.834 282.549 243.183 286.442 239.29C290.335 235.397 292.986 230.437 294.06 225.037C295.134 219.637 294.583 214.04 292.476 208.953C290.369 203.867 286.801 199.519 282.224 196.461C277.646 193.402 272.264 191.769 266.758 191.769C259.377 191.774 252.299 194.708 247.08 199.928C241.861 205.147 238.926 212.225 238.921 219.606Z" fill="#DBDBDB"/>
<path d="M348.891 336.839H535.771L442.331 210.196L348.891 336.839Z" fill="#C7C7C7"/>
<path d="M275.65 337.447H429.915L352.791 254.974L275.65 337.447Z" fill="#DBDBDB"/>
<path d="M535.717 337.34H199.689V388.041H535.717V337.34Z" fill="#DBDBDB"/>
<path d="M250.21 512.126C248.548 513.151 246.738 513.911 244.843 514.38C240.269 515.506 235.439 514.867 231.317 512.588C227.194 510.31 224.082 506.56 222.603 502.088C221.123 497.617 221.384 492.751 223.334 488.463C225.284 484.176 228.779 480.781 233.122 478.957C237.465 477.133 242.336 477.014 246.763 478.623C251.189 480.233 254.846 483.453 257.004 487.64C259.161 491.827 259.659 496.674 258.4 501.213C257.141 505.752 254.216 509.649 250.21 512.126Z" fill="#DBDBDB"/>
<path d="M246.077 494.022C246.077 495.15 245.743 496.254 245.116 497.192C244.489 498.131 243.597 498.862 242.555 499.294C241.512 499.726 240.364 499.839 239.257 499.619C238.15 499.399 237.133 498.855 236.335 498.057C235.537 497.259 234.993 496.242 234.773 495.135C234.553 494.028 234.666 492.88 235.098 491.838C235.53 490.795 236.261 489.904 237.2 489.276C238.138 488.649 239.242 488.315 240.371 488.315C241.884 488.315 243.336 488.916 244.406 489.986C245.476 491.056 246.077 492.508 246.077 494.022Z" fill="white"/>
<path d="M250.21 509.765V512.126C248.548 513.151 246.738 513.911 244.843 514.38C242.427 514.978 239.915 515.085 237.457 514.695C234.998 514.305 232.643 513.425 230.531 512.108V509.765C230.45 508.422 230.644 507.078 231.102 505.814C231.56 504.55 232.272 503.393 233.193 502.414C234.115 501.435 235.227 500.655 236.461 500.122C237.696 499.589 239.026 499.313 240.37 499.313C241.715 499.313 243.045 499.589 244.279 500.122C245.514 500.655 246.626 501.435 247.548 502.414C248.469 503.393 249.181 504.55 249.639 505.814C250.097 507.078 250.291 508.422 250.21 509.765Z" fill="white"/>
<path d="M435.909 478.493H282.609V488.315H435.909V478.493Z" fill="#EBEBEB"/>
<path d="M478.308 494.88H282.609V501.392H478.308V494.88Z" fill="#EBEBEB"/>
<path d="M349.267 507.421H282.609V513.933H349.267V507.421Z" fill="#EBEBEB"/>
<path d="M535.717 530.463H199.689V587.944H535.717V530.463Z" fill="#EBEBEB"/>
<path d="M292.985 587.944H240.603C242.536 582.546 246.089 577.876 250.778 574.575C255.466 571.274 261.06 569.502 266.794 569.502C272.528 569.502 278.122 571.274 282.81 574.575C287.499 577.876 291.052 582.546 292.985 587.944Z" fill="#DBDBDB"/>
<path d="M222.266 415.609C221.744 413.471 221.868 411.225 222.623 409.157C223.377 407.089 224.728 405.291 226.505 403.991C228.281 402.691 230.404 401.947 232.603 401.854C234.802 401.76 236.98 402.321 238.861 403.465C240.741 404.61 242.24 406.286 243.168 408.283C244.095 410.279 244.41 412.506 244.072 414.681C243.733 416.856 242.758 418.882 241.268 420.503C239.778 422.123 237.84 423.266 235.701 423.785C234.282 424.132 232.809 424.195 231.365 423.972C229.921 423.749 228.536 423.243 227.288 422.484C226.04 421.724 224.954 420.726 224.092 419.547C223.23 418.367 222.61 417.029 222.266 415.609Z" fill="#EBEBEB"/>
<path fill-rule="evenodd" clip-rule="evenodd" d="M231.551 417.398C231.265 417.219 230.996 416.951 230.603 416.987C230.209 417.022 230.495 416.879 230.495 416.79V412.353C230.485 412.301 230.491 412.247 230.514 412.198C230.537 412.15 230.574 412.11 230.621 412.085C231.748 411.512 232.231 410.403 232.928 409.437C233.284 408.96 233.54 408.417 233.681 407.839C233.823 407.261 233.847 406.661 233.751 406.074C233.751 405.752 233.859 405.591 234.163 405.519C234.313 405.469 234.476 405.469 234.627 405.517C234.778 405.565 234.91 405.66 235.004 405.787C235.33 406.395 235.547 407.055 235.648 407.737C235.644 408.298 235.578 408.856 235.451 409.401C235.451 409.813 235.29 410.206 235.218 410.618C235.326 410.618 235.433 410.618 235.54 410.618H239.297C239.816 410.618 240.084 410.779 240.156 411.119C240.197 411.336 240.165 411.561 240.065 411.759C239.964 411.956 239.801 412.115 239.601 412.21C239.601 412.21 239.351 412.21 239.333 412.353C239.315 412.496 239.494 412.496 239.583 412.55C240.031 412.872 239.959 413.498 239.422 413.874C239.297 413.963 239.065 413.874 239.047 414.106C239.029 414.339 239.279 414.249 239.387 414.357C239.468 414.461 239.523 414.584 239.548 414.714C239.574 414.844 239.567 414.978 239.531 415.105C239.494 415.233 239.428 415.349 239.338 415.446C239.247 415.543 239.135 415.617 239.011 415.663L238.796 415.752C238.796 415.752 238.671 415.752 238.796 415.931C238.916 415.993 239.017 416.086 239.088 416.201C239.158 416.317 239.196 416.449 239.196 416.584C239.196 416.719 239.158 416.852 239.088 416.967C239.017 417.082 238.916 417.176 238.796 417.237L238.635 417.362C238.436 417.481 238.204 417.532 237.973 417.505H232.087C231.995 417.526 231.9 417.527 231.808 417.508C231.715 417.49 231.628 417.452 231.551 417.398Z" fill="white"/>
<path fill-rule="evenodd" clip-rule="evenodd" d="M225.969 414.715V411.888C225.969 411.692 225.969 411.602 226.22 411.602H229.672C229.887 411.602 229.923 411.692 229.923 411.888V417.559C229.923 417.81 229.923 417.881 229.619 417.881H226.273C226.005 417.881 225.969 417.774 225.969 417.542C225.987 416.665 225.969 415.735 225.969 414.715Z" fill="white"/>
<path d="M245.63 415.609C245.108 413.471 245.232 411.225 245.987 409.157C246.742 407.089 248.093 405.291 249.869 403.991C251.646 402.691 253.768 401.947 255.967 401.854C258.167 401.76 260.345 402.321 262.225 403.465C264.106 404.61 265.605 406.286 266.532 408.283C267.46 410.279 267.774 412.506 267.436 414.681C267.098 416.856 266.122 418.882 264.632 420.503C263.142 422.123 261.205 423.266 259.065 423.785C257.646 424.132 256.173 424.195 254.729 423.972C253.286 423.749 251.9 423.243 250.652 422.484C249.404 421.724 248.318 420.726 247.456 419.547C246.595 418.367 245.974 417.029 245.63 415.609Z" fill="#FFC727"/>
<path d="M262.178 414.357C260.827 416.641 258.862 418.5 256.507 419.724C254.146 418.503 252.174 416.644 250.818 414.357C249.423 411.53 250.317 408.489 252.518 407.809C255.684 406.861 256.507 412.371 256.507 412.371C256.507 412.371 257.312 406.861 260.479 407.809C262.626 408.489 263.502 411.53 262.178 414.357Z" fill="white"/>
<path d="M442.331 411.513H284.451V417.935H442.331V411.513Z" fill="#EBEBEB"/>
<path d="M199.689 449.869L241.694 449.547L283.7 449.422L367.712 449.189L451.706 449.422L493.711 449.529L535.717 449.869L493.711 450.191L451.706 450.316L367.712 450.531L283.7 450.316L241.694 450.191L199.689 449.869Z" fill="#EBEBEB"/>
<path d="M81.829 237.353H454.085V74.9114H81.829V237.353Z" fill="#38708B"/>
<path d="M501.994 237.353H454.085V187.458L501.994 237.353Z" fill="#38708B"/>
<path d="M424.459 102.999H111.473V106.094H424.459V102.999Z" fill="white"/>
<path d="M329.391 119.654H111.473V122.749H329.391V119.654Z" fill="white"/>
<path d="M386.8 153.001H111.473V156.096H386.8V153.001Z" fill="white"/>
<path d="M424.459 169.675H111.473V172.77H424.459V169.675Z" fill="white"/>
<path d="M424.459 186.33H111.473V189.425H424.459V186.33Z" fill="white"/>
<path d="M297.583 203.004H111.473V206.099H297.583V203.004Z" fill="white"/>
<path d="M81.829 622.132H454.085V511.518H81.829V622.132Z" fill="#FFC727"/>
<path d="M501.994 622.132H454.085V572.254L501.994 622.132Z" fill="#FFC727"/>
<path d="M386.8 537.798H111.473V540.893H386.8V537.798Z" fill="white"/>
<path d="M424.459 554.454H111.473V557.549H424.459V554.454Z" fill="white"/>
<path d="M424.459 571.127H111.473V574.222H424.459V571.127Z" fill="white"/>
<path d="M297.583 587.801H111.473V590.896H297.583V587.801Z" fill="white"/>
<path d="M653.63 271.988H281.374V415.251H653.63V271.988Z" fill="#DBDBDB"/>
<path d="M233.465 415.251H281.374V365.356L233.465 415.251Z" fill="#DBDBDB"/>
<path d="M599.119 346.786H311.609V349.881H599.119V346.786Z" fill="white"/>
<path d="M563.894 363.46H311.609V366.555H563.894V363.46Z" fill="white"/>
<path d="M574.163 313.439H311.609V316.534H574.163V313.439Z" fill="white"/>
<path d="M618.906 296.783H311.609V299.878H618.906V296.783Z" fill="white"/>
<path d="M578.009 380.115H311.609V383.21H578.009V380.115Z" fill="white"/>
<path d="M579.655 132.732C591.122 129.243 597.116 121.515 596.597 110.548C589.441 108.544 582.392 102.569 582.392 93.5882V91.6024C582.307 89.363 582.689 87.1304 583.516 85.0475C584.343 82.9645 585.595 81.0771 587.193 79.506C588.791 77.9349 590.7 76.7147 592.797 75.9234C594.893 75.1322 597.132 74.7874 599.37 74.911C610.318 74.911 617.26 83.373 617.26 96.8263V99.3309C617.26 116.273 612.787 127.955 604.737 135.719C598.243 142.446 588.528 146.453 581.283 146.453C576.059 146.453 573.572 143.466 573.572 139.476C573.68 135.97 576.166 133.716 579.655 132.732ZM521.834 132.732C533.302 129.243 539.277 121.515 538.776 110.548C531.62 108.544 524.572 102.569 524.572 93.5882V91.6024C524.486 89.3662 524.868 87.1368 525.693 85.0564C526.517 82.976 527.767 81.0904 529.361 79.5198C530.955 77.9493 532.859 76.7283 534.951 75.9347C537.044 75.1412 539.279 74.7925 541.513 74.911C552.498 74.911 559.403 83.373 559.403 96.8263V99.3309C559.403 116.273 554.913 127.955 547.185 135.719C540.44 142.446 530.726 146.453 523.749 146.453C518.507 146.453 515.77 143.466 515.77 139.476C515.841 135.97 518.328 133.716 521.834 132.732Z" fill="#38708B"/>
<path d="M283.933 493.431L284.022 493.753C284.756 496.58 290.105 517.582 297.136 545.312C297.654 547.316 298.191 549.355 298.728 551.448C310.446 597.551 326.082 658.932 333.47 688.021H349.41C349.41 688.361 349.41 688.719 349.41 689.059C349.428 688.713 349.428 688.367 349.41 688.021H466.304C454.264 641.149 423.743 518.423 418.341 496.741C418.233 496.311 418.126 495.9 418.054 495.56L417.518 493.431H283.933Z" fill="#AD6359"/>
<path d="M283.933 493.431L284.022 493.753L296.17 547.101L297.619 553.434L328.372 688.075H349.375C349.375 688.414 349.375 688.772 349.375 689.112C349.392 688.767 349.392 688.42 349.375 688.075H466.984L418.359 496.794L418.072 495.613L417.536 493.485L283.933 493.431Z" fill="#773344"/>
<path d="M417.589 493.699L366.424 688.075H349.428C349.446 688.247 349.446 688.421 349.428 688.593C349.437 688.421 349.437 688.247 349.428 688.075H328.372L297.619 553.488L296.17 547.101L283.986 493.753L283.897 493.431H417.5L417.589 493.699Z" fill="#481620"/>
<path d="M413.206 493.431C413.206 493.52 413.206 493.753 413.206 494.11C413.206 494.468 413.206 495.309 413.063 496.221C412.956 497.563 412.831 499.37 412.634 501.588C412.622 501.636 412.622 501.685 412.634 501.732C412.55 502.853 412.443 504.087 412.312 505.435C412.097 507.689 411.864 510.194 411.596 512.949C411.507 513.861 411.399 514.827 411.292 515.811C411.282 515.954 411.282 516.097 411.292 516.24C411.292 516.813 411.149 517.385 411.095 518.029C411.041 518.673 410.916 519.604 410.809 520.409C410.702 521.214 410.594 522.377 410.469 523.379C410.236 525.382 409.986 527.457 409.736 529.569L409.467 531.626C409.091 534.578 408.662 537.601 408.233 540.714C408.036 542.056 407.821 543.398 407.642 544.757C407.464 546.117 407.159 547.816 406.927 549.355C406.927 549.909 406.766 550.482 406.676 551.037C405.764 556.708 404.744 562.611 403.599 568.569C403.438 569.481 403.241 570.358 403.045 571.234C402.579 573.632 402.097 576.029 401.578 578.39C401.327 579.625 401.041 580.877 400.773 582.112C400.504 583.346 400.325 584.205 400.057 585.242C398.876 590.466 397.57 595.672 396.139 600.771C395.835 601.88 395.513 602.989 395.209 604.098C394.905 605.208 394.511 606.496 394.153 607.676C393.652 609.465 393.134 611.165 392.579 612.865C392.024 614.564 391.631 615.745 391.148 617.158C391.005 617.623 390.826 618.088 390.665 618.536C390.504 618.983 390.361 619.43 390.182 619.877L390.003 619.967L389.573 620.11L389.108 620.289C388.937 620.342 388.769 620.408 388.607 620.486C387.713 620.826 386.407 621.327 384.743 622.042L383.079 622.74C382.167 623.151 381.147 623.563 380.056 624.082L378.625 624.743L378.321 624.887L376.961 625.531L374.009 626.944C371.97 627.946 369.751 629.055 367.39 630.289C366.209 630.88 364.993 631.524 363.812 632.204L361.88 633.259C359.948 634.315 357.926 635.46 355.815 636.676L354.402 637.517C354.402 637.517 354.402 637.517 354.294 637.517H354.187L352.666 638.394L351.539 639.056C351.539 639.056 351.539 639.324 351.539 639.825C351.52 639.997 351.52 640.171 351.539 640.344C351.529 640.528 351.529 640.713 351.539 640.898C351.539 641.381 351.539 641.99 351.539 642.687C351.539 643.385 351.539 643.546 351.539 644.047C351.539 644.816 351.539 645.639 351.432 646.569C351.432 646.838 351.432 647.124 351.432 647.392C351.423 647.571 351.423 647.75 351.432 647.929C351.432 648.627 351.432 649.378 351.432 650.165C351.432 650.344 351.432 650.523 351.432 650.702C351.432 650.881 351.432 651.328 351.432 651.632V651.901C351.432 652.187 351.432 652.491 351.432 652.795C351.432 653.475 351.432 654.173 351.432 654.906C351.432 656.445 351.307 658.037 351.235 659.736C351.235 660.148 351.235 660.559 351.235 660.953C351.235 661.919 351.235 662.885 351.235 663.887C351.235 664.889 351.235 665.801 351.11 666.785C350.985 667.769 351.11 668.431 351.003 669.254C350.895 670.077 351.003 670.488 351.003 671.043C351.003 672.009 351.003 672.957 350.877 673.941C350.77 676.553 350.663 679.183 350.573 681.795C350.573 683.763 350.43 685.784 350.341 687.86H216.022C216.416 682.695 216.815 677.531 217.221 672.367C217.668 666.606 218.115 660.864 218.509 655.174C218.527 654.835 218.527 654.494 218.509 654.155C220.298 631.917 221.908 610.414 223.447 590.735C224.019 583.245 224.58 576.047 225.128 569.141C225.128 567.978 225.289 566.816 225.397 565.653C225.629 562.54 225.898 559.463 226.112 556.457C226.524 551.359 226.917 546.492 227.257 541.913C227.364 540.625 227.472 539.336 227.579 538.102C228.277 529.05 228.903 521.089 229.368 514.469C229.368 513.235 229.547 512.036 229.619 510.891C230.531 499.656 231.032 493.252 231.032 493.252H311.34L413.206 493.431Z" fill="#AD6359"/>
<path d="M209.85 688.074H349.392C349.392 686.089 349.553 684.049 349.643 682.01C349.643 679.398 349.84 676.768 349.947 674.156C350.108 669.666 350.287 665.211 350.448 661.096C350.448 660.703 350.448 660.291 350.448 659.88C350.555 657.071 350.645 654.423 350.752 652.044V651.776C350.752 650.452 350.806 649.217 350.913 648.072C350.904 647.894 350.904 647.714 350.913 647.536C350.913 645.747 351.038 644.101 351.11 642.831C351.11 642.169 351.11 641.56 351.11 641.042C351.1 640.857 351.1 640.672 351.11 640.487C351.091 640.315 351.091 640.141 351.11 639.968C351.11 639.467 351.11 639.199 351.11 639.199L352.237 638.537L353.757 637.66L355.385 636.73C357.497 635.514 359.518 634.369 361.45 633.313C363.382 632.258 365.261 631.256 367.032 630.343C369.393 629.109 371.612 628 373.651 626.998L376.603 625.585L377.963 624.941L378.267 624.815L379.698 624.171L382.721 622.829L384.385 622.132C386.049 621.416 387.355 620.915 388.249 620.575C388.411 620.497 388.579 620.431 388.75 620.379L389.216 620.2L389.645 620.057L389.824 619.967C390.003 619.52 390.146 619.073 390.307 618.625C390.468 618.178 390.665 617.695 390.808 617.212C391.309 615.817 391.774 614.385 392.221 612.954C392.776 611.165 393.294 609.519 393.795 607.766C394.153 606.603 394.493 605.405 394.851 604.188C395.209 602.972 395.477 601.97 395.781 600.861C397.212 595.762 398.518 590.556 399.699 585.332C399.967 584.294 400.2 583.239 400.415 582.201C400.629 581.164 400.969 579.715 401.22 578.48C401.721 576.101 402.222 573.721 402.669 571.324C404.172 563.864 405.442 556.511 406.551 549.445C406.784 547.906 407.034 546.367 407.267 544.847C407.499 543.326 407.66 542.145 407.857 540.804C408.286 537.691 408.716 534.667 409.091 531.716L409.36 529.658C409.61 527.547 409.861 525.472 410.093 523.468C410.218 522.466 410.326 521.465 410.433 520.498C410.54 519.532 410.63 518.906 410.719 518.119C410.809 517.332 410.845 516.938 410.916 516.33C410.906 516.187 410.906 516.044 410.916 515.901C411.024 514.917 411.113 513.951 411.22 513.038C411.489 510.283 411.721 507.779 411.936 505.525C412.043 504.183 412.168 502.948 412.258 501.821C412.247 501.774 412.247 501.725 412.258 501.678C412.437 499.478 412.58 497.689 412.687 496.311C412.687 495.399 412.795 494.701 412.83 494.2C412.866 493.699 412.83 493.61 412.83 493.52H231.193C231.193 493.52 198.991 542.396 214.967 606.639C214.967 606.603 211.907 657.59 209.85 688.074Z" fill="#773344"/>
<path d="M334.454 646.248C340.59 641.99 347.21 638.412 353.704 634.744C360.198 631.077 367.086 627.392 374.009 624.171C387.659 618.158 401.699 613.072 416.033 608.947C416.391 608.822 416.641 609.412 416.283 609.573C402.597 615.441 389.323 622.186 375.709 628.215C368.875 631.256 361.969 634.172 355.117 637.16C348.265 640.147 341.574 643.6 334.669 646.48C334.418 646.588 334.293 646.355 334.454 646.248Z" fill="#481620"/>
<path d="M371.898 579.303C372.077 572.594 372.542 565.886 372.882 559.177C373.669 543.344 374.277 527.44 375.744 511.661C375.766 511.546 375.827 511.443 375.917 511.369C376.007 511.295 376.12 511.254 376.236 511.254C376.353 511.254 376.466 511.295 376.556 511.369C376.645 511.443 376.706 511.546 376.728 511.661C376.925 523.898 376.46 536.188 376.21 548.425C376.084 554.561 375.905 560.68 375.744 566.798C375.408 572.648 375.366 578.512 375.619 584.366C375.941 588.767 376.925 597.354 382.668 597.873C388.035 598.374 391.076 592.506 392.436 588.23C395.871 577.335 397.105 565.564 398.214 554.239C398.876 547.53 399.538 540.84 400.003 534.095C400.614 527.219 400.841 520.315 400.683 513.414C400.683 512.985 401.327 513.003 401.345 513.414C401.721 520.338 402.669 527.207 402.901 534.149C403.134 541.09 403.152 547.978 402.705 554.865C402.257 561.753 401.721 568.122 400.737 574.67C400.061 580.664 398.631 586.549 396.479 592.184C394.475 596.817 391.112 601.129 385.834 602.113C385.197 602.231 384.551 602.297 383.902 602.31C383.902 603.723 383.652 605.154 383.544 606.567C383.401 608.786 383.115 610.986 382.829 613.187C382.51 615.354 382.056 617.499 381.469 619.609C381 621.742 380.242 623.801 379.215 625.728C379.176 625.789 379.117 625.837 379.049 625.862C378.981 625.888 378.906 625.891 378.835 625.871C378.765 625.851 378.703 625.809 378.659 625.751C378.614 625.693 378.59 625.622 378.589 625.549C378.547 623.432 378.721 621.316 379.108 619.234C379.412 617.069 379.716 614.886 380.163 612.757C380.611 610.629 380.986 608.571 381.416 606.46C381.702 605.065 381.899 603.616 382.167 602.184C380.483 601.896 378.897 601.192 377.554 600.136C376.211 599.08 375.152 597.706 374.474 596.138C371.97 590.967 371.773 584.867 371.898 579.303Z" fill="#481620"/>
<path d="M226.631 575.385C236.238 576.065 245.72 577.3 255.344 576.155C264.431 575.231 273.092 571.841 280.39 566.351C296.223 554.061 303.164 533.97 307.458 515.114C307.484 515.038 307.536 514.973 307.605 514.932C307.674 514.89 307.755 514.874 307.835 514.887C307.914 514.9 307.986 514.941 308.039 515.002C308.091 515.063 308.12 515.141 308.12 515.221C306.331 531.573 302.753 548.479 292.269 561.628C287.721 567.419 281.971 572.155 275.417 575.511C268.456 578.747 260.835 580.315 253.162 580.091C244.162 580.02 235.206 578.818 226.506 576.513C226.432 576.504 226.36 576.482 226.295 576.446C226.23 576.41 226.172 576.361 226.126 576.303C226.079 576.245 226.044 576.178 226.024 576.107C226.003 576.035 225.997 575.96 226.005 575.886C226.013 575.812 226.036 575.741 226.072 575.675C226.108 575.61 226.156 575.553 226.214 575.506C226.272 575.46 226.339 575.425 226.41 575.404C226.482 575.384 226.557 575.377 226.631 575.385Z" fill="#481620"/>
<path d="M349.41 688.075C349.41 688.415 349.41 688.772 349.41 689.112C349.428 688.767 349.428 688.42 349.41 688.075H350.09C350.77 677.555 352.344 645.765 352.452 638.573V637.499C352.452 637.213 351.325 637.625 351.289 637.893C351.253 638.161 351.289 638.519 351.181 638.949C350.448 645.818 348.677 670.399 348.247 678.611C348.104 681.759 347.961 684.908 347.872 688.075H349.41Z" fill="#481620"/>
<path d="M391.345 318.108H377.784C376.889 311.489 374.921 300.701 371.665 294.941C371.665 294.941 374.689 309.539 373.454 318.108H361.522C360.484 308.877 357.675 292.132 350.394 280.307C350.734 281.559 356.727 304.208 355.296 318.108H250.317C245.666 295.961 249.262 271.845 247.437 277.105C242.553 291.148 241.14 308.233 240.854 318.108H229.153C228.828 312.515 229.146 306.902 230.102 301.381C231.64 294.028 225.611 308.537 224.842 318.108H217.453C217.453 318.108 215.968 286.55 227.525 264.045C242.857 234.115 233.876 223.023 240.174 190.248C247.33 152.966 296.348 107.847 345.331 155.005C349.285 158.816 373.687 166.312 372.292 213.452C371.504 240.108 366.459 254.205 375.619 267.909C386.979 285.012 391.845 303.796 391.345 318.108Z" fill="#481620"/>
<path d="M212.605 313.708C211.331 302.358 212.371 290.867 215.664 279.931C217.25 274.41 219.278 269.026 221.729 263.83C222.91 261.254 224.359 258.696 225.611 256.245C226.894 253.813 227.994 251.29 228.903 248.695C232.642 238.283 233.805 227.048 235.218 215.867C235.916 210.25 236.667 204.614 237.812 199.05C238.927 193.472 240.661 188.035 242.982 182.842C239.404 193.576 238.725 204.9 237.759 216.118C237.329 221.753 236.793 227.406 235.97 233.059C235.163 238.755 233.821 244.361 231.962 249.804C230.965 252.53 229.77 255.179 228.384 257.73C227.025 260.288 225.701 262.65 224.448 265.172C221.948 270.161 219.802 275.32 218.026 280.611C216.234 285.91 214.858 291.342 213.911 296.855C213.393 299.613 213.017 302.396 212.784 305.192C212.695 308.072 212.569 310.953 212.605 313.708Z" fill="#773344"/>
<path d="M372.238 213.505C372.471 218.032 372.148 222.558 372.238 227.066C372.327 231.574 372.345 236.011 372.739 240.484C373.12 244.903 373.868 249.283 374.975 253.579C375.226 254.652 375.601 255.69 375.905 256.746L376.138 257.533L376.388 258.195C376.585 258.642 376.836 259.107 377.086 259.572C378.142 261.469 379.358 263.383 380.539 265.315C382.865 269.197 385.155 273.169 387.14 277.301C389.134 281.429 390.803 285.706 392.132 290.093C393.454 294.483 394.364 298.987 394.851 303.546C395.308 308.079 395.308 312.646 394.851 317.178C394.529 308.206 392.808 299.339 389.752 290.898C386.617 282.54 382.611 274.535 377.802 267.014C376.639 265.082 375.44 263.168 374.331 261.093C374.045 260.556 373.776 260.019 373.526 259.447C373.276 258.875 373.293 258.803 373.186 258.517L372.936 257.676C372.632 256.567 372.256 255.458 372.041 254.33C371.002 249.837 370.403 245.254 370.252 240.645C370.111 236.089 370.266 231.53 370.717 226.994C371.093 222.468 371.737 217.924 372.238 213.505Z" fill="#773344"/>
<path d="M325.473 306.498C386.013 334.389 449.451 333.637 474.515 330.363C495.608 327.608 608.279 243.561 609.853 232.558C611.642 220.035 563.339 182.878 534.948 191.769C531.978 192.699 456.625 264.045 450.364 265.118C438.914 267.122 381.219 270.056 356.244 272.274C314.686 276.228 295.007 292.472 325.473 306.498Z" fill="#D3766A"/>
<path d="M320.75 309.682C339.481 320.899 382.221 334.031 382.221 334.031L425.675 264.975C425.675 264.975 354.92 264.116 318.335 276.997C303.755 282.167 301.823 298.322 320.75 309.682Z" fill="#FA2020"/>
<path d="M314.972 279.198C314.972 280.45 314.474 281.652 313.589 282.537C312.703 283.423 311.502 283.921 310.249 283.921C309.876 283.924 309.503 283.882 309.14 283.795C310.614 281.605 312.605 279.811 314.936 278.571C314.954 278.75 314.972 278.983 314.972 279.198ZM356.835 283.921C357.769 283.921 358.682 283.644 359.459 283.125C360.235 282.606 360.841 281.868 361.198 281.005C361.556 280.142 361.649 279.192 361.467 278.276C361.285 277.36 360.835 276.518 360.174 275.858C359.514 275.197 358.672 274.748 357.756 274.565C356.84 274.383 355.89 274.477 355.027 274.834C354.164 275.192 353.427 275.797 352.908 276.574C352.389 277.35 352.112 278.263 352.112 279.198C352.116 280.449 352.616 281.647 353.5 282.532C354.385 283.417 355.584 283.916 356.835 283.921ZM403.349 283.921C404.282 283.917 405.194 283.637 405.968 283.116C406.742 282.595 407.345 281.856 407.699 280.993C408.054 280.129 408.145 279.18 407.961 278.265C407.777 277.35 407.326 276.51 406.664 275.852C406.003 275.193 405.161 274.745 404.246 274.564C403.33 274.383 402.381 274.478 401.519 274.836C400.657 275.194 399.921 275.799 399.403 276.576C398.884 277.352 398.608 278.264 398.608 279.198C398.608 279.833 398.735 280.462 398.984 281.047C399.232 281.632 399.596 282.161 400.054 282.602C400.512 283.043 401.054 283.387 401.647 283.614C402.241 283.84 402.875 283.945 403.51 283.921H403.349ZM333.452 308.77C332.2 308.77 330.999 309.267 330.113 310.153C329.227 311.039 328.729 312.24 328.729 313.493C328.721 313.654 328.721 313.815 328.729 313.976C331.073 315.103 333.56 316.248 336.154 317.357C336.975 316.78 337.592 315.956 337.913 315.004C338.234 314.053 338.244 313.024 337.941 312.067C337.638 311.11 337.038 310.274 336.227 309.681C335.417 309.088 334.439 308.769 333.435 308.77H333.452ZM379.967 318.234C380.905 318.237 381.823 317.962 382.605 317.443C383.387 316.925 383.998 316.185 384.359 315.319C384.721 314.454 384.817 313.5 384.636 312.579C384.455 311.658 384.005 310.812 383.343 310.147C382.681 309.482 381.836 309.029 380.916 308.844C379.996 308.66 379.042 308.753 378.174 309.111C377.307 309.469 376.566 310.077 376.044 310.857C375.522 311.637 375.244 312.554 375.244 313.493C375.243 314.128 375.37 314.756 375.618 315.341C375.865 315.925 376.227 316.455 376.682 316.897C377.138 317.339 377.677 317.685 378.269 317.915C378.861 318.144 379.493 318.253 380.128 318.234H379.967Z" fill="white"/>
<path d="M320.733 309.682C339.481 320.917 382.221 334.013 382.221 334.013L391.291 319.593L325.724 274.707C323.184 275.423 320.697 276.192 318.407 276.997C303.773 282.15 301.823 298.429 320.733 309.682Z" fill="#773344"/>
<path d="M373.186 327.68C378.965 316.946 384.868 306.426 391.273 296.104C394.457 290.952 397.719 285.853 401.059 280.808C404.404 275.763 408.215 271.04 411.542 265.959C411.721 265.691 412.151 265.959 411.954 266.263C408.376 271.165 405.549 276.586 402.311 281.684C399.073 286.783 395.799 291.9 392.597 297.052C386.192 307.303 379.77 317.572 373.615 327.984C373.437 328.27 373.097 327.966 373.186 327.68Z" fill="#773344"/>
<path d="M417.536 493.431L399.306 407.022C399.306 407.022 417.643 378.917 403.313 354.551C396.068 342.207 358.588 297.016 336.565 280.754C310.661 261.594 285.811 279.216 276.151 292.347C256.794 318.627 237.58 380.455 230.907 493.52L417.536 493.431Z" fill="#FA2020"/>
<path d="M305.508 279.198C305.505 278.259 305.78 277.341 306.298 276.559C306.817 275.777 307.556 275.167 308.422 274.805C309.288 274.443 310.242 274.347 311.163 274.528C312.084 274.709 312.93 275.159 313.595 275.821C314.26 276.483 314.713 277.328 314.897 278.248C315.082 279.168 314.989 280.123 314.631 280.99C314.272 281.857 313.665 282.599 312.885 283.12C312.105 283.642 311.187 283.921 310.249 283.921C308.995 283.921 307.792 283.424 306.903 282.538C306.014 281.653 305.513 280.452 305.508 279.198ZM263.645 352.547C264.58 352.547 265.493 352.27 266.269 351.751C267.046 351.232 267.651 350.494 268.009 349.631C268.366 348.768 268.46 347.819 268.278 346.902C268.095 345.986 267.646 345.145 266.985 344.484C266.325 343.824 265.483 343.374 264.567 343.192C263.651 343.009 262.701 343.103 261.838 343.46C260.975 343.818 260.237 344.423 259.718 345.2C259.199 345.977 258.922 346.89 258.922 347.824C258.941 349.066 259.446 350.251 260.33 351.124C261.213 351.997 262.403 352.489 263.645 352.493V352.547ZM310.249 352.547C311.182 352.543 312.094 352.263 312.868 351.742C313.642 351.221 314.245 350.482 314.6 349.619C314.954 348.756 315.045 347.807 314.861 346.892C314.677 345.977 314.226 345.137 313.564 344.478C312.903 343.819 312.062 343.371 311.146 343.19C310.23 343.01 309.282 343.104 308.42 343.462C307.558 343.82 306.821 344.426 306.303 345.202C305.785 345.978 305.508 346.891 305.508 347.824C305.522 349.07 306.029 350.261 306.917 351.135C307.805 352.01 309.002 352.498 310.249 352.493V352.547ZM356.763 352.547C357.697 352.547 358.61 352.27 359.387 351.751C360.164 351.232 360.769 350.494 361.127 349.631C361.484 348.768 361.578 347.819 361.395 346.902C361.213 345.986 360.763 345.145 360.103 344.484C359.442 343.824 358.601 343.374 357.684 343.192C356.768 343.009 355.819 343.103 354.956 343.46C354.093 343.818 353.355 344.423 352.836 345.2C352.317 345.977 352.04 346.89 352.04 347.824C352.059 349.078 352.574 350.274 353.473 351.149C354.371 352.024 355.58 352.508 356.835 352.493L356.763 352.547ZM398.626 347.77C398.626 348.745 398.93 349.695 399.494 350.49C400.058 351.285 400.855 351.885 401.774 352.207C400.969 350.901 399.932 349.398 398.697 347.717L398.626 347.77ZM286.885 318.287C287.822 318.287 288.739 318.009 289.518 317.488C290.298 316.968 290.906 316.227 291.265 315.361C291.623 314.495 291.717 313.541 291.534 312.622C291.351 311.702 290.9 310.857 290.237 310.194C289.574 309.531 288.729 309.08 287.809 308.897C286.89 308.714 285.937 308.808 285.07 309.167C284.204 309.525 283.464 310.133 282.943 310.913C282.422 311.692 282.144 312.609 282.144 313.547C282.151 314.171 282.281 314.787 282.527 315.361C282.773 315.935 283.129 316.454 283.576 316.89C284.024 317.325 284.552 317.668 285.132 317.899C285.712 318.129 286.332 318.243 286.956 318.234L286.885 318.287ZM333.399 318.287C334.337 318.291 335.255 318.016 336.037 317.497C336.819 316.978 337.43 316.239 337.791 315.373C338.153 314.507 338.249 313.554 338.068 312.633C337.888 311.712 337.437 310.865 336.775 310.201C336.113 309.536 335.268 309.083 334.348 308.898C333.428 308.714 332.474 308.807 331.606 309.165C330.739 309.523 329.998 310.131 329.476 310.911C328.954 311.691 328.676 312.608 328.676 313.547C328.683 314.175 328.814 314.796 329.064 315.374C329.313 315.951 329.674 316.473 330.127 316.909C330.58 317.345 331.115 317.687 331.701 317.914C332.288 318.142 332.913 318.25 333.542 318.234L333.399 318.287ZM263.502 421.137C264.441 421.141 265.359 420.866 266.141 420.347C266.923 419.828 267.533 419.089 267.895 418.223C268.257 417.357 268.353 416.403 268.172 415.483C267.991 414.562 267.541 413.715 266.879 413.051C266.217 412.386 265.372 411.932 264.452 411.748C263.532 411.564 262.577 411.656 261.71 412.015C260.843 412.373 260.101 412.981 259.58 413.761C259.058 414.541 258.779 415.458 258.779 416.396C258.786 417.025 258.918 417.646 259.167 418.223C259.417 418.801 259.778 419.323 260.231 419.759C260.684 420.195 261.219 420.537 261.805 420.764C262.391 420.992 263.017 421.1 263.645 421.084L263.502 421.137ZM310.106 421.137C311.043 421.137 311.96 420.859 312.74 420.338C313.519 419.817 314.127 419.077 314.486 418.211C314.845 417.344 314.939 416.391 314.756 415.472C314.573 414.552 314.121 413.707 313.458 413.044C312.795 412.381 311.95 411.93 311.031 411.747C310.111 411.564 309.158 411.658 308.292 412.016C307.425 412.375 306.685 412.983 306.164 413.763C305.643 414.542 305.365 415.459 305.365 416.396C305.372 417.027 305.504 417.649 305.755 418.228C306.005 418.806 306.368 419.329 306.823 419.765C307.278 420.202 307.815 420.543 308.403 420.77C308.991 420.996 309.619 421.103 310.249 421.084L310.106 421.137ZM356.62 421.137C357.558 421.141 358.477 420.866 359.259 420.347C360.041 419.828 360.651 419.089 361.013 418.223C361.374 417.357 361.471 416.403 361.29 415.483C361.109 414.562 360.659 413.715 359.996 413.051C359.334 412.386 358.489 411.932 357.569 411.748C356.649 411.564 355.695 411.656 354.828 412.015C353.96 412.373 353.219 412.981 352.697 413.761C352.175 414.541 351.897 415.458 351.897 416.396C351.904 417.031 352.038 417.659 352.291 418.241C352.545 418.823 352.913 419.348 353.374 419.785C353.834 420.222 354.378 420.563 354.972 420.786C355.567 421.009 356.2 421.11 356.835 421.084L356.62 421.137ZM400.272 412.711C399.586 413.26 399.066 413.99 398.772 414.817C398.478 415.645 398.421 416.539 398.607 417.398C398.793 418.256 399.214 419.046 399.824 419.678C400.435 420.311 401.209 420.76 402.061 420.976L400.272 412.711ZM244.467 379.776C244.074 381.743 243.68 383.729 243.304 385.769C243.86 385.328 244.31 384.768 244.619 384.13C244.929 383.492 245.091 382.793 245.093 382.083C245.093 381.272 244.877 380.476 244.467 379.776ZM286.956 386.806C287.895 386.806 288.812 386.528 289.592 386.006C290.372 385.484 290.98 384.743 291.338 383.876C291.696 383.008 291.789 382.054 291.605 381.134C291.42 380.214 290.967 379.369 290.302 378.707C289.637 378.045 288.791 377.594 287.87 377.414C286.949 377.233 285.995 377.329 285.129 377.691C284.263 378.052 283.524 378.663 283.006 379.445C282.487 380.227 282.212 381.145 282.215 382.083C282.215 382.705 282.338 383.321 282.577 383.895C282.815 384.469 283.164 384.991 283.605 385.429C284.045 385.868 284.568 386.216 285.143 386.452C285.718 386.688 286.334 386.809 286.956 386.806ZM333.47 386.806C334.409 386.81 335.328 386.534 336.111 386.015C336.893 385.495 337.504 384.755 337.865 383.888C338.226 383.021 338.321 382.066 338.139 381.145C337.956 380.224 337.504 379.377 336.84 378.713C336.176 378.049 335.33 377.597 334.409 377.415C333.487 377.232 332.533 377.328 331.666 377.689C330.799 378.05 330.058 378.66 329.539 379.443C329.019 380.225 328.744 381.144 328.747 382.083C328.747 382.71 328.872 383.33 329.114 383.907C329.355 384.485 329.71 385.009 330.156 385.449C330.602 385.888 331.131 386.234 331.712 386.468C332.294 386.701 332.916 386.816 333.542 386.806H333.47ZM379.984 386.806C380.924 386.81 381.843 386.534 382.625 386.015C383.407 385.495 384.018 384.755 384.379 383.888C384.74 383.021 384.835 382.066 384.653 381.145C384.47 380.224 384.019 379.377 383.354 378.713C382.69 378.049 381.844 377.597 380.923 377.415C380.001 377.232 379.047 377.328 378.18 377.689C377.313 378.05 376.572 378.66 376.053 379.443C375.533 380.225 375.258 381.144 375.261 382.083C375.264 382.715 375.392 383.34 375.639 383.921C375.886 384.503 376.247 385.029 376.7 385.469C377.154 385.909 377.69 386.254 378.279 386.484C378.867 386.713 379.496 386.823 380.127 386.806H379.984ZM263.502 489.656C264.441 489.66 265.359 489.385 266.141 488.866C266.923 488.347 267.533 487.608 267.895 486.742C268.257 485.876 268.353 484.922 268.172 484.001C267.991 483.081 267.541 482.234 266.879 481.569C266.217 480.905 265.372 480.451 264.452 480.267C263.532 480.082 262.577 480.175 261.71 480.534C260.843 480.892 260.101 481.5 259.58 482.28C259.058 483.06 258.779 483.977 258.779 484.915C258.779 485.549 258.906 486.175 259.152 486.759C259.398 487.342 259.758 487.871 260.212 488.313C260.665 488.755 261.203 489.101 261.793 489.332C262.382 489.563 263.012 489.673 263.645 489.656H263.502ZM310.106 489.656C311.043 489.656 311.96 489.378 312.74 488.857C313.519 488.336 314.127 487.596 314.486 486.73C314.845 485.863 314.939 484.91 314.756 483.99C314.573 483.071 314.121 482.226 313.458 481.563C312.795 480.9 311.95 480.448 311.031 480.266C310.111 480.083 309.158 480.176 308.292 480.535C307.425 480.894 306.685 481.502 306.164 482.281C305.643 483.061 305.365 483.978 305.365 484.915C305.365 485.55 305.492 486.179 305.739 486.763C305.986 487.348 306.348 487.877 306.804 488.319C307.259 488.761 307.799 489.107 308.391 489.337C308.983 489.567 309.614 489.675 310.249 489.656H310.106ZM356.62 489.656C357.558 489.66 358.477 489.385 359.259 488.866C360.041 488.347 360.651 487.608 361.013 486.742C361.374 485.876 361.471 484.922 361.29 484.001C361.109 483.081 360.659 482.234 359.996 481.569C359.334 480.905 358.489 480.451 357.569 480.267C356.649 480.082 355.695 480.175 354.828 480.534C353.96 480.892 353.219 481.5 352.697 482.28C352.175 483.06 351.897 483.977 351.897 484.915C351.896 485.555 352.025 486.188 352.276 486.776C352.526 487.365 352.893 487.896 353.354 488.339C353.816 488.782 354.362 489.127 354.96 489.353C355.558 489.58 356.196 489.683 356.835 489.656H356.62ZM403.134 489.656C404.072 489.656 404.988 489.378 405.768 488.857C406.548 488.336 407.155 487.596 407.514 486.73C407.873 485.863 407.967 484.91 407.784 483.99C407.601 483.071 407.149 482.226 406.486 481.563C405.823 480.9 404.979 480.448 404.059 480.266C403.139 480.083 402.186 480.176 401.32 480.535C400.453 480.894 399.713 481.502 399.192 482.281C398.671 483.061 398.393 483.978 398.393 484.915C398.391 485.571 398.525 486.22 398.786 486.821C399.048 487.422 399.431 487.962 399.912 488.408C400.393 488.853 400.961 489.194 401.58 489.409C402.199 489.624 402.856 489.708 403.51 489.656H403.134ZM240.353 455.379C241.287 455.379 242.2 455.102 242.977 454.583C243.753 454.064 244.359 453.326 244.716 452.463C245.074 451.6 245.167 450.651 244.985 449.734C244.803 448.818 244.353 447.977 243.692 447.316C243.032 446.656 242.19 446.206 241.274 446.024C240.358 445.841 239.408 445.935 238.545 446.292C237.682 446.65 236.945 447.255 236.426 448.032C235.907 448.809 235.63 449.722 235.63 450.656C235.63 451.908 236.127 453.11 237.013 453.995C237.899 454.881 239.1 455.379 240.353 455.379ZM286.867 455.379C287.8 455.375 288.711 455.095 289.486 454.574C290.26 454.053 290.863 453.314 291.217 452.451C291.572 451.588 291.663 450.638 291.479 449.724C291.295 448.809 290.843 447.969 290.182 447.31C289.521 446.651 288.679 446.203 287.764 446.022C286.848 445.842 285.899 445.936 285.037 446.294C284.175 446.652 283.439 447.257 282.921 448.034C282.402 448.81 282.126 449.722 282.126 450.656C282.126 451.285 282.251 451.908 282.495 452.488C282.739 453.069 283.097 453.594 283.547 454.034C283.997 454.474 284.53 454.82 285.116 455.051C285.701 455.282 286.327 455.393 286.956 455.379H286.867ZM333.381 455.379C334.315 455.379 335.228 455.102 336.005 454.583C336.781 454.064 337.387 453.326 337.744 452.463C338.102 451.6 338.195 450.651 338.013 449.734C337.831 448.818 337.381 447.977 336.72 447.316C336.06 446.656 335.218 446.206 334.302 446.024C333.386 445.841 332.436 445.935 331.573 446.292C330.71 446.65 329.973 447.255 329.454 448.032C328.935 448.809 328.658 449.722 328.658 450.656C328.657 451.29 328.785 451.917 329.032 452.501C329.279 453.085 329.642 453.613 330.098 454.054C330.553 454.494 331.093 454.839 331.685 455.067C332.277 455.294 332.908 455.4 333.542 455.379H333.381ZM379.895 455.379C380.829 455.379 381.742 455.102 382.519 454.583C383.295 454.064 383.901 453.326 384.258 452.463C384.616 451.6 384.709 450.651 384.527 449.734C384.345 448.818 383.895 447.977 383.234 447.316C382.574 446.656 381.732 446.206 380.816 446.024C379.9 445.841 378.95 445.935 378.087 446.292C377.224 446.65 376.487 447.255 375.968 448.032C375.449 448.809 375.172 449.722 375.172 450.656C375.174 451.295 375.305 451.928 375.557 452.516C375.81 453.103 376.179 453.633 376.642 454.075C377.105 454.516 377.652 454.859 378.251 455.083C378.85 455.307 379.489 455.408 380.127 455.379H379.895Z" fill="white"/>
<path d="M340.25 407.416C348.93 405.929 357.709 405.092 366.513 404.911C370.878 404.911 375.226 405.054 379.591 405.304C381.773 405.43 383.938 405.501 386.121 405.537C388.398 405.654 390.681 405.492 392.919 405.054C392.956 405.05 392.994 405.059 393.026 405.08C393.057 405.101 393.08 405.132 393.091 405.169C393.101 405.205 393.099 405.244 393.084 405.278C393.069 405.313 393.042 405.341 393.008 405.358C390.95 406.003 388.852 406.517 386.729 406.897C384.659 407.18 382.574 407.329 380.485 407.344C376.048 407.344 371.54 407.344 367.157 407.344C358.212 407.344 349.267 407.469 340.322 408.185C339.928 408.167 339.839 407.559 340.25 407.416Z" fill="#773344"/>
<path d="M321.216 420.457C328.003 417.877 334.932 415.685 341.968 413.892C345.546 413.015 349.124 412.335 352.702 411.745C354.491 411.459 356.137 411.226 357.854 410.993C359.572 410.761 361.665 410.743 363.561 410.475C363.758 410.475 363.83 410.743 363.561 410.779C361.772 411.083 359.983 411.691 358.32 412.12L352.953 413.355C349.374 414.196 345.922 415.144 342.397 415.877C335.331 417.505 328.3 419.169 321.287 421.03C321.055 421.137 320.947 420.582 321.216 420.457Z" fill="#773344"/>
<path d="M293.504 287.033C294.667 290.486 314.972 310.076 330.572 305.049C341.539 301.471 332.236 280.003 332.236 280.003L336.279 247.371L293.736 225.903C293.736 225.903 293.021 285.566 293.504 287.033Z" fill="#D3766A"/>
<path d="M293.504 246.745C297.497 254.364 303.016 261.081 309.716 266.476C316.416 271.871 324.155 275.83 332.45 278.106L336.297 247.3L293.736 225.832C293.736 225.832 293.629 235.224 293.504 246.745Z" fill="#773344"/>
<path d="M371.844 192.503C386.049 244.384 356.53 258.839 345.331 261.88C335.152 264.653 300.159 272.793 280.659 222.522C261.159 172.251 280.838 149.28 303.755 141.731C326.672 134.181 357.64 140.55 371.844 192.503Z" fill="#D3766A"/>
<path d="M357.407 186.796C356.162 186.868 354.913 186.868 353.668 186.796C352.35 186.95 351.018 186.667 349.875 185.991C349.556 185.714 349.339 185.338 349.258 184.923C349.177 184.508 349.237 184.078 349.428 183.701C349.917 183.006 350.583 182.453 351.356 182.101C352.13 181.749 352.984 181.609 353.829 181.697C355.571 181.622 357.28 182.196 358.624 183.307C358.901 183.578 359.096 183.922 359.185 184.3C359.273 184.677 359.253 185.072 359.125 185.439C358.997 185.805 358.768 186.127 358.464 186.367C358.159 186.608 357.793 186.756 357.407 186.796Z" fill="#773344"/>
<path d="M321.072 194.9C322.289 194.506 323.362 193.952 324.525 193.451C325.808 193.105 326.941 192.344 327.745 191.286C327.957 190.914 328.028 190.478 327.946 190.058C327.864 189.638 327.634 189.261 327.298 188.996C326.586 188.532 325.762 188.267 324.912 188.23C324.063 188.192 323.219 188.382 322.468 188.781C320.83 189.369 319.463 190.533 318.621 192.055C318.453 192.415 318.392 192.815 318.446 193.208C318.5 193.601 318.667 193.971 318.926 194.271C319.185 194.572 319.525 194.791 319.906 194.903C320.287 195.014 320.692 195.013 321.072 194.9Z" fill="#773344"/>
<path d="M331.127 205.079C331.127 204.954 330.894 205.312 330.93 205.455C331.824 209.033 332.254 213.273 329.248 215.187C329.159 215.187 329.248 215.42 329.248 215.366C333.184 213.953 332.558 208.317 331.127 205.079Z" fill="#773344"/>
<path d="M327.101 202.02C321.216 202.843 323.291 214.543 328.747 213.792C334.204 213.04 332.039 201.322 327.101 202.02Z" fill="#773344"/>
<path d="M324.919 203.04C324.006 203.881 323.219 205.24 322.003 205.58C320.786 205.92 319.301 204.936 318.174 203.917C318.049 203.809 317.96 203.917 317.995 204.096C318.353 206.332 319.623 208.496 322.092 208.389C324.561 208.282 325.563 206.046 325.67 203.702C325.742 203.255 325.277 202.7 324.919 203.04Z" fill="#773344"/>
<path d="M351.915 200.803C351.915 200.66 352.237 200.929 352.255 201.072C352.756 204.65 353.936 208.818 357.425 209.48C357.532 209.48 357.55 209.677 357.425 209.677C353.418 209.802 351.808 204.346 351.915 200.803Z" fill="#773344"/>
<path d="M354.527 196.456C360.287 195.025 362.721 206.672 357.389 207.995C352.058 209.319 349.679 197.655 354.527 196.456Z" fill="#773344"/>
<path d="M357.103 196.706C358.158 197.136 359.303 198.066 360.413 197.905C361.522 197.744 362.38 196.277 362.935 194.9C362.935 194.756 363.114 194.9 363.15 194.989C363.686 197.189 363.436 199.658 361.361 200.535C359.285 201.412 357.658 199.73 356.674 197.619C356.495 197.243 356.691 196.545 357.103 196.706Z" fill="#773344"/>
<path d="M338.319 234.616C339.302 235.367 340.322 236.405 341.664 236.405C343.018 236.189 344.314 235.703 345.475 234.973C345.498 234.959 345.525 234.952 345.552 234.955C345.579 234.957 345.604 234.968 345.625 234.987C345.645 235.005 345.659 235.029 345.664 235.056C345.669 235.082 345.665 235.11 345.653 235.134C345.223 235.92 344.589 236.576 343.818 237.032C343.046 237.489 342.167 237.729 341.27 237.728C340.501 237.629 339.777 237.304 339.192 236.795C338.606 236.286 338.184 235.615 337.979 234.866C337.889 234.633 338.175 234.508 338.319 234.616Z" fill="#773344"/>
<path d="M350.967 218.676C350.967 218.676 352.756 223.935 353.221 226.494C353.221 226.726 352.666 226.959 351.808 227.173C349.687 228.003 347.378 228.23 345.136 227.829C342.894 227.428 340.807 226.415 339.106 224.901C339.063 224.856 339.037 224.798 339.033 224.736C339.029 224.674 339.046 224.613 339.082 224.562C339.118 224.512 339.17 224.475 339.23 224.459C339.289 224.442 339.353 224.447 339.41 224.472C343.08 226.079 347.172 226.455 351.074 225.545C351.074 224.812 347.746 216.6 348.14 216.6C350.156 216.392 352.191 216.464 354.187 216.815C350.824 205.741 345.707 195.347 342.505 184.219C342.484 184.138 342.493 184.052 342.53 183.976C342.567 183.9 342.63 183.84 342.707 183.806C342.783 183.772 342.87 183.766 342.951 183.789C343.032 183.812 343.102 183.863 343.149 183.933C349.285 194.488 353.435 207.19 357.21 218.497C357.675 219.839 352.076 218.908 350.967 218.676Z" fill="#773344"/>
<path d="M351.199 226.028C350.205 228.402 348.615 230.478 346.584 232.057C345.455 232.895 344.089 233.352 342.684 233.363C339.624 233.363 338.855 230.751 338.784 228.372C338.752 227.098 338.872 225.825 339.141 224.579C342.904 226.332 347.128 226.84 351.199 226.028Z" fill="#773344"/>
<path d="M346.584 232.057C345.455 232.895 344.089 233.352 342.684 233.363C339.624 233.363 338.855 230.751 338.784 228.372C341.932 227.871 345.528 229.141 346.584 232.057Z" fill="#FF9BBC"/>
<path d="M282.752 224.794C285.887 222.644 288.409 219.716 290.071 216.298C291.733 212.879 292.479 209.087 292.234 205.294C300.835 199.886 307.833 192.277 312.503 183.254C312.324 184.398 310.947 192.61 310.124 196.778C342.576 185.508 349.052 158.404 349.052 158.404C361.575 167.582 364.724 174.165 366.799 177.368C366.799 177.368 363.973 156.848 351.36 144.718C335.957 129.87 291.733 131.891 274.88 156.83C256.811 183.719 282.752 224.794 282.752 224.794Z" fill="#481620"/>
<path d="M289.586 220.626C289.586 220.626 275.006 206.206 268.261 211.681C261.517 217.155 274.576 239.553 283.986 241.235C285.179 241.533 286.419 241.586 287.633 241.391C288.846 241.197 290.008 240.759 291.047 240.104C292.087 239.449 292.983 238.59 293.682 237.579C294.381 236.568 294.868 235.426 295.114 234.222L289.586 220.626Z" fill="#D3766A"/>
<path d="M272.161 218.014C272.018 218.014 272.036 218.228 272.161 218.264C278.798 219.642 283.092 224.776 286.473 230.304C284.219 228.336 281.482 227.549 278.816 230.304C278.691 230.447 278.816 230.68 279.049 230.608C280.073 230.066 281.241 229.854 282.391 230.001C283.54 230.149 284.617 230.648 285.471 231.431C286.885 232.749 288.156 234.212 289.264 235.796C289.658 236.297 290.606 235.796 290.266 235.224C290.272 235.182 290.272 235.14 290.266 235.099C288.906 227.173 280.766 217.262 272.161 218.014Z" fill="#773344"/>
<path d="M633.643 377.793C660.676 307.514 625.619 228.627 555.341 201.594C485.063 174.56 406.176 209.617 379.142 279.895C352.109 350.174 387.165 429.061 457.444 456.094C527.722 483.128 606.609 448.071 633.643 377.793Z" fill="#AA1439" fill-opacity="0.77"/>
<path d="M626.813 390.742L566.56 450.996L651.358 475.559L626.813 390.742Z" fill="#AA1439" fill-opacity="0.77"/>
<path d="M506.521 239.965C521.705 240.067 536.613 244.033 549.841 251.489C563.069 258.945 574.182 269.646 582.131 282.583C590.081 295.52 594.606 310.269 595.281 325.438C595.956 340.608 592.758 355.7 585.988 369.292C585.237 370.061 577.866 384.248 562.91 388.559C561.256 388.976 559.551 389.151 557.847 389.078C555.064 389.184 552.297 388.616 549.78 387.424C547.263 386.231 545.072 384.448 543.392 382.226C540.85 378.67 539.436 374.431 539.331 370.061V361.438C535.297 366.184 530.284 370.001 524.636 372.626C518.988 375.251 512.838 376.622 506.61 376.645C481.564 376.645 461.223 354.837 461.223 328.717C461.223 302.598 481.51 281.309 506.61 281.309C531.71 281.309 551.496 302.777 551.496 328.717V369.292H551.764C551.78 371.253 552.304 373.176 553.285 374.874C553.835 375.53 554.541 376.037 555.338 376.35C556.135 376.662 556.998 376.77 557.847 376.663H559.869C567.472 374.874 573.572 365.929 574.574 363.478C580.249 352.788 583.129 340.837 582.947 328.735C582.922 313.612 578.413 298.837 569.991 286.276C561.569 273.716 549.611 263.935 535.63 258.171C521.649 252.407 506.272 250.918 491.445 253.892C476.618 256.867 463.005 264.171 452.33 274.882C441.654 285.593 434.394 299.229 431.468 314.066C428.542 328.903 430.081 344.275 435.891 358.237C441.701 372.199 451.521 384.125 464.109 392.506C476.697 400.887 491.487 405.347 506.61 405.322C513.018 405.541 519.425 404.86 525.645 403.301C528.937 402.532 532.479 404.052 532.801 407.612C533.08 408.377 533.187 409.195 533.114 410.006C533.04 410.817 532.789 411.602 532.377 412.304C531.965 413.007 531.403 413.609 530.731 414.069C530.059 414.529 529.293 414.835 528.489 414.965C521.366 416.807 514.039 417.739 506.682 417.738C495.01 417.738 483.453 415.439 472.67 410.973C461.886 406.506 452.089 399.96 443.836 391.706C435.582 383.453 429.036 373.656 424.569 362.872C420.103 352.089 417.804 340.532 417.804 328.86C417.804 317.189 420.103 305.632 424.569 294.848C429.036 284.065 435.582 274.267 443.836 266.014C452.089 257.761 461.886 251.215 472.67 246.748C483.453 242.282 495.01 239.983 506.682 239.983L506.521 239.965ZM506.521 363.406C524.035 363.406 538.991 348.2 538.991 328.664C538.991 309.128 524.035 293.671 506.521 293.671C489.006 293.671 474.318 309.396 474.318 328.664C474.318 347.931 488.774 363.46 506.521 363.46V363.406Z" fill="white"/>
<path d="M268.511 347.251C276.669 412.282 289.514 501.392 323.631 508.262C379.716 519.515 430.22 529.944 466.161 527.726C479.024 526.939 468.486 436.898 454.711 436.487C436.821 435.879 359.035 425.753 354.258 418.829C351.557 414.894 331.824 376.448 304.47 325.3C275.936 271.881 265.9 326.356 268.511 347.251Z" fill="#D3766A"/>
<path d="M461.527 527.708C496.574 527.708 540.243 529.747 574.234 509.639C578.079 507.508 581.092 504.142 582.786 500.086C598.207 491.355 598.708 481.444 598.708 481.444C610.587 468.921 609.71 458.706 609.71 458.706C609.71 458.706 627.708 448.258 623.181 436.344C618.172 422.944 593.878 440.244 574.699 441.603C530.779 444.68 467.467 436.791 454.711 436.415L461.527 527.708Z" fill="#D3766A"/>
<path d="M530.94 477.187C543.857 476.024 556.559 475.219 569.243 472.303C583.162 469.118 596.078 463.715 609.245 458.527C609.286 458.507 609.331 458.496 609.377 458.493C609.422 458.49 609.468 458.497 609.511 458.512C609.554 458.527 609.594 458.55 609.628 458.58C609.662 458.611 609.69 458.647 609.71 458.688C609.73 458.73 609.742 458.774 609.745 458.82C609.747 458.865 609.741 458.911 609.726 458.954C609.711 458.998 609.688 459.037 609.658 459.072C609.627 459.106 609.59 459.134 609.549 459.154C587.097 472.321 556.935 478.976 530.994 477.777C530.368 477.741 530.296 477.33 530.94 477.187Z" fill="#773344"/>
<path d="M528.955 503.968C541.478 502.179 563.393 498.78 598.529 481.069C598.636 481.069 598.78 481.194 598.654 481.265C577.383 495.81 554.538 502.984 529.044 504.522C528.257 504.612 528.114 504.165 528.955 503.968Z" fill="#773344"/>
<path d="M528.15 518.477C549.296 514.559 562.141 509.407 582.678 500.14C582.786 500.14 582.911 500.265 582.786 500.336C560.531 513.325 550.995 515.525 528.185 519.228C527.398 519.264 527.327 518.477 528.15 518.477Z" fill="#773344"/>
<path d="M521.584 441.961C515.716 440.172 516.646 437.006 526.951 433.141C537.256 429.277 581.122 422.747 577.544 407.612C573.966 392.477 512.156 402.639 495.554 410.367C478.952 418.096 454.8 436.415 454.8 436.415C467.145 436.863 497.182 440.798 521.584 441.961Z" fill="#D3766A"/>
<path d="M268.064 418.078L333.739 366.859C333.739 366.859 316.636 328.699 304.184 308.895C287.708 282.722 274.129 282.686 268.207 320.148C264.164 345.212 268.064 418.078 268.064 418.078Z" fill="#FA2020"/>
<path d="M268.386 347.77C268.383 348.529 268.198 349.276 267.846 349.949C267.494 350.621 266.986 351.199 266.365 351.634C266.365 349.022 266.365 346.482 266.49 343.995C267.077 344.434 267.555 345.004 267.884 345.659C268.213 346.314 268.385 347.037 268.386 347.77ZM310.249 352.493C311.182 352.49 312.094 352.21 312.868 351.688C313.642 351.167 314.245 350.428 314.6 349.565C314.954 348.702 315.045 347.753 314.861 346.838C314.677 345.923 314.226 345.083 313.564 344.424C312.903 343.765 312.062 343.317 311.146 343.137C310.23 342.956 309.282 343.05 308.42 343.408C307.558 343.766 306.821 344.372 306.303 345.148C305.785 345.924 305.508 346.837 305.508 347.77C305.508 348.392 305.631 349.007 305.869 349.582C306.108 350.156 306.457 350.677 306.898 351.116C307.338 351.555 307.861 351.902 308.436 352.139C309.011 352.375 309.627 352.495 310.249 352.493ZM286.992 318.234C287.93 318.234 288.846 317.956 289.626 317.435C290.405 316.914 291.013 316.173 291.372 315.307C291.731 314.441 291.825 313.488 291.642 312.568C291.459 311.648 291.007 310.804 290.344 310.141C289.681 309.478 288.836 309.026 287.917 308.843C286.997 308.66 286.044 308.754 285.178 309.113C284.311 309.472 283.571 310.079 283.05 310.859C282.529 311.639 282.251 312.555 282.251 313.493C282.251 314.744 282.746 315.944 283.627 316.833C284.508 317.721 285.705 318.224 286.956 318.234H286.992ZM267.903 414.214C268.011 416.432 268.082 417.792 268.1 418.042C268.342 417.427 268.45 416.767 268.416 416.107C268.382 415.446 268.207 414.801 267.903 414.214ZM286.992 386.806C287.93 386.806 288.848 386.528 289.628 386.006C290.408 385.484 291.015 384.743 291.374 383.875C291.732 383.008 291.825 382.054 291.64 381.134C291.456 380.214 291.003 379.369 290.338 378.707C289.673 378.044 288.827 377.594 287.906 377.413C286.985 377.233 286.031 377.329 285.165 377.69C284.299 378.052 283.56 378.663 283.041 379.444C282.523 380.226 282.248 381.145 282.251 382.083C282.251 383.333 282.746 384.531 283.628 385.417C284.51 386.302 285.707 386.801 286.956 386.806H286.992Z" fill="white"/>
<path d="M325.688 373.138C326.296 372.458 332.844 366.966 333.435 366.716C331.324 362.279 329.141 357.771 327.066 353.406C326.028 351.169 325.026 348.915 324.06 346.661C323.094 344.407 321.645 341.294 320.715 339.183C320.554 338.825 320.983 338.61 321.162 338.932C322.665 341.688 323.702 343.781 325.008 346.088C325.921 347.77 326.797 349.505 327.638 351.223L327.316 349.756C326.708 347.126 326.332 344.478 325.527 341.866C325.42 341.544 325.939 341.419 326.028 341.741C326.672 344.371 327.638 346.876 328.336 349.488C328.956 351.44 329.423 353.438 329.731 355.463C331.52 359.184 333.524 362.977 335.098 366.716C332.15 369.11 329.048 371.309 325.813 373.299C325.724 373.442 325.599 373.246 325.688 373.138Z" fill="#773344"/>
<path d="M269.853 406.646C278.888 398.542 288.03 390.545 297.511 383.013C302.282 379.245 307.053 375.541 311.823 371.904C316.672 368.326 321.895 365.141 326.672 361.456C326.94 361.241 327.245 361.689 326.976 361.867C322.021 365.302 317.459 369.435 312.664 373.138C307.87 376.841 303.093 380.58 298.352 384.337C288.87 391.851 279.353 399.347 270.05 407.076C269.907 407.29 269.621 406.879 269.853 406.646Z" fill="#773344"/>
<path d="M267.152 419.08C265.363 408.346 264.772 362.798 266.257 351.813C266.267 351.79 266.283 351.77 266.303 351.756C266.324 351.742 266.349 351.734 266.374 351.734C266.399 351.734 266.423 351.742 266.444 351.756C266.465 351.77 266.481 351.79 266.49 351.813C267.366 362.798 267.832 406.557 268.01 417.291C268.172 417.148 275.703 411.637 277.886 410.224C278.208 410.027 278.476 410.403 278.19 410.636C274.716 413.709 271.027 416.531 267.152 419.08Z" fill="#773344"/>
<path d="M530.654 184.148C545.807 184.702 568.456 178.047 578.957 182.019C581.592 182.899 583.873 184.604 585.462 186.883C587.05 189.161 587.862 191.891 587.777 194.667C587.777 194.667 597.867 187.35 606.848 192.538C611.464 195.204 611.267 204.918 611.267 204.918C611.267 204.918 619.603 199.408 627.368 204.507C633.486 208.568 632.359 217.709 632.359 217.709C632.359 217.709 642.843 216.135 647.762 222.289C657.727 234.812 628.566 290.772 603.413 288.679C591.695 287.713 599.567 274.367 599.567 274.367C599.567 274.367 583.627 290.755 571.927 285.101C560.226 279.448 571.497 262.721 571.497 262.721C571.497 262.721 555.915 278.464 544.376 271.308C532.372 263.866 546.487 249.142 546.487 249.142C546.487 249.142 531.549 257.193 523.981 249.697C511.458 237.317 542.515 223.488 546.004 209.659L529.223 192.288L530.654 184.148Z" fill="#D3766A"/>
<path d="M554.144 182.144C539.832 180.355 532.783 157.814 519.348 154.146C501.171 149.191 507.612 175.9 529.187 192.324L548.186 202.145L554.144 182.144Z" fill="#D3766A"/>
<path d="M632.359 219.194C632.359 219.152 632.376 219.111 632.406 219.08C632.436 219.05 632.477 219.033 632.52 219.033C632.563 219.033 632.604 219.05 632.634 219.08C632.664 219.111 632.681 219.152 632.681 219.194C627.582 239.965 615.596 261.218 599.191 275.118C598.654 275.584 597.67 274.904 598.171 274.278C612.34 256.799 623.557 240.09 632.359 219.194Z" fill="#773344"/>
<path d="M611.535 204.721C611.624 204.507 612.018 204.721 611.946 204.918C606.579 226.279 592.428 249.84 571.622 263.651C570.907 264.116 569.833 263.83 570.567 263.222C583.716 252.989 603.681 223.577 611.535 204.721Z" fill="#773344"/>
<path d="M544.626 249.661C564.055 235.654 577.061 216.833 587.563 195.58C587.706 195.311 588.081 195.58 588.028 195.795C585.702 207.602 577.544 220.447 570.37 229.893C563.868 238.807 555.138 245.859 545.056 250.341C544.716 250.52 544.197 249.966 544.626 249.661Z" fill="#773344"/>
</svg>
