<svg width="178" height="143" viewBox="0 0 178 143" fill="none" xmlns="http://www.w3.org/2000/svg">
<g filter="url(#filter0_d_100_280)">
<path d="M93.6218 124.381C78.9075 124.381 65.0224 119.748 53.4678 110.983L53.8203 110.547C65.2735 119.235 79.0366 123.828 93.6218 123.828C108.219 123.828 121.99 119.229 133.448 110.529L133.801 110.964C122.241 119.741 108.348 124.381 93.6218 124.381Z" fill="#3F3D56"/>
<path d="M159.021 105.593C159.592 105.629 159.907 104.919 159.475 104.505L159.432 104.334C159.438 104.32 159.444 104.307 159.45 104.293C160.026 102.915 161.981 102.924 162.553 104.305C163.06 105.529 163.707 106.756 163.866 108.052C163.937 108.623 163.905 109.206 163.778 109.767C164.968 107.164 165.593 104.321 165.593 101.462C165.593 100.744 165.554 100.026 165.474 99.3095C165.408 98.7235 165.317 98.141 165.199 97.5639C164.563 94.4444 163.185 91.4732 161.196 88.9915C160.241 88.468 159.444 87.6498 158.962 86.6689C158.789 86.3151 158.654 85.9346 158.59 85.5469C158.698 85.5612 159 83.9013 158.918 83.7995C159.069 83.569 159.341 83.4545 159.506 83.2296C160.329 82.1111 161.464 82.3064 162.056 83.8263C163.321 84.466 163.333 85.527 162.557 86.5474C162.063 87.1966 161.995 88.075 161.562 88.77C161.607 88.8272 161.653 88.8826 161.698 88.9397C162.515 89.9903 163.222 91.1195 163.818 92.3058C163.65 90.9874 163.898 89.399 164.322 88.3752C164.805 87.2086 165.709 86.226 166.506 85.2175C167.463 84.0061 169.425 84.5348 169.593 86.0704C169.595 86.0853 169.597 86.1001 169.598 86.115C169.48 86.1819 169.364 86.253 169.251 86.328C168.605 86.756 168.828 87.7592 169.593 87.8776L169.611 87.8802C169.568 88.3072 169.495 88.7307 169.388 89.147C170.41 93.107 168.203 94.5494 165.053 94.6142C164.984 94.6499 164.916 94.6856 164.846 94.7196C165.166 95.6201 165.42 96.5438 165.609 97.48C165.779 98.3072 165.897 99.1433 165.963 99.9831C166.045 101.043 166.037 102.107 165.948 103.165L165.954 103.128C166.18 101.963 166.811 100.875 167.728 100.121C169.093 98.9968 171.022 98.583 172.495 97.6797C173.204 97.2448 174.112 97.8068 173.989 98.6304L173.983 98.6699C173.763 98.7592 173.549 98.8628 173.342 98.979C173.224 99.0459 173.108 99.1169 172.995 99.1919C172.349 99.62 172.572 100.623 173.338 100.742L173.355 100.744C173.367 100.746 173.378 100.748 173.391 100.75C173.014 101.645 172.49 102.475 171.834 103.192C171.195 106.649 168.451 106.977 165.515 105.97H165.513C165.192 107.371 164.723 108.74 164.121 110.044H159.146C159.128 109.988 159.112 109.931 159.096 109.876C159.556 109.904 160.02 109.878 160.473 109.794C160.103 109.34 159.734 108.882 159.365 108.429C159.356 108.42 159.349 108.411 159.342 108.402C159.155 108.17 158.966 107.939 158.779 107.707L158.779 107.707C158.767 106.994 158.852 106.283 159.021 105.593L159.021 105.593Z" fill="#F2F2F2"/>
<path d="M18.9899 105.593C18.4195 105.629 18.1043 104.919 18.5358 104.505L18.5788 104.334C18.5731 104.32 18.5674 104.307 18.5617 104.293C17.9849 102.915 16.0303 102.924 15.4584 104.305C14.9508 105.529 14.3046 106.756 14.1455 108.052C14.0742 108.623 14.1063 109.206 14.2329 109.767C13.0436 107.164 12.4178 104.321 12.4178 101.462C12.4178 100.744 12.457 100.026 12.5372 99.3095C12.6032 98.7235 12.6941 98.141 12.8118 97.5639C13.4484 94.4444 14.8267 91.4732 16.8147 88.9915C17.7704 88.468 18.5674 87.6498 19.0489 86.6689C19.2218 86.3151 19.3573 85.9346 19.4215 85.5469C19.3127 85.5612 19.0114 83.9013 19.0934 83.7995C18.9419 83.569 18.6706 83.4545 18.505 83.2296C17.6817 82.1111 16.5474 82.3064 15.9553 83.8263C14.6903 84.466 14.6781 85.527 15.4543 86.5474C15.9481 87.1966 16.0159 88.075 16.4492 88.77C16.4046 88.8272 16.3583 88.8826 16.3137 88.9397C15.4963 89.9903 14.7893 91.1195 14.1933 92.3058C14.3617 90.9874 14.113 89.399 13.6891 88.3752C13.2065 87.2086 12.3019 86.226 11.5053 85.2175C10.5485 84.0061 8.58644 84.5348 8.41787 86.0704C8.41623 86.0853 8.41465 86.1001 8.41309 86.115C8.53141 86.1819 8.64732 86.253 8.76055 86.328C9.40638 86.756 9.18318 87.7592 8.41794 87.8776L8.40061 87.8802C8.44341 88.3072 8.51651 88.7307 8.62348 89.147C7.60157 93.107 9.80781 94.5494 12.958 94.6142C13.0276 94.6499 13.0953 94.6856 13.1649 94.7196C12.8457 95.6201 12.5907 96.5438 12.4017 97.48C12.2323 98.3072 12.1146 99.1433 12.0487 99.9831C11.9667 101.043 11.9738 102.107 12.063 103.165L12.0576 103.128C11.8312 101.963 11.2 100.875 10.2835 100.121C8.9182 98.9968 6.98932 98.583 5.51642 97.6797C4.80741 97.2448 3.89886 97.8068 4.02261 98.6304L4.02863 98.6699C4.24794 98.7592 4.4619 98.8628 4.66873 98.979C4.78705 99.0459 4.90296 99.1169 5.01619 99.1919C5.66203 99.62 5.43882 100.623 4.67358 100.742L4.65624 100.744C4.64376 100.746 4.63306 100.748 4.6206 100.75C4.99681 101.645 5.52101 102.475 6.17717 103.192C6.81614 106.649 9.56055 106.977 12.4962 105.97H12.498C12.819 107.371 13.2879 108.74 13.8906 110.044H18.8652C18.883 109.988 18.8991 109.931 18.9151 109.876C18.4551 109.904 17.9915 109.878 17.5386 109.794C17.9077 109.34 18.2768 108.882 18.6459 108.429C18.6548 108.42 18.6619 108.411 18.6691 108.402C18.8563 108.17 19.0453 107.939 19.2325 107.707L19.2326 107.707C19.2443 106.994 19.159 106.283 18.99 105.593L18.9899 105.593Z" fill="#F2F2F2"/>
<path d="M45.5924 110.741L45.3604 111.013C36.2999 103.27 31.1033 91.9902 31.1033 80.0659C31.1033 69.204 35.3244 58.9925 42.9889 51.3124C50.6535 43.6323 60.8442 39.4026 71.684 39.4026C82.5238 39.4026 92.7146 43.6323 100.379 51.3124C108.044 58.9925 112.265 69.204 112.265 80.0659C112.265 91.9902 107.068 103.27 98.0076 111.013L97.7756 110.741" fill="#F2F2F2"/>
<path d="M134.418 110.582L134.06 110.161C147.928 98.3097 155.882 81.0444 155.882 62.793C155.882 28.4739 128.018 0.553245 93.7687 0.553245C59.5194 0.553245 31.6555 28.4739 31.6555 62.793C31.6555 81.0444 39.6093 98.3097 53.4776 110.161L53.1193 110.582C39.1279 98.6252 31.1033 81.2067 31.1033 62.793C31.1033 46.0199 37.6216 30.2511 49.4572 18.3913C61.293 6.53153 77.0297 0 93.7687 0C110.508 0 126.244 6.53153 138.08 18.3913C149.916 30.2511 156.434 46.0199 156.434 62.793C156.434 81.2067 148.41 98.6252 134.418 110.582V110.582Z" fill="#3F3D56"/>
<path d="M113.043 110.471C113.043 110.653 113.19 110.799 113.372 110.799H173.633C173.815 110.799 173.961 110.653 173.961 110.471C173.961 110.289 173.815 110.142 173.633 110.142H113.372C113.19 110.142 113.043 110.289 113.043 110.471Z" fill="#CCCCCC"/>
<path d="M94.0448 0.276611H93.4927V19.4746H94.0448V0.276611Z" fill="#3F3D56"/>
<path d="M50.8969 61.8805H31.7381V62.4326H50.8969V61.8805Z" fill="#3F3D56"/>
<path d="M52.8663 15.5419L52.4384 15.8917L64.5522 30.7651L64.98 30.4153L52.8663 15.5419Z" fill="#3F3D56"/>
<path d="M58.2252 87.6831L43.3848 99.8253L43.7339 100.254L58.5743 88.1116L58.2252 87.6831Z" fill="#3F3D56"/>
<path d="M155.799 61.8805H136.641V62.4326H155.799V61.8805Z" fill="#3F3D56"/>
<path d="M134.671 15.5415L122.558 30.4156L122.986 30.7655L135.098 15.8913L134.671 15.5415Z" fill="#3F3D56"/>
<path d="M129.311 87.6849L128.962 88.1134L143.805 100.252L144.154 99.8235L129.311 87.6849Z" fill="#3F3D56"/>
<path d="M93.7687 68.6021C98.0377 68.6021 101.498 65.1344 101.498 60.8567C101.498 56.5791 98.0377 53.1113 93.7687 53.1113C89.4997 53.1113 86.0391 56.5791 86.0391 60.8567C86.0391 65.1344 89.4997 68.6021 93.7687 68.6021Z" fill="#3F3D56"/>
<path d="M129.38 90.4552C130.905 90.4552 132.141 89.2167 132.141 87.6889C132.141 86.1612 130.905 84.9227 129.38 84.9227C127.856 84.9227 126.62 86.1612 126.62 87.6889C126.62 89.2167 127.856 90.4552 129.38 90.4552Z" fill="#3F3D56"/>
<path d="M135.454 65.5593C136.978 65.5593 138.214 64.3208 138.214 62.7931C138.214 61.2653 136.978 60.0269 135.454 60.0269C133.929 60.0269 132.693 61.2653 132.693 62.7931C132.693 64.3208 133.929 65.5593 135.454 65.5593Z" fill="#3F3D56"/>
<path d="M122.203 33.4711C123.727 33.4711 124.963 32.2327 124.963 30.7049C124.963 29.1772 123.727 27.9387 122.203 27.9387C120.678 27.9387 119.442 29.1772 119.442 30.7049C119.442 32.2327 120.678 33.4711 122.203 33.4711Z" fill="#3F3D56"/>
<path d="M93.4927 22.9595C95.0173 22.9595 96.2533 21.7211 96.2533 20.1933C96.2533 18.6656 95.0173 17.4271 93.4927 17.4271C91.968 17.4271 90.7321 18.6656 90.7321 20.1933C90.7321 21.7211 91.968 22.9595 93.4927 22.9595Z" fill="#3F3D56"/>
<path d="M65.0586 33.4711C66.5832 33.4711 67.8192 32.2327 67.8192 30.7049C67.8192 29.1772 66.5832 27.9387 65.0586 27.9387C63.534 27.9387 62.298 29.1772 62.298 30.7049C62.298 32.2327 63.534 33.4711 65.0586 33.4711Z" fill="#3F3D56"/>
<path d="M50.9796 64.7293C52.5042 64.7293 53.7402 63.4908 53.7402 61.9631C53.7402 60.4354 52.5042 59.1969 50.9796 59.1969C49.455 59.1969 48.219 60.4354 48.219 61.9631C48.219 63.4908 49.455 64.7293 50.9796 64.7293Z" fill="#3F3D56"/>
<path d="M58.7092 90.1785C60.2339 90.1785 61.4698 88.9401 61.4698 87.4123C61.4698 85.8846 60.2339 84.6461 58.7092 84.6461C57.1846 84.6461 55.9486 85.8846 55.9486 87.4123C55.9486 88.9401 57.1846 90.1785 58.7092 90.1785Z" fill="#3F3D56"/>
<path d="M78.6024 64.1879C80.127 64.1879 81.363 62.9495 81.363 61.4217C81.363 59.894 80.127 58.6555 78.6024 58.6555C77.0778 58.6555 75.8418 59.894 75.8418 61.4217C75.8418 62.9495 77.0778 64.1879 78.6024 64.1879Z" fill="#3F3D56"/>
<path d="M142.313 56.6388L80.5334 59.3048C79.4671 59.3508 78.64 60.2542 78.6859 61.3226L78.6859 61.3226C78.7318 62.391 79.6334 63.2199 80.6997 63.1739L142.48 60.5079C143.546 60.4619 144.373 59.5585 144.327 58.4901C144.281 57.4216 143.38 56.5928 142.313 56.6388Z" fill="#6C63FF"/>
<path d="M93.4431 133.984C93.4431 134.166 93.5895 134.312 93.7717 134.312H154.033C154.215 134.312 154.361 134.166 154.361 133.984C154.361 133.801 154.215 133.655 154.033 133.655H93.7717C93.5895 133.655 93.4431 133.801 93.4431 133.984Z" fill="#CCCCCC"/>
<path d="M4 110.471C4 110.653 4.14632 110.799 4.32853 110.799H64.5895C64.7716 110.799 64.918 110.653 64.918 110.471C64.918 110.289 64.7716 110.142 64.5895 110.142H4.32853C4.14632 110.142 4 110.289 4 110.471Z" fill="#CCCCCC"/>
</g>
<defs>
<filter id="filter0_d_100_280" x="0" y="0" width="178" height="142.312" filterUnits="userSpaceOnUse" color-interpolation-filters="sRGB">
<feFlood flood-opacity="0" result="BackgroundImageFix"/>
<feColorMatrix in="SourceAlpha" type="matrix" values="0 0 0 0 0 0 0 0 0 0 0 0 0 0 0 0 0 0 127 0" result="hardAlpha"/>
<feOffset dy="4"/>
<feGaussianBlur stdDeviation="2"/>
<feComposite in2="hardAlpha" operator="out"/>
<feColorMatrix type="matrix" values="0 0 0 0 0 0 0 0 0 0 0 0 0 0 0 0 0 0 0.5 0"/>
<feBlend mode="normal" in2="BackgroundImageFix" result="effect1_dropShadow_100_280"/>
<feBlend mode="normal" in="SourceGraphic" in2="effect1_dropShadow_100_280" result="shape"/>
</filter>
</defs>
</svg>
